Amiamie-RegularRound.ufo
<glyph name="quotedbl" format="2">
	<advance width="357"/>
	<unicode hex="0022"/>
	<note>
		quotedbl
	</note>
	<outline>
		<contour>
			<point x="166" y="487"/>
			<point x="167" y="509" type="curve" smooth="yes"/>
			<point x="175" y="688" type="line" smooth="yes"/>
			<point x="176" y="715"/>
			<point x="154" y="741"/>
			<point x="125" y="741" type="curve" smooth="yes"/>
			<point x="95" y="741"/>
			<point x="73" y="715"/>
			<point x="74" y="688" type="curve" smooth="yes"/>
			<point x="82" y="509" type="line" smooth="yes"/>
			<point x="83" y="487"/>
			<point x="101" y="469"/>
			<point x="124" y="469" type="curve" smooth="yes"/>
			<point x="147" y="469"/>
		</contour>
		<contour>
			<point x="318" y="487"/>
			<point x="319" y="509" type="curve" smooth="yes"/>
			<point x="327" y="688" type="line" smooth="yes"/>
			<point x="328" y="715"/>
			<point x="306" y="741"/>
			<point x="276" y="741" type="curve" smooth="yes"/>
			<point x="247" y="741"/>
			<point x="225" y="715"/>
			<point x="226" y="688" type="curve" smooth="yes"/>
			<point x="234" y="509" type="line" smooth="yes"/>
			<point x="235" y="487"/>
			<point x="254" y="469"/>
			<point x="277" y="469" type="curve" smooth="yes"/>
			<point x="300" y="469"/>
		</contour>
	</outline>
</glyph>
<glyph name="period" format="2">
	<advance width="232"/>
	<unicode hex="002E"/>
	<note>
		period
	</note>
	<outline>
		<contour>
			<point x="66" y="-14"/>
			<point x="106" y="-14" type="curve" smooth="yes"/>
			<point x="118" y="-14" type="line" smooth="yes"/>
			<point x="158" y="-14"/>
			<point x="191" y="19"/>
			<point x="191" y="59" type="curve" smooth="yes"/>
			<point x="191" y="99"/>
			<point x="158" y="132"/>
			<point x="118" y="132" type="curve" smooth="yes"/>
			<point x="106" y="132" type="line" smooth="yes"/>
			<point x="66" y="132"/>
			<point x="33" y="99"/>
			<point x="33" y="59" type="curve" smooth="yes"/>
			<point x="33" y="19"/>
		</contour>
	</outline>
</glyph>
<glyph name="one" format="2">
	<advance width="601"/>
	<unicode hex="0031"/>
	<note>
		one
	</note>
	<outline>
		<contour>
			<point x="432" y="50" type="curve" smooth="yes"/>
			<point x="432" y="640" type="line" smooth="yes"/>
			<point x="432" y="674"/>
			<point x="400" y="701"/>
			<point x="366" y="695" type="curve" smooth="yes"/>
			<point x="337" y="689"/>
			<point x="309" y="682"/>
			<point x="279" y="664" type="curve" smooth="yes"/>
			<point x="144" y="581" type="line" smooth="yes"/>
			<point x="131" y="573"/>
			<point x="122" y="558"/>
			<point x="122" y="541" type="curve" smooth="yes"/>
			<point x="122" y="515"/>
			<point x="143" y="494"/>
			<point x="169" y="494" type="curve" smooth="yes"/>
			<point x="177" y="494"/>
			<point x="185" y="496"/>
			<point x="192" y="500" type="curve" smooth="yes"/>
			<point x="322" y="575" type="line"/>
			<point x="322" y="50" type="line" smooth="yes"/>
			<point x="322" y="20"/>
			<point x="347" y="-6"/>
			<point x="377" y="-6" type="curve" smooth="yes"/>
			<point x="407" y="-6"/>
			<point x="432" y="20"/>
		</contour>
	</outline>
</glyph>
<glyph name="five" format="2">
	<advance width="601"/>
	<unicode hex="0035"/>
	<note>
		five
	</note>
	<outline>
		<contour>
			<point x="325" y="459" type="curve" smooth="yes"/>
			<point x="297" y="459"/>
			<point x="271" y="455"/>
			<point x="248" y="446" type="curve" smooth="yes"/>
			<point x="224" y="437"/>
			<point x="211" y="423"/>
			<point x="194" y="403" type="curve" smooth="yes"/>
			<point x="178" y="384" type="line"/>
			<point x="206" y="603" type="line"/>
			<point x="488" y="603" type="line" smooth="yes"/>
			<point x="512" y="603"/>
			<point x="532" y="622"/>
			<point x="532" y="647" type="curve" smooth="yes"/>
			<point x="532" y="671"/>
			<point x="512" y="690"/>
			<point x="488" y="690" type="curve" smooth="yes"/>
			<point x="172" y="690" type="line" smooth="yes"/>
			<point x="136" y="690"/>
			<point x="114" y="671"/>
			<point x="110" y="636" type="curve" smooth="yes"/>
			<point x="75" y="347" type="line" smooth="yes"/>
			<point x="71" y="311"/>
			<point x="99" y="281"/>
			<point x="134" y="281" type="curve" smooth="yes"/>
			<point x="156" y="281"/>
			<point x="176" y="292"/>
			<point x="186" y="309" type="curve" smooth="yes"/>
			<point x="214" y="357"/>
			<point x="251" y="375"/>
			<point x="301" y="375" type="curve" smooth="yes"/>
			<point x="386" y="375"/>
			<point x="436" y="314"/>
			<point x="436" y="221" type="curve" smooth="yes"/>
			<point x="436" y="127"/>
			<point x="383" y="70"/>
			<point x="298" y="70" type="curve" smooth="yes"/>
			<point x="235" y="70"/>
			<point x="198" y="100"/>
			<point x="178" y="150" type="curve" smooth="yes"/>
			<point x="168" y="176"/>
			<point x="164" y="199"/>
			<point x="138" y="208" type="curve" smooth="yes"/>
			<point x="132" y="210"/>
			<point x="124" y="211"/>
			<point x="117" y="211" type="curve" smooth="yes"/>
			<point x="106" y="211"/>
			<point x="95" y="209"/>
			<point x="84" y="205" type="curve" smooth="yes"/>
			<point x="63" y="197"/>
			<point x="58" y="173"/>
			<point x="66" y="142" type="curve" smooth="yes"/>
			<point x="92" y="38"/>
			<point x="173" y="-14"/>
			<point x="301" y="-14" type="curve" smooth="yes"/>
			<point x="433" y="-14"/>
			<point x="555" y="72"/>
			<point x="555" y="226" type="curve" smooth="yes"/>
			<point x="555" y="362"/>
			<point x="475" y="459"/>
		</contour>
	</outline>
</glyph>
<glyph name="colon" format="2">
	<advance width="232"/>
	<unicode hex="003A"/>
	<note>
		colon
	</note>
	<outline>
		<contour>
			<point x="66" y="399"/>
			<point x="106" y="399" type="curve" smooth="yes"/>
			<point x="118" y="399" type="line" smooth="yes"/>
			<point x="158" y="399"/>
			<point x="191" y="432"/>
			<point x="191" y="472" type="curve" smooth="yes"/>
			<point x="191" y="512"/>
			<point x="158" y="545"/>
			<point x="118" y="545" type="curve" smooth="yes"/>
			<point x="106" y="545" type="line" smooth="yes"/>
			<point x="66" y="545"/>
			<point x="33" y="512"/>
			<point x="33" y="472" type="curve" smooth="yes"/>
			<point x="33" y="432"/>
		</contour>
		<contour>
			<point x="66" y="-12"/>
			<point x="106" y="-12" type="curve" smooth="yes"/>
			<point x="118" y="-12" type="line" smooth="yes"/>
			<point x="158" y="-12"/>
			<point x="191" y="21"/>
			<point x="191" y="61" type="curve" smooth="yes"/>
			<point x="191" y="101"/>
			<point x="158" y="134"/>
			<point x="118" y="134" type="curve" smooth="yes"/>
			<point x="106" y="134" type="line" smooth="yes"/>
			<point x="66" y="134"/>
			<point x="33" y="101"/>
			<point x="33" y="61" type="curve" smooth="yes"/>
			<point x="33" y="21"/>
		</contour>
	</outline>
</glyph>
<glyph name="semicolon" format="2">
	<advance width="232"/>
	<unicode hex="003B"/>
	<note>
		semicolon
	</note>
	<outline>
		<contour>
			<point x="76" y="-97" type="curve" smooth="yes"/>
			<point x="143" y="67" type="line" smooth="yes"/>
			<point x="155" y="98"/>
			<point x="154" y="130"/>
			<point x="123" y="141" type="curve" smooth="yes"/>
			<point x="115" y="144"/>
			<point x="106" y="145"/>
			<point x="97" y="145" type="curve" smooth="yes"/>
			<point x="63" y="145"/>
			<point x="47" y="119"/>
			<point x="37" y="87" type="curve" smooth="yes"/>
			<point x="-12" y="-65" type="line" smooth="yes"/>
			<point x="-13" y="-69"/>
			<point x="-14" y="-75"/>
			<point x="-14" y="-80" type="curve" smooth="yes"/>
			<point x="-14" y="-106"/>
			<point x="6" y="-127"/>
			<point x="32" y="-127" type="curve" smooth="yes"/>
			<point x="52" y="-127"/>
			<point x="69" y="-114"/>
		</contour>
		<contour>
			<point x="59" y="421"/>
			<point x="82" y="408" type="curve" smooth="yes"/>
			<point x="105" y="395"/>
			<point x="129" y="399"/>
			<point x="148" y="419" type="curve" smooth="yes"/>
			<point x="161" y="432"/>
			<point x="170" y="451"/>
			<point x="170" y="472" type="curve" smooth="yes"/>
			<point x="170" y="493"/>
			<point x="161" y="512"/>
			<point x="148" y="525" type="curve" smooth="yes"/>
			<point x="129" y="545"/>
			<point x="105" y="549"/>
			<point x="82" y="536" type="curve" smooth="yes"/>
			<point x="59" y="523"/>
			<point x="44" y="499"/>
			<point x="44" y="472" type="curve" smooth="yes"/>
			<point x="44" y="445"/>
		</contour>
	</outline>
</glyph>
<glyph name="less" format="2">
	<advance width="601"/>
	<unicode hex="003C"/>
	<note>
		less
	</note>
	<outline>
		<contour>
			<point x="175" y="266" type="line"/>
			<point x="507" y="415" type="line" smooth="yes"/>
			<point x="519" y="421"/>
			<point x="528" y="433"/>
			<point x="528" y="448" type="curve" smooth="yes"/>
			<point x="528" y="468"/>
			<point x="512" y="485"/>
			<point x="492" y="485" type="curve" smooth="yes"/>
			<point x="486" y="485"/>
			<point x="480" y="483"/>
			<point x="476" y="481" type="curve" smooth="yes"/>
			<point x="135" y="322" type="line" smooth="yes"/>
			<point x="114" y="312"/>
			<point x="98" y="291"/>
			<point x="98" y="266" type="curve" smooth="yes"/>
			<point x="98" y="240"/>
			<point x="114" y="219"/>
			<point x="135" y="209" type="curve" smooth="yes"/>
			<point x="476" y="50" type="line" smooth="yes"/>
			<point x="480" y="48"/>
			<point x="486" y="46"/>
			<point x="491" y="46" type="curve" smooth="yes"/>
			<point x="512" y="46"/>
			<point x="529" y="63"/>
			<point x="529" y="84" type="curve" smooth="yes"/>
			<point x="529" y="99"/>
			<point x="520" y="111"/>
			<point x="507" y="117" type="curve" smooth="yes"/>
		</contour>
	</outline>
</glyph>
<glyph name="A" format="2">
	<advance width="656"/>
	<unicode hex="0041"/>
	<note>
		A
	</note>
	<outline>
		<contour>
			<point x="215" y="228" type="line"/>
			<point x="460" y="228" type="line"/>
			<point x="524" y="33" type="line" smooth="yes"/>
			<point x="531" y="10"/>
			<point x="552" y="-6"/>
			<point x="577" y="-6" type="curve" smooth="yes"/>
			<point x="608" y="-6"/>
			<point x="633" y="20"/>
			<point x="633" y="50" type="curve" smooth="yes"/>
			<point x="633" y="57"/>
			<point x="632" y="64"/>
			<point x="630" y="69" type="curve" smooth="yes"/>
			<point x="429" y="643" type="line" smooth="yes"/>
			<point x="418" y="674"/>
			<point x="396" y="690"/>
			<point x="363" y="690" type="curve" smooth="yes"/>
			<point x="320" y="690" type="line" smooth="yes"/>
			<point x="287" y="690"/>
			<point x="265" y="676"/>
			<point x="254" y="644" type="curve" smooth="yes"/>
			<point x="47" y="68" type="line" smooth="yes"/>
			<point x="45" y="63"/>
			<point x="44" y="56"/>
			<point x="44" y="49" type="curve" smooth="yes"/>
			<point x="44" y="19"/>
			<point x="69" y="-6"/>
			<point x="99" y="-6" type="curve" smooth="yes"/>
			<point x="123" y="-6"/>
			<point x="144" y="11"/>
			<point x="151" y="32" type="curve" smooth="yes"/>
		</contour>
		<contour>
			<point x="431" y="315" type="line"/>
			<point x="244" y="315" type="line"/>
			<point x="340" y="599" type="line"/>
		</contour>
	</outline>
</glyph>
<glyph name="D" format="2">
	<advance width="719"/>
	<unicode hex="0044"/>
	<note>
		D
	</note>
	<outline>
		<contour>
			<point x="406" y="686" type="curve" smooth="yes"/>
			<point x="371" y="690"/>
			<point x="355" y="690"/>
			<point x="318" y="690" type="curve" smooth="yes"/>
			<point x="153" y="690" type="line" smooth="yes"/>
			<point x="116" y="690"/>
			<point x="95" y="669"/>
			<point x="95" y="632" type="curve" smooth="yes"/>
			<point x="95" y="58" type="line" smooth="yes"/>
			<point x="95" y="21"/>
			<point x="116" y="0"/>
			<point x="153" y="0" type="curve" smooth="yes"/>
			<point x="314" y="0" type="line" smooth="yes"/>
			<point x="351" y="0"/>
			<point x="367" y="0"/>
			<point x="402" y="4" type="curve" smooth="yes"/>
			<point x="562" y="24"/>
			<point x="684" y="147"/>
			<point x="684" y="353" type="curve" smooth="yes"/>
			<point x="684" y="562"/>
			<point x="566" y="667"/>
		</contour>
		<contour>
			<point x="383" y="92" type="curve" smooth="yes"/>
			<point x="361" y="88"/>
			<point x="338" y="88"/>
			<point x="304" y="88" type="curve" smooth="yes"/>
			<point x="205" y="88" type="line"/>
			<point x="205" y="603" type="line"/>
			<point x="308" y="603" type="line" smooth="yes"/>
			<point x="341" y="603"/>
			<point x="365" y="602"/>
			<point x="387" y="598" type="curve" smooth="yes"/>
			<point x="497" y="582"/>
			<point x="566" y="498"/>
			<point x="566" y="353" type="curve" smooth="yes"/>
			<point x="566" y="200"/>
			<point x="494" y="108"/>
		</contour>
	</outline>
</glyph>
<glyph name="F" format="2">
	<advance width="579"/>
	<unicode hex="0046"/>
	<note>
		F
	</note>
	<outline>
		<contour>
			<point x="205" y="389" type="line"/>
			<point x="205" y="603" type="line"/>
			<point x="524" y="603" type="line" smooth="yes"/>
			<point x="548" y="603"/>
			<point x="568" y="622"/>
			<point x="568" y="647" type="curve" smooth="yes"/>
			<point x="568" y="671"/>
			<point x="548" y="690"/>
			<point x="524" y="690" type="curve" smooth="yes"/>
			<point x="153" y="690" type="line" smooth="yes"/>
			<point x="116" y="690"/>
			<point x="95" y="669"/>
			<point x="95" y="632" type="curve" smooth="yes"/>
			<point x="95" y="50" type="line" smooth="yes"/>
			<point x="95" y="20"/>
			<point x="120" y="-6"/>
			<point x="150" y="-6" type="curve" smooth="yes"/>
			<point x="180" y="-6"/>
			<point x="205" y="20"/>
			<point x="205" y="50" type="curve" smooth="yes"/>
			<point x="205" y="302" type="line"/>
			<point x="486" y="302" type="line" smooth="yes"/>
			<point x="510" y="302"/>
			<point x="530" y="321"/>
			<point x="530" y="346" type="curve" smooth="yes"/>
			<point x="530" y="370"/>
			<point x="510" y="389"/>
			<point x="486" y="389" type="curve" smooth="yes"/>
		</contour>
	</outline>
</glyph>
<glyph name="K" format="2">
	<advance width="643"/>
	<unicode hex="004B"/>
	<note>
		K
	</note>
	<outline>
		<contour>
			<point x="568" y="87" type="curve" smooth="yes"/>
			<point x="346" y="356" type="line"/>
			<point x="590" y="619" type="line" smooth="yes"/>
			<point x="624" y="656"/>
			<point x="614" y="690"/>
			<point x="569" y="690" type="curve" smooth="yes"/>
			<point x="539" y="690"/>
			<point x="517" y="681"/>
			<point x="497" y="659" type="curve" smooth="yes"/>
			<point x="205" y="339" type="line"/>
			<point x="205" y="641" type="line" smooth="yes"/>
			<point x="205" y="671"/>
			<point x="180" y="696"/>
			<point x="150" y="696" type="curve" smooth="yes"/>
			<point x="120" y="696"/>
			<point x="95" y="671"/>
			<point x="95" y="641" type="curve" smooth="yes"/>
			<point x="95" y="50" type="line" smooth="yes"/>
			<point x="95" y="20"/>
			<point x="120" y="-6"/>
			<point x="150" y="-6" type="curve" smooth="yes"/>
			<point x="180" y="-6"/>
			<point x="205" y="20"/>
			<point x="205" y="50" type="curve" smooth="yes"/>
			<point x="205" y="222" type="line"/>
			<point x="266" y="288" type="line"/>
			<point x="480" y="16" type="line" smooth="yes"/>
			<point x="490" y="3"/>
			<point x="507" y="-6"/>
			<point x="525" y="-6" type="curve" smooth="yes"/>
			<point x="556" y="-6"/>
			<point x="581" y="20"/>
			<point x="581" y="51" type="curve" smooth="yes"/>
			<point x="581" y="65"/>
			<point x="576" y="78"/>
		</contour>
	</outline>
</glyph>
<glyph name="N" format="2">
	<advance width="737"/>
	<unicode hex="004E"/>
	<note>
		N
	</note>
	<outline>
		<contour>
			<point x="554" y="0" type="curve" smooth="yes"/>
			<point x="607" y="0" type="line" smooth="yes"/>
			<point x="644" y="0"/>
			<point x="665" y="21"/>
			<point x="665" y="58" type="curve" smooth="yes"/>
			<point x="664" y="642" type="line" smooth="yes"/>
			<point x="664" y="671"/>
			<point x="640" y="695"/>
			<point x="610" y="695" type="curve" smooth="yes"/>
			<point x="580" y="695"/>
			<point x="556" y="670"/>
			<point x="556" y="641" type="curve" smooth="yes"/>
			<point x="556" y="358" type="line" smooth="yes"/>
			<point x="556" y="287"/>
			<point x="557" y="195"/>
			<point x="559" y="117" type="curve"/>
			<point x="272" y="649" type="line" smooth="yes"/>
			<point x="257" y="678"/>
			<point x="235" y="690"/>
			<point x="203" y="690" type="curve" smooth="yes"/>
			<point x="153" y="690" type="line" smooth="yes"/>
			<point x="116" y="690"/>
			<point x="95" y="669"/>
			<point x="95" y="632" type="curve" smooth="yes"/>
			<point x="95" y="50" type="line" smooth="yes"/>
			<point x="95" y="20"/>
			<point x="120" y="-6"/>
			<point x="150" y="-6" type="curve" smooth="yes"/>
			<point x="180" y="-6"/>
			<point x="205" y="20"/>
			<point x="205" y="50" type="curve" smooth="yes"/>
			<point x="205" y="330" type="line" smooth="yes"/>
			<point x="205" y="401"/>
			<point x="204" y="490"/>
			<point x="201" y="569" type="curve"/>
			<point x="485" y="41" type="line" smooth="yes"/>
			<point x="500" y="12"/>
			<point x="522" y="0"/>
		</contour>
	</outline>
</glyph>
<glyph name="P" format="2">
	<advance width="610"/>
	<unicode hex="0050"/>
	<note>
		P
	</note>
	<outline>
		<contour>
			<point x="415" y="686" type="curve" smooth="yes"/>
			<point x="383" y="690"/>
			<point x="358" y="690"/>
			<point x="321" y="690" type="curve" smooth="yes"/>
			<point x="153" y="690" type="line" smooth="yes"/>
			<point x="116" y="690"/>
			<point x="95" y="669"/>
			<point x="95" y="632" type="curve" smooth="yes"/>
			<point x="95" y="50" type="line" smooth="yes"/>
			<point x="95" y="20"/>
			<point x="120" y="-6"/>
			<point x="150" y="-6" type="curve" smooth="yes"/>
			<point x="180" y="-6"/>
			<point x="205" y="20"/>
			<point x="205" y="50" type="curve" smooth="yes"/>
			<point x="205" y="272" type="line"/>
			<point x="321" y="272" type="line" smooth="yes"/>
			<point x="358" y="272"/>
			<point x="383" y="272"/>
			<point x="415" y="276" type="curve" smooth="yes"/>
			<point x="515" y="289"/>
			<point x="597" y="359"/>
			<point x="597" y="481" type="curve" smooth="yes"/>
			<point x="597" y="603"/>
			<point x="523" y="672"/>
		</contour>
		<contour>
			<point x="394" y="365" type="curve" smooth="yes"/>
			<point x="376" y="362"/>
			<point x="352" y="361"/>
			<point x="324" y="361" type="curve" smooth="yes"/>
			<point x="205" y="361" type="line"/>
			<point x="205" y="601" type="line"/>
			<point x="324" y="601" type="line" smooth="yes"/>
			<point x="352" y="601"/>
			<point x="376" y="600"/>
			<point x="394" y="597" type="curve" smooth="yes"/>
			<point x="442" y="588"/>
			<point x="481" y="554"/>
			<point x="481" y="481" type="curve" smooth="yes"/>
			<point x="481" y="408"/>
			<point x="442" y="374"/>
		</contour>
	</outline>
</glyph>
<glyph name="W" format="2">
	<advance width="968"/>
	<unicode hex="0057"/>
	<note>
		W
	</note>
	<outline>
		<contour>
			<point x="791" y="49" type="curve" smooth="yes"/>
			<point x="949" y="627" type="line" smooth="yes"/>
			<point x="950" y="631"/>
			<point x="951" y="636"/>
			<point x="951" y="641" type="curve" smooth="yes"/>
			<point x="951" y="671"/>
			<point x="926" y="696"/>
			<point x="896" y="696" type="curve" smooth="yes"/>
			<point x="871" y="696"/>
			<point x="849" y="677"/>
			<point x="844" y="653" type="curve" smooth="yes"/>
			<point x="712" y="88" type="line"/>
			<point x="585" y="629" type="line" smooth="yes"/>
			<point x="577" y="663"/>
			<point x="555" y="680"/>
			<point x="521" y="680" type="curve" smooth="yes"/>
			<point x="474" y="680" type="line" smooth="yes"/>
			<point x="440" y="680"/>
			<point x="418" y="663"/>
			<point x="410" y="630" type="curve" smooth="yes"/>
			<point x="279" y="91" type="line"/>
			<point x="156" y="650" type="line" smooth="yes"/>
			<point x="150" y="676"/>
			<point x="127" y="695"/>
			<point x="99" y="695" type="curve" smooth="yes"/>
			<point x="67" y="695"/>
			<point x="41" y="670"/>
			<point x="41" y="638" type="curve" smooth="yes"/>
			<point x="41" y="633"/>
			<point x="42" y="627"/>
			<point x="43" y="623" type="curve" smooth="yes"/>
			<point x="191" y="50" type="line" smooth="yes"/>
			<point x="200" y="17"/>
			<point x="221" y="0"/>
			<point x="255" y="0" type="curve" smooth="yes"/>
			<point x="298" y="0" type="line" smooth="yes"/>
			<point x="332" y="0"/>
			<point x="354" y="17"/>
			<point x="362" y="50" type="curve" smooth="yes"/>
			<point x="495" y="588" type="line"/>
			<point x="621" y="51" type="line" smooth="yes"/>
			<point x="629" y="17"/>
			<point x="651" y="0"/>
			<point x="685" y="0" type="curve" smooth="yes"/>
			<point x="727" y="0" type="line" smooth="yes"/>
			<point x="761" y="0"/>
			<point x="782" y="15"/>
		</contour>
	</outline>
</glyph>
<glyph name="Y" format="2">
	<advance width="602"/>
	<unicode hex="0059"/>
	<note>
		Y
	</note>
	<outline>
		<contour>
			<point x="371" y="49" type="curve" smooth="yes"/>
			<point x="371" y="270" type="line"/>
			<point x="572" y="617" type="line" smooth="yes"/>
			<point x="576" y="624"/>
			<point x="580" y="634"/>
			<point x="580" y="643" type="curve" smooth="yes"/>
			<point x="580" y="672"/>
			<point x="556" y="696"/>
			<point x="527" y="696" type="curve" smooth="yes"/>
			<point x="507" y="696"/>
			<point x="490" y="685"/>
			<point x="481" y="668" type="curve" smooth="yes"/>
			<point x="321" y="371" type="line"/>
			<point x="155" y="668" type="line" smooth="yes"/>
			<point x="146" y="685"/>
			<point x="129" y="696"/>
			<point x="108" y="696" type="curve" smooth="yes"/>
			<point x="79" y="696"/>
			<point x="54" y="671"/>
			<point x="54" y="642" type="curve" smooth="yes"/>
			<point x="54" y="632"/>
			<point x="58" y="623"/>
			<point x="62" y="615" type="curve" smooth="yes"/>
			<point x="262" y="270" type="line"/>
			<point x="262" y="49" type="line" smooth="yes"/>
			<point x="262" y="19"/>
			<point x="286" y="-6"/>
			<point x="317" y="-6" type="curve" smooth="yes"/>
			<point x="347" y="-6"/>
			<point x="371" y="19"/>
		</contour>
	</outline>
</glyph>
<glyph name="backslash" format="2">
	<advance width="314"/>
	<unicode hex="005C"/>
	<note>
		backslash
	</note>
	<outline>
		<contour>
			<point x="307" y="6"/>
			<point x="306" y="10" type="curve" smooth="yes"/>
			<point x="74" y="702" type="line" smooth="yes"/>
			<point x="70" y="715"/>
			<point x="57" y="726"/>
			<point x="41" y="726" type="curve" smooth="yes"/>
			<point x="22" y="726"/>
			<point x="7" y="710"/>
			<point x="7" y="691" type="curve" smooth="yes"/>
			<point x="7" y="687"/>
			<point x="7" y="684"/>
			<point x="8" y="680" type="curve" smooth="yes"/>
			<point x="240" y="-12" type="line" smooth="yes"/>
			<point x="244" y="-25"/>
			<point x="257" y="-35"/>
			<point x="273" y="-35" type="curve" smooth="yes"/>
			<point x="292" y="-35"/>
			<point x="307" y="-20"/>
			<point x="307" y="-1" type="curve" smooth="yes"/>
			<point x="307" y="3"/>
		</contour>
	</outline>
</glyph>
<glyph name="c" format="2">
	<advance width="544"/>
	<unicode hex="0063"/>
	<note>
		c
	</note>
	<outline>
		<contour>
			<point x="286" y="545" type="curve" smooth="yes"/>
			<point x="147" y="545"/>
			<point x="29" y="444"/>
			<point x="29" y="263" type="curve" smooth="yes"/>
			<point x="29" y="74"/>
			<point x="134" y="-14"/>
			<point x="273" y="-14" type="curve" smooth="yes"/>
			<point x="371" y="-14"/>
			<point x="449" y="25"/>
			<point x="490" y="105" type="curve" smooth="yes"/>
			<point x="494" y="113"/>
			<point x="495" y="120"/>
			<point x="495" y="129" type="curve" smooth="yes"/>
			<point x="495" y="158"/>
			<point x="472" y="182"/>
			<point x="442" y="182" type="curve" smooth="yes"/>
			<point x="420" y="182"/>
			<point x="400" y="168"/>
			<point x="393" y="148" type="curve" smooth="yes"/>
			<point x="372" y="93"/>
			<point x="332" y="66"/>
			<point x="279" y="66" type="curve" smooth="yes"/>
			<point x="205" y="66"/>
			<point x="145" y="127"/>
			<point x="145" y="271" type="curve" smooth="yes"/>
			<point x="145" y="404"/>
			<point x="206" y="465"/>
			<point x="283" y="465" type="curve" smooth="yes"/>
			<point x="338" y="465"/>
			<point x="377" y="439"/>
			<point x="398" y="378" type="curve" smooth="yes"/>
			<point x="405" y="356"/>
			<point x="425" y="341"/>
			<point x="449" y="341" type="curve" smooth="yes"/>
			<point x="479" y="341"/>
			<point x="503" y="365"/>
			<point x="503" y="395" type="curve" smooth="yes"/>
			<point x="503" y="403"/>
			<point x="502" y="411"/>
			<point x="499" y="417" type="curve" smooth="yes"/>
			<point x="465" y="496"/>
			<point x="390" y="545"/>
		</contour>
	</outline>
</glyph>
<glyph name="f" format="2">
	<advance width="312"/>
	<unicode hex="0066"/>
	<note>
		f
	</note>
	<outline>
		<contour>
			<point x="190" y="618" type="curve" smooth="yes"/>
			<point x="195" y="653"/>
			<point x="223" y="670"/>
			<point x="269" y="670" type="curve" smooth="yes"/>
			<point x="292" y="670"/>
			<point x="311" y="688"/>
			<point x="311" y="711" type="curve" smooth="yes"/>
			<point x="311" y="733"/>
			<point x="293" y="751"/>
			<point x="272" y="753" type="curve" smooth="yes"/>
			<point x="263" y="754"/>
			<point x="254" y="754"/>
			<point x="244" y="754" type="curve" smooth="yes"/>
			<point x="144" y="754"/>
			<point x="89" y="706"/>
			<point x="80" y="624" type="curve" smooth="yes"/>
			<point x="78" y="606"/>
			<point x="78" y="580"/>
			<point x="78" y="561" type="curve" smooth="yes"/>
			<point x="78" y="527" type="line"/>
			<point x="54" y="527" type="line" smooth="yes"/>
			<point x="33" y="527"/>
			<point x="16" y="510"/>
			<point x="16" y="489" type="curve" smooth="yes"/>
			<point x="16" y="467"/>
			<point x="33" y="450"/>
			<point x="54" y="450" type="curve" smooth="yes"/>
			<point x="78" y="450" type="line"/>
			<point x="78" y="49" type="line" smooth="yes"/>
			<point x="78" y="19"/>
			<point x="102" y="-6"/>
			<point x="133" y="-6" type="curve" smooth="yes"/>
			<point x="163" y="-6"/>
			<point x="187" y="19"/>
			<point x="187" y="49" type="curve" smooth="yes"/>
			<point x="187" y="450" type="line"/>
			<point x="263" y="450" type="line" smooth="yes"/>
			<point x="284" y="450"/>
			<point x="302" y="467"/>
			<point x="302" y="489" type="curve" smooth="yes"/>
			<point x="302" y="510"/>
			<point x="284" y="527"/>
			<point x="263" y="527" type="curve" smooth="yes"/>
			<point x="187" y="527" type="line"/>
			<point x="187" y="567" type="line" smooth="yes"/>
			<point x="187" y="582"/>
			<point x="188" y="604"/>
		</contour>
	</outline>
</glyph>
<glyph name="h" format="2">
	<advance width="606"/>
	<unicode hex="0068"/>
	<note>
		h
	</note>
	<outline>
		<contour>
			<point x="538" y="393" type="curve" smooth="yes"/>
			<point x="528" y="486"/>
			<point x="463" y="545"/>
			<point x="349" y="545" type="curve" smooth="yes"/>
			<point x="309" y="545"/>
			<point x="278" y="540"/>
			<point x="246" y="524" type="curve" smooth="yes"/>
			<point x="222" y="511"/>
			<point x="210" y="496"/>
			<point x="196" y="472" type="curve" smooth="yes"/>
			<point x="179" y="443" type="line"/>
			<point x="179" y="691" type="line" smooth="yes"/>
			<point x="179" y="721"/>
			<point x="154" y="746"/>
			<point x="124" y="746" type="curve" smooth="yes"/>
			<point x="94" y="746"/>
			<point x="69" y="721"/>
			<point x="69" y="691" type="curve" smooth="yes"/>
			<point x="69" y="50" type="line" smooth="yes"/>
			<point x="69" y="20"/>
			<point x="94" y="-6"/>
			<point x="124" y="-6" type="curve" smooth="yes"/>
			<point x="154" y="-6"/>
			<point x="179" y="20"/>
			<point x="179" y="50" type="curve" smooth="yes"/>
			<point x="179" y="238" type="line" smooth="yes"/>
			<point x="179" y="404"/>
			<point x="241" y="462"/>
			<point x="317" y="464" type="curve" smooth="yes"/>
			<point x="392" y="465"/>
			<point x="424" y="422"/>
			<point x="429" y="362" type="curve" smooth="yes"/>
			<point x="431" y="335"/>
			<point x="431" y="312"/>
			<point x="431" y="287" type="curve" smooth="yes"/>
			<point x="431" y="50" type="line" smooth="yes"/>
			<point x="431" y="20"/>
			<point x="456" y="-6"/>
			<point x="486" y="-6" type="curve" smooth="yes"/>
			<point x="516" y="-6"/>
			<point x="541" y="20"/>
			<point x="541" y="50" type="curve" smooth="yes"/>
			<point x="541" y="299" type="line" smooth="yes"/>
			<point x="541" y="342"/>
			<point x="540" y="366"/>
		</contour>
	</outline>
</glyph>
<glyph name="k" format="2">
	<advance width="550"/>
	<unicode hex="006B"/>
	<note>
		k
	</note>
	<outline>
		<contour>
			<point x="179" y="166" type="line"/>
			<point x="226" y="218" type="line"/>
			<point x="394" y="14" type="line" smooth="yes"/>
			<point x="404" y="2"/>
			<point x="419" y="-5"/>
			<point x="436" y="-5" type="curve" smooth="yes"/>
			<point x="466" y="-5"/>
			<point x="490" y="19"/>
			<point x="490" y="48" type="curve" smooth="yes"/>
			<point x="490" y="62"/>
			<point x="484" y="74"/>
			<point x="476" y="84" type="curve" smooth="yes"/>
			<point x="304" y="282" type="line"/>
			<point x="477" y="460" type="line" smooth="yes"/>
			<point x="513" y="497"/>
			<point x="501" y="531"/>
			<point x="454" y="531" type="curve" smooth="yes"/>
			<point x="424" y="531"/>
			<point x="402" y="521"/>
			<point x="382" y="499" type="curve" smooth="yes"/>
			<point x="179" y="275" type="line"/>
			<point x="179" y="686" type="line" smooth="yes"/>
			<point x="179" y="716"/>
			<point x="154" y="741"/>
			<point x="124" y="741" type="curve" smooth="yes"/>
			<point x="94" y="741"/>
			<point x="69" y="716"/>
			<point x="69" y="686" type="curve" smooth="yes"/>
			<point x="69" y="50" type="line" smooth="yes"/>
			<point x="69" y="20"/>
			<point x="94" y="-6"/>
			<point x="124" y="-6" type="curve" smooth="yes"/>
			<point x="154" y="-6"/>
			<point x="179" y="20"/>
			<point x="179" y="50" type="curve" smooth="yes"/>
		</contour>
	</outline>
</glyph>
<glyph name="w" format="2">
	<advance width="806"/>
	<unicode hex="0077"/>
	<note>
		w
	</note>
	<outline>
		<contour>
			<point x="650" y="51" type="curve" smooth="yes"/>
			<point x="782" y="465" type="line" smooth="yes"/>
			<point x="784" y="471"/>
			<point x="785" y="476"/>
			<point x="785" y="482" type="curve" smooth="yes"/>
			<point x="785" y="512"/>
			<point x="760" y="537"/>
			<point x="730" y="537" type="curve" smooth="yes"/>
			<point x="704" y="537"/>
			<point x="683" y="518"/>
			<point x="677" y="495" type="curve" smooth="yes"/>
			<point x="577" y="97" type="line"/>
			<point x="485" y="472" type="line" smooth="yes"/>
			<point x="476" y="509"/>
			<point x="443" y="535"/>
			<point x="404" y="535" type="curve" smooth="yes"/>
			<point x="365" y="535"/>
			<point x="332" y="507"/>
			<point x="323" y="471" type="curve" smooth="yes"/>
			<point x="234" y="98" type="line"/>
			<point x="135" y="493" type="line" smooth="yes"/>
			<point x="129" y="519"/>
			<point x="106" y="536"/>
			<point x="78" y="536" type="curve" smooth="yes"/>
			<point x="47" y="536"/>
			<point x="21" y="511"/>
			<point x="21" y="479" type="curve" smooth="yes"/>
			<point x="21" y="472"/>
			<point x="21" y="466"/>
			<point x="23" y="461" type="curve" smooth="yes"/>
			<point x="154" y="52" type="line" smooth="yes"/>
			<point x="164" y="19"/>
			<point x="195" y="-5"/>
			<point x="232" y="-5" type="curve" smooth="yes"/>
			<point x="270" y="-5"/>
			<point x="302" y="22"/>
			<point x="311" y="57" type="curve" smooth="yes"/>
			<point x="403" y="429" type="line"/>
			<point x="494" y="56" type="line" smooth="yes"/>
			<point x="503" y="20"/>
			<point x="535" y="-6"/>
			<point x="573" y="-6" type="curve" smooth="yes"/>
			<point x="609" y="-6"/>
			<point x="640" y="18"/>
		</contour>
	</outline>
</glyph>
<glyph name="x" format="2">
	<advance width="509"/>
	<unicode hex="0078"/>
	<note>
		x
	</note>
	<outline>
		<contour>
			<point x="448" y="76" type="curve" smooth="yes"/>
			<point x="313" y="270" type="line"/>
			<point x="445" y="456" type="line" smooth="yes"/>
			<point x="451" y="465"/>
			<point x="454" y="475"/>
			<point x="454" y="486" type="curve" smooth="yes"/>
			<point x="454" y="514"/>
			<point x="432" y="537"/>
			<point x="404" y="537" type="curve" smooth="yes"/>
			<point x="385" y="537"/>
			<point x="370" y="528"/>
			<point x="361" y="513" type="curve" smooth="yes"/>
			<point x="252" y="339" type="line"/>
			<point x="143" y="512" type="line" smooth="yes"/>
			<point x="134" y="527"/>
			<point x="117" y="537"/>
			<point x="99" y="537" type="curve" smooth="yes"/>
			<point x="70" y="537"/>
			<point x="46" y="513"/>
			<point x="46" y="484" type="curve" smooth="yes"/>
			<point x="46" y="473"/>
			<point x="49" y="463"/>
			<point x="55" y="454" type="curve" smooth="yes"/>
			<point x="184" y="269" type="line"/>
			<point x="48" y="75" type="line" smooth="yes"/>
			<point x="42" y="66"/>
			<point x="38" y="56"/>
			<point x="38" y="46" type="curve" smooth="yes"/>
			<point x="38" y="17"/>
			<point x="61" y="-5"/>
			<point x="89" y="-5" type="curve" smooth="yes"/>
			<point x="108" y="-5"/>
			<point x="124" y="3"/>
			<point x="133" y="18" type="curve" smooth="yes"/>
			<point x="247" y="200" type="line"/>
			<point x="361" y="19" type="line" smooth="yes"/>
			<point x="370" y="5"/>
			<point x="387" y="-5"/>
			<point x="405" y="-5" type="curve" smooth="yes"/>
			<point x="434" y="-5"/>
			<point x="457" y="18"/>
			<point x="457" y="46" type="curve" smooth="yes"/>
			<point x="457" y="57"/>
			<point x="454" y="67"/>
		</contour>
	</outline>
</glyph>
<glyph name="cent" format="2">
	<advance width="586"/>
	<unicode hex="00A2"/>
	<note>
		cent
	</note>
	<outline>
		<contour>
			<point x="336" y="70" type="curve"/>
			<point x="336" y="461" type="line"/>
			<point x="377" y="453"/>
			<point x="409" y="426"/>
			<point x="427" y="375" type="curve" smooth="yes"/>
			<point x="434" y="354"/>
			<point x="453" y="340"/>
			<point x="476" y="340" type="curve" smooth="yes"/>
			<point x="505" y="340"/>
			<point x="528" y="364"/>
			<point x="528" y="392" type="curve" smooth="yes"/>
			<point x="528" y="399"/>
			<point x="526" y="406"/>
			<point x="524" y="412" type="curve" smooth="yes"/>
			<point x="494" y="487"/>
			<point x="428" y="535"/>
			<point x="336" y="543" type="curve"/>
			<point x="336" y="592" type="line" smooth="yes"/>
			<point x="336" y="610"/>
			<point x="321" y="626"/>
			<point x="302" y="626" type="curve" smooth="yes"/>
			<point x="283" y="626"/>
			<point x="268" y="610"/>
			<point x="268" y="592" type="curve" smooth="yes"/>
			<point x="268" y="541" type="line"/>
			<point x="148" y="522"/>
			<point x="53" y="424"/>
			<point x="53" y="263" type="curve" smooth="yes"/>
			<point x="53" y="88"/>
			<point x="144" y="-1"/>
			<point x="268" y="-13" type="curve"/>
			<point x="268" y="-61" type="line" smooth="yes"/>
			<point x="268" y="-79"/>
			<point x="283" y="-96"/>
			<point x="302" y="-96" type="curve" smooth="yes"/>
			<point x="321" y="-96"/>
			<point x="336" y="-79"/>
			<point x="336" y="-61" type="curve" smooth="yes"/>
			<point x="336" y="-12" type="line"/>
			<point x="417" y="-3"/>
			<point x="481" y="37"/>
			<point x="516" y="109" type="curve" smooth="yes"/>
			<point x="519" y="115"/>
			<point x="521" y="123"/>
			<point x="521" y="131" type="curve" smooth="yes"/>
			<point x="521" y="159"/>
			<point x="498" y="182"/>
			<point x="470" y="182" type="curve" smooth="yes"/>
			<point x="448" y="182"/>
			<point x="430" y="168"/>
			<point x="423" y="149" type="curve" smooth="yes"/>
			<point x="406" y="105"/>
			<point x="375" y="79"/>
		</contour>
		<contour>
			<point x="164" y="270" type="curve" smooth="yes"/>
			<point x="164" y="380"/>
			<point x="209" y="441"/>
			<point x="268" y="458" type="curve"/>
			<point x="268" y="71" type="line"/>
			<point x="210" y="88"/>
			<point x="164" y="149"/>
		</contour>
	</outline>
</glyph>
<glyph name="sterling" format="2">
	<advance width="601"/>
	<unicode hex="00A3"/>
	<note>
		sterling
	</note>
	<outline>
		<contour>
			<point x="525" y="88"/>
			<point x="501" y="88" type="curve" smooth="yes"/>
			<point x="203" y="88" type="line"/>
			<point x="258" y="118"/>
			<point x="287" y="160"/>
			<point x="287" y="224" type="curve" smooth="yes"/>
			<point x="287" y="253"/>
			<point x="283" y="279"/>
			<point x="272" y="310" type="curve"/>
			<point x="431" y="310" type="line" smooth="yes"/>
			<point x="448" y="310"/>
			<point x="463" y="324"/>
			<point x="463" y="342" type="curve" smooth="yes"/>
			<point x="463" y="360"/>
			<point x="448" y="374"/>
			<point x="431" y="374" type="curve" smooth="yes"/>
			<point x="247" y="374" type="line"/>
			<point x="221" y="433"/>
			<point x="212" y="462"/>
			<point x="212" y="511" type="curve" smooth="yes"/>
			<point x="212" y="566"/>
			<point x="245" y="620"/>
			<point x="314" y="620" type="curve" smooth="yes"/>
			<point x="366" y="620"/>
			<point x="399" y="594"/>
			<point x="414" y="539" type="curve" smooth="yes"/>
			<point x="420" y="515"/>
			<point x="442" y="498"/>
			<point x="467" y="498" type="curve" smooth="yes"/>
			<point x="498" y="498"/>
			<point x="523" y="523"/>
			<point x="523" y="554" type="curve" smooth="yes"/>
			<point x="523" y="561"/>
			<point x="522" y="568"/>
			<point x="520" y="573" type="curve" smooth="yes"/>
			<point x="492" y="651"/>
			<point x="426" y="704"/>
			<point x="316" y="704" type="curve" smooth="yes"/>
			<point x="189" y="704"/>
			<point x="93" y="622"/>
			<point x="93" y="496" type="curve" smooth="yes"/>
			<point x="93" y="450"/>
			<point x="104" y="416"/>
			<point x="122" y="374" type="curve"/>
			<point x="103" y="374" type="line" smooth="yes"/>
			<point x="86" y="374"/>
			<point x="71" y="360"/>
			<point x="71" y="342" type="curve" smooth="yes"/>
			<point x="71" y="324"/>
			<point x="86" y="310"/>
			<point x="103" y="310" type="curve" smooth="yes"/>
			<point x="151" y="310" type="line"/>
			<point x="167" y="272"/>
			<point x="173" y="245"/>
			<point x="173" y="208" type="curve" smooth="yes"/>
			<point x="173" y="158"/>
			<point x="153" y="110"/>
			<point x="90" y="86" type="curve" smooth="yes"/>
			<point x="73" y="80"/>
			<point x="61" y="64"/>
			<point x="61" y="44" type="curve" smooth="yes"/>
			<point x="61" y="20"/>
			<point x="82" y="0"/>
			<point x="106" y="0" type="curve" smooth="yes"/>
			<point x="501" y="0" type="line" smooth="yes"/>
			<point x="525" y="0"/>
			<point x="545" y="20"/>
			<point x="545" y="44" type="curve" smooth="yes"/>
			<point x="545" y="68"/>
		</contour>
	</outline>
</glyph>
<glyph name="yen" format="2">
	<advance width="601"/>
	<unicode hex="00A5"/>
	<note>
		yen
	</note>
	<outline>
		<contour>
			<point x="487" y="363" type="curve" smooth="yes"/>
			<point x="396" y="363" type="line"/>
			<point x="537" y="618" type="line" smooth="yes"/>
			<point x="541" y="626"/>
			<point x="544" y="634"/>
			<point x="544" y="643" type="curve" smooth="yes"/>
			<point x="544" y="672"/>
			<point x="520" y="695"/>
			<point x="492" y="695" type="curve" smooth="yes"/>
			<point x="471" y="695"/>
			<point x="453" y="684"/>
			<point x="445" y="666" type="curve" smooth="yes"/>
			<point x="304" y="367" type="line"/>
			<point x="161" y="665" type="line" smooth="yes"/>
			<point x="152" y="684"/>
			<point x="134" y="695"/>
			<point x="112" y="695" type="curve" smooth="yes"/>
			<point x="82" y="695"/>
			<point x="58" y="671"/>
			<point x="58" y="641" type="curve" smooth="yes"/>
			<point x="58" y="632"/>
			<point x="61" y="623"/>
			<point x="65" y="615" type="curve" smooth="yes"/>
			<point x="204" y="363" type="line"/>
			<point x="115" y="363" type="line" smooth="yes"/>
			<point x="97" y="363"/>
			<point x="82" y="348"/>
			<point x="82" y="330" type="curve" smooth="yes"/>
			<point x="82" y="312"/>
			<point x="97" y="297"/>
			<point x="115" y="297" type="curve" smooth="yes"/>
			<point x="241" y="297" type="line"/>
			<point x="246" y="287" type="line"/>
			<point x="246" y="235" type="line"/>
			<point x="115" y="235" type="line" smooth="yes"/>
			<point x="97" y="235"/>
			<point x="82" y="220"/>
			<point x="82" y="202" type="curve" smooth="yes"/>
			<point x="82" y="184"/>
			<point x="97" y="169"/>
			<point x="115" y="169" type="curve" smooth="yes"/>
			<point x="246" y="169" type="line"/>
			<point x="246" y="49" type="line" smooth="yes"/>
			<point x="246" y="19"/>
			<point x="270" y="-6"/>
			<point x="301" y="-6" type="curve" smooth="yes"/>
			<point x="331" y="-6"/>
			<point x="355" y="19"/>
			<point x="355" y="49" type="curve" smooth="yes"/>
			<point x="355" y="169" type="line"/>
			<point x="487" y="169" type="line" smooth="yes"/>
			<point x="505" y="169"/>
			<point x="520" y="184"/>
			<point x="520" y="202" type="curve" smooth="yes"/>
			<point x="520" y="220"/>
			<point x="505" y="235"/>
			<point x="487" y="235" type="curve" smooth="yes"/>
			<point x="355" y="235" type="line"/>
			<point x="355" y="289" type="line"/>
			<point x="359" y="297" type="line"/>
			<point x="487" y="297" type="line" smooth="yes"/>
			<point x="505" y="297"/>
			<point x="520" y="312"/>
			<point x="520" y="330" type="curve" smooth="yes"/>
			<point x="520" y="348"/>
			<point x="505" y="363"/>
		</contour>
	</outline>
</glyph>
<glyph name="brokenbar" format="2">
	<advance width="262"/>
	<unicode hex="00A6"/>
	<note>
		brokenbar
	</note>
	<outline>
		<contour>
			<point x="165" y="361"/>
			<point x="165" y="379" type="curve" smooth="yes"/>
			<point x="165" y="662" type="line" smooth="yes"/>
			<point x="165" y="680"/>
			<point x="150" y="696"/>
			<point x="131" y="696" type="curve" smooth="yes"/>
			<point x="112" y="696"/>
			<point x="97" y="680"/>
			<point x="97" y="662" type="curve" smooth="yes"/>
			<point x="97" y="379" type="line" smooth="yes"/>
			<point x="97" y="361"/>
			<point x="112" y="345"/>
			<point x="131" y="345" type="curve" smooth="yes"/>
			<point x="150" y="345"/>
		</contour>
		<contour>
			<point x="165" y="-149"/>
			<point x="165" y="-131" type="curve" smooth="yes"/>
			<point x="165" y="152" type="line" smooth="yes"/>
			<point x="165" y="170"/>
			<point x="150" y="186"/>
			<point x="131" y="186" type="curve" smooth="yes"/>
			<point x="112" y="186"/>
			<point x="97" y="170"/>
			<point x="97" y="152" type="curve" smooth="yes"/>
			<point x="97" y="-131" type="line" smooth="yes"/>
			<point x="97" y="-149"/>
			<point x="112" y="-166"/>
			<point x="131" y="-166" type="curve" smooth="yes"/>
			<point x="150" y="-166"/>
		</contour>
	</outline>
</glyph>
<glyph name="section" format="2">
	<advance width="578"/>
	<unicode hex="00A7"/>
	<note>
		section
	</note>
	<outline>
		<contour>
			<point x="550" y="243" type="curve" smooth="yes"/>
			<point x="550" y="342"/>
			<point x="485" y="397"/>
			<point x="340" y="437" type="curve" smooth="yes"/>
			<point x="244" y="463"/>
			<point x="208" y="496"/>
			<point x="208" y="550" type="curve" smooth="yes"/>
			<point x="208" y="599"/>
			<point x="241" y="627"/>
			<point x="285" y="627" type="curve" smooth="yes"/>
			<point x="325" y="627"/>
			<point x="353" y="605"/>
			<point x="369" y="564" type="curve" smooth="yes"/>
			<point x="376" y="544"/>
			<point x="396" y="529"/>
			<point x="419" y="529" type="curve" smooth="yes"/>
			<point x="449" y="529"/>
			<point x="473" y="553"/>
			<point x="473" y="583" type="curve" smooth="yes"/>
			<point x="473" y="591"/>
			<point x="471" y="600"/>
			<point x="468" y="607" type="curve" smooth="yes"/>
			<point x="437" y="668"/>
			<point x="376" y="704"/>
			<point x="287" y="704" type="curve" smooth="yes"/>
			<point x="175" y="704"/>
			<point x="94" y="640"/>
			<point x="94" y="536" type="curve" smooth="yes"/>
			<point x="94" y="500"/>
			<point x="106" y="469"/>
			<point x="126" y="444" type="curve"/>
			<point x="68" y="417"/>
			<point x="30" y="367"/>
			<point x="30" y="295" type="curve" smooth="yes"/>
			<point x="30" y="192"/>
			<point x="111" y="135"/>
			<point x="226" y="105" type="curve" smooth="yes"/>
			<point x="346" y="74"/>
			<point x="377" y="36"/>
			<point x="377" y="-17" type="curve" smooth="yes"/>
			<point x="377" y="-70"/>
			<point x="339" y="-97"/>
			<point x="288" y="-97" type="curve" smooth="yes"/>
			<point x="242" y="-97"/>
			<point x="204" y="-76"/>
			<point x="183" y="-26" type="curve" smooth="yes"/>
			<point x="175" y="-7"/>
			<point x="156" y="8"/>
			<point x="133" y="8" type="curve" smooth="yes"/>
			<point x="103" y="8"/>
			<point x="79" y="-17"/>
			<point x="79" y="-47" type="curve" smooth="yes"/>
			<point x="79" y="-55"/>
			<point x="81" y="-64"/>
			<point x="84" y="-71" type="curve" smooth="yes"/>
			<point x="120" y="-142"/>
			<point x="192" y="-174"/>
			<point x="283" y="-174" type="curve" smooth="yes"/>
			<point x="394" y="-174"/>
			<point x="491" y="-118"/>
			<point x="491" y="-8" type="curve" smooth="yes"/>
			<point x="491" y="36"/>
			<point x="478" y="70"/>
			<point x="455" y="98" type="curve"/>
			<point x="511" y="126"/>
			<point x="550" y="177"/>
		</contour>
		<contour>
			<point x="144" y="299" type="curve" smooth="yes"/>
			<point x="144" y="350"/>
			<point x="169" y="377"/>
			<point x="205" y="384" type="curve"/>
			<point x="233" y="370"/>
			<point x="264" y="359"/>
			<point x="297" y="349" type="curve" smooth="yes"/>
			<point x="395" y="319"/>
			<point x="436" y="288"/>
			<point x="436" y="232" type="curve" smooth="yes"/>
			<point x="436" y="196"/>
			<point x="413" y="166"/>
			<point x="376" y="154" type="curve"/>
			<point x="347" y="168"/>
			<point x="313" y="180"/>
			<point x="274" y="190" type="curve" smooth="yes"/>
			<point x="194" y="211"/>
			<point x="144" y="248"/>
		</contour>
	</outline>
</glyph>
<glyph name="plusminus" format="2">
	<advance width="601"/>
	<unicode hex="00B1"/>
	<note>
		plusminus
	</note>
	<outline>
		<contour>
			<point x="481" y="352" type="curve" smooth="yes"/>
			<point x="335" y="352" type="line"/>
			<point x="335" y="490" type="line" smooth="yes"/>
			<point x="335" y="509"/>
			<point x="320" y="525"/>
			<point x="301" y="525" type="curve" smooth="yes"/>
			<point x="281" y="525"/>
			<point x="266" y="509"/>
			<point x="266" y="490" type="curve" smooth="yes"/>
			<point x="266" y="352" type="line"/>
			<point x="121" y="352" type="line" smooth="yes"/>
			<point x="103" y="352"/>
			<point x="88" y="337"/>
			<point x="88" y="319" type="curve" smooth="yes"/>
			<point x="88" y="301"/>
			<point x="103" y="286"/>
			<point x="121" y="286" type="curve" smooth="yes"/>
			<point x="266" y="286" type="line"/>
			<point x="266" y="144" type="line" smooth="yes"/>
			<point x="266" y="125"/>
			<point x="281" y="110"/>
			<point x="301" y="110" type="curve" smooth="yes"/>
			<point x="320" y="110"/>
			<point x="335" y="125"/>
			<point x="335" y="144" type="curve" smooth="yes"/>
			<point x="335" y="286" type="line"/>
			<point x="481" y="286" type="line" smooth="yes"/>
			<point x="499" y="286"/>
			<point x="514" y="301"/>
			<point x="514" y="319" type="curve" smooth="yes"/>
			<point x="514" y="337"/>
			<point x="499" y="352"/>
		</contour>
		<contour>
			<point x="120" y="0" type="curve" smooth="yes"/>
			<point x="482" y="0" type="line" smooth="yes"/>
			<point x="499" y="0"/>
			<point x="514" y="14"/>
			<point x="514" y="32" type="curve" smooth="yes"/>
			<point x="514" y="50"/>
			<point x="499" y="64"/>
			<point x="482" y="64" type="curve" smooth="yes"/>
			<point x="120" y="64" type="line" smooth="yes"/>
			<point x="103" y="64"/>
			<point x="88" y="50"/>
			<point x="88" y="32" type="curve" smooth="yes"/>
			<point x="88" y="14"/>
			<point x="103" y="0"/>
		</contour>
	</outline>
</glyph>
<glyph name="Adieresis" format="2">
	<advance width="656"/>
	<unicode hex="00C4"/>
	<note>
		Adieresis
	</note>
	<outline>
		<contour>
			<point x="215" y="228" type="line"/>
			<point x="460" y="228" type="line"/>
			<point x="524" y="33" type="line" smooth="yes"/>
			<point x="531" y="10"/>
			<point x="552" y="-6"/>
			<point x="577" y="-6" type="curve" smooth="yes"/>
			<point x="608" y="-6"/>
			<point x="633" y="20"/>
			<point x="633" y="50" type="curve" smooth="yes"/>
			<point x="633" y="57"/>
			<point x="632" y="64"/>
			<point x="630" y="69" type="curve" smooth="yes"/>
			<point x="429" y="643" type="line" smooth="yes"/>
			<point x="418" y="674"/>
			<point x="396" y="690"/>
			<point x="363" y="690" type="curve" smooth="yes"/>
			<point x="320" y="690" type="line" smooth="yes"/>
			<point x="287" y="690"/>
			<point x="265" y="676"/>
			<point x="254" y="644" type="curve" smooth="yes"/>
			<point x="47" y="68" type="line" smooth="yes"/>
			<point x="45" y="63"/>
			<point x="44" y="56"/>
			<point x="44" y="49" type="curve" smooth="yes"/>
			<point x="44" y="19"/>
			<point x="69" y="-6"/>
			<point x="99" y="-6" type="curve" smooth="yes"/>
			<point x="123" y="-6"/>
			<point x="144" y="11"/>
			<point x="151" y="32" type="curve" smooth="yes"/>
		</contour>
		<contour>
			<point x="431" y="315" type="line"/>
			<point x="244" y="315" type="line"/>
			<point x="340" y="599" type="line"/>
		</contour>
		<contour>
			<point x="230" y="733"/>
			<point x="259" y="733" type="curve" smooth="yes"/>
			<point x="273" y="733" type="line" smooth="yes"/>
			<point x="301" y="733"/>
			<point x="324" y="756"/>
			<point x="324" y="784" type="curve" smooth="yes"/>
			<point x="324" y="790"/>
			<point x="323" y="796"/>
			<point x="321" y="802" type="curve" smooth="yes"/>
			<point x="312" y="826"/>
			<point x="291" y="845"/>
			<point x="265" y="845" type="curve" smooth="yes"/>
			<point x="255" y="845"/>
			<point x="246" y="841"/>
			<point x="239" y="837" type="curve" smooth="yes"/>
			<point x="220" y="827"/>
			<point x="206" y="808"/>
			<point x="206" y="786" type="curve" smooth="yes"/>
			<point x="206" y="757"/>
		</contour>
		<contour>
			<point x="385" y="733"/>
			<point x="414" y="733" type="curve" smooth="yes"/>
			<point x="428" y="733" type="line" smooth="yes"/>
			<point x="456" y="733"/>
			<point x="480" y="756"/>
			<point x="480" y="784" type="curve" smooth="yes"/>
			<point x="480" y="791"/>
			<point x="478" y="798"/>
			<point x="476" y="803" type="curve" smooth="yes"/>
			<point x="467" y="826"/>
			<point x="446" y="844"/>
			<point x="420" y="844" type="curve" smooth="yes"/>
			<point x="410" y="844"/>
			<point x="401" y="841"/>
			<point x="394" y="837" type="curve" smooth="yes"/>
			<point x="375" y="827"/>
			<point x="361" y="808"/>
			<point x="361" y="786" type="curve" smooth="yes"/>
			<point x="361" y="757"/>
		</contour>
	</outline>
</glyph>
<glyph name="Eacute" format="2">
	<advance width="600"/>
	<unicode hex="00C9"/>
	<note>
		Eacute
	</note>
	<outline>
		<contour>
			<point x="363" y="733"/>
			<point x="368" y="739" type="curve" smooth="yes"/>
			<point x="423" y="797" type="line" smooth="yes"/>
			<point x="427" y="802"/>
			<point x="431" y="808"/>
			<point x="431" y="816" type="curve" smooth="yes"/>
			<point x="431" y="833"/>
			<point x="415" y="845"/>
			<point x="399" y="843" type="curve" smooth="yes"/>
			<point x="356" y="837"/>
			<point x="321" y="802"/>
			<point x="319" y="759" type="curve" smooth="yes"/>
			<point x="319" y="743"/>
			<point x="331" y="731"/>
			<point x="347" y="731" type="curve" smooth="yes"/>
			<point x="356" y="731"/>
		</contour>
		<contour>
			<point x="558" y="88"/>
			<point x="534" y="88" type="curve" smooth="yes"/>
			<point x="205" y="88" type="line"/>
			<point x="205" y="302" type="line"/>
			<point x="496" y="302" type="line" smooth="yes"/>
			<point x="520" y="302"/>
			<point x="540" y="321"/>
			<point x="540" y="346" type="curve" smooth="yes"/>
			<point x="540" y="370"/>
			<point x="520" y="389"/>
			<point x="496" y="389" type="curve" smooth="yes"/>
			<point x="205" y="389" type="line"/>
			<point x="205" y="603" type="line"/>
			<point x="524" y="603" type="line" smooth="yes"/>
			<point x="548" y="603"/>
			<point x="568" y="622"/>
			<point x="568" y="647" type="curve" smooth="yes"/>
			<point x="568" y="671"/>
			<point x="548" y="690"/>
			<point x="524" y="690" type="curve" smooth="yes"/>
			<point x="153" y="690" type="line" smooth="yes"/>
			<point x="116" y="690"/>
			<point x="95" y="669"/>
			<point x="95" y="632" type="curve" smooth="yes"/>
			<point x="95" y="58" type="line" smooth="yes"/>
			<point x="95" y="21"/>
			<point x="116" y="0"/>
			<point x="153" y="0" type="curve" smooth="yes"/>
			<point x="534" y="0" type="line" smooth="yes"/>
			<point x="558" y="0"/>
			<point x="578" y="20"/>
			<point x="578" y="44" type="curve" smooth="yes"/>
			<point x="578" y="68"/>
		</contour>
	</outline>
</glyph>
<glyph name="Ntilde" format="2">
	<advance width="737"/>
	<unicode hex="00D1"/>
	<note>
		Ntilde
	</note>
	<outline>
		<contour>
			<point x="320" y="835" type="curve" smooth="yes"/>
			<point x="287" y="835"/>
			<point x="266" y="819"/>
			<point x="261" y="773" type="curve" smooth="yes"/>
			<point x="259" y="758"/>
			<point x="271" y="742"/>
			<point x="287" y="742" type="curve" smooth="yes"/>
			<point x="299" y="742"/>
			<point x="310" y="751"/>
			<point x="313" y="761" type="curve" smooth="yes"/>
			<point x="316" y="769"/>
			<point x="321" y="771"/>
			<point x="327" y="771" type="curve" smooth="yes"/>
			<point x="336" y="771"/>
			<point x="347" y="767"/>
			<point x="371" y="759" type="curve" smooth="yes"/>
			<point x="401" y="748"/>
			<point x="417" y="744"/>
			<point x="438" y="744" type="curve" smooth="yes"/>
			<point x="472" y="744"/>
			<point x="492" y="759"/>
			<point x="498" y="806" type="curve" smooth="yes"/>
			<point x="500" y="823"/>
			<point x="488" y="837"/>
			<point x="471" y="837" type="curve" smooth="yes"/>
			<point x="459" y="837"/>
			<point x="448" y="829"/>
			<point x="445" y="818" type="curve" smooth="yes"/>
			<point x="443" y="810"/>
			<point x="438" y="808"/>
			<point x="431" y="808" type="curve" smooth="yes"/>
			<point x="423" y="808"/>
			<point x="411" y="812"/>
			<point x="387" y="820" type="curve" smooth="yes"/>
			<point x="358" y="831"/>
			<point x="342" y="835"/>
		</contour>
		<contour>
			<point x="554" y="0" type="curve" smooth="yes"/>
			<point x="607" y="0" type="line" smooth="yes"/>
			<point x="644" y="0"/>
			<point x="665" y="21"/>
			<point x="665" y="58" type="curve" smooth="yes"/>
			<point x="664" y="642" type="line" smooth="yes"/>
			<point x="664" y="671"/>
			<point x="640" y="695"/>
			<point x="610" y="695" type="curve" smooth="yes"/>
			<point x="580" y="695"/>
			<point x="556" y="670"/>
			<point x="556" y="641" type="curve" smooth="yes"/>
			<point x="556" y="358" type="line" smooth="yes"/>
			<point x="556" y="287"/>
			<point x="557" y="195"/>
			<point x="559" y="117" type="curve"/>
			<point x="272" y="649" type="line" smooth="yes"/>
			<point x="257" y="678"/>
			<point x="235" y="690"/>
			<point x="203" y="690" type="curve" smooth="yes"/>
			<point x="153" y="690" type="line" smooth="yes"/>
			<point x="116" y="690"/>
			<point x="95" y="669"/>
			<point x="95" y="632" type="curve" smooth="yes"/>
			<point x="95" y="50" type="line" smooth="yes"/>
			<point x="95" y="20"/>
			<point x="120" y="-6"/>
			<point x="150" y="-6" type="curve" smooth="yes"/>
			<point x="180" y="-6"/>
			<point x="205" y="20"/>
			<point x="205" y="50" type="curve" smooth="yes"/>
			<point x="205" y="330" type="line" smooth="yes"/>
			<point x="205" y="401"/>
			<point x="204" y="490"/>
			<point x="201" y="569" type="curve"/>
			<point x="485" y="41" type="line" smooth="yes"/>
			<point x="500" y="12"/>
			<point x="522" y="0"/>
		</contour>
	</outline>
</glyph>
<glyph name="Oacute" format="2">
	<advance width="750"/>
	<unicode hex="00D3"/>
	<note>
		Oacute
	</note>
	<outline>
		<contour>
			<point x="408" y="733"/>
			<point x="413" y="739" type="curve" smooth="yes"/>
			<point x="468" y="797" type="line" smooth="yes"/>
			<point x="472" y="802"/>
			<point x="476" y="808"/>
			<point x="476" y="816" type="curve" smooth="yes"/>
			<point x="476" y="833"/>
			<point x="460" y="845"/>
			<point x="444" y="843" type="curve" smooth="yes"/>
			<point x="401" y="837"/>
			<point x="366" y="802"/>
			<point x="364" y="759" type="curve" smooth="yes"/>
			<point x="364" y="743"/>
			<point x="376" y="731"/>
			<point x="392" y="731" type="curve" smooth="yes"/>
			<point x="401" y="731"/>
		</contour>
		<contour>
			<point x="382" y="704" type="curve" smooth="yes"/>
			<point x="170" y="704"/>
			<point x="49" y="559"/>
			<point x="49" y="345" type="curve" smooth="yes"/>
			<point x="49" y="132"/>
			<point x="170" y="-14"/>
			<point x="382" y="-14" type="curve" smooth="yes"/>
			<point x="593" y="-14"/>
			<point x="714" y="132"/>
			<point x="714" y="345" type="curve" smooth="yes"/>
			<point x="714" y="559"/>
			<point x="593" y="704"/>
		</contour>
		<contour>
			<point x="382" y="70" type="curve" smooth="yes"/>
			<point x="247" y="70"/>
			<point x="167" y="174"/>
			<point x="167" y="345" type="curve" smooth="yes"/>
			<point x="167" y="517"/>
			<point x="247" y="620"/>
			<point x="382" y="620" type="curve" smooth="yes"/>
			<point x="516" y="620"/>
			<point x="596" y="517"/>
			<point x="596" y="345" type="curve" smooth="yes"/>
			<point x="596" y="174"/>
			<point x="516" y="70"/>
		</contour>
	</outline>
</glyph>
<glyph name="multiply" format="2">
	<advance width="601"/>
	<unicode hex="00D7"/>
	<note>
		multiply
	</note>
	<outline>
		<contour>
			<point x="470" y="197" type="curve" smooth="yes"/>
			<point x="349" y="318" type="line"/>
			<point x="470" y="439" type="line" smooth="yes"/>
			<point x="476" y="445"/>
			<point x="480" y="454"/>
			<point x="480" y="464" type="curve" smooth="yes"/>
			<point x="480" y="483"/>
			<point x="465" y="498"/>
			<point x="446" y="498" type="curve" smooth="yes"/>
			<point x="437" y="498"/>
			<point x="428" y="494"/>
			<point x="422" y="488" type="curve" smooth="yes"/>
			<point x="300" y="366" type="line"/>
			<point x="178" y="488" type="line" smooth="yes"/>
			<point x="172" y="494"/>
			<point x="163" y="498"/>
			<point x="154" y="498" type="curve" smooth="yes"/>
			<point x="135" y="498"/>
			<point x="120" y="483"/>
			<point x="120" y="464" type="curve" smooth="yes"/>
			<point x="120" y="455"/>
			<point x="124" y="446"/>
			<point x="130" y="440" type="curve" smooth="yes"/>
			<point x="252" y="318" type="line"/>
			<point x="130" y="196" type="line" smooth="yes"/>
			<point x="124" y="190"/>
			<point x="120" y="181"/>
			<point x="120" y="172" type="curve" smooth="yes"/>
			<point x="120" y="153"/>
			<point x="135" y="138"/>
			<point x="154" y="138" type="curve" smooth="yes"/>
			<point x="163" y="138"/>
			<point x="172" y="142"/>
			<point x="178" y="148" type="curve" smooth="yes"/>
			<point x="300" y="270" type="line"/>
			<point x="422" y="148" type="line" smooth="yes"/>
			<point x="428" y="142"/>
			<point x="437" y="138"/>
			<point x="446" y="138" type="curve" smooth="yes"/>
			<point x="465" y="138"/>
			<point x="480" y="153"/>
			<point x="480" y="172" type="curve" smooth="yes"/>
			<point x="480" y="182"/>
			<point x="476" y="191"/>
		</contour>
	</outline>
</glyph>
<glyph name="Uacute" format="2">
	<advance width="691"/>
	<unicode hex="00DA"/>
	<note>
		Uacute
	</note>
	<outline>
		<contour>
			<point x="384" y="733"/>
			<point x="389" y="739" type="curve" smooth="yes"/>
			<point x="444" y="797" type="line" smooth="yes"/>
			<point x="448" y="802"/>
			<point x="452" y="808"/>
			<point x="452" y="816" type="curve" smooth="yes"/>
			<point x="452" y="833"/>
			<point x="436" y="845"/>
			<point x="420" y="843" type="curve" smooth="yes"/>
			<point x="377" y="837"/>
			<point x="342" y="802"/>
			<point x="340" y="759" type="curve" smooth="yes"/>
			<point x="340" y="743"/>
			<point x="352" y="731"/>
			<point x="368" y="731" type="curve" smooth="yes"/>
			<point x="377" y="731"/>
		</contour>
		<contour>
			<point x="629" y="267" type="curve" smooth="yes"/>
			<point x="629" y="641" type="line" smooth="yes"/>
			<point x="629" y="671"/>
			<point x="605" y="696"/>
			<point x="575" y="696" type="curve" smooth="yes"/>
			<point x="544" y="696"/>
			<point x="520" y="671"/>
			<point x="520" y="641" type="curve" smooth="yes"/>
			<point x="520" y="265" type="line" smooth="yes"/>
			<point x="520" y="244"/>
			<point x="520" y="225"/>
			<point x="518" y="209" type="curve" smooth="yes"/>
			<point x="511" y="126"/>
			<point x="458" y="70"/>
			<point x="358" y="70" type="curve" smooth="yes"/>
			<point x="259" y="70"/>
			<point x="206" y="126"/>
			<point x="199" y="209" type="curve" smooth="yes"/>
			<point x="197" y="225"/>
			<point x="197" y="244"/>
			<point x="197" y="265" type="curve" smooth="yes"/>
			<point x="197" y="641" type="line" smooth="yes"/>
			<point x="197" y="671"/>
			<point x="173" y="696"/>
			<point x="143" y="696" type="curve" smooth="yes"/>
			<point x="112" y="696"/>
			<point x="88" y="671"/>
			<point x="88" y="641" type="curve" smooth="yes"/>
			<point x="88" y="267" type="line" smooth="yes"/>
			<point x="88" y="242"/>
			<point x="88" y="222"/>
			<point x="90" y="196" type="curve" smooth="yes"/>
			<point x="99" y="81"/>
			<point x="178" y="-14"/>
			<point x="358" y="-14" type="curve" smooth="yes"/>
			<point x="538" y="-14"/>
			<point x="617" y="81"/>
			<point x="627" y="196" type="curve" smooth="yes"/>
			<point x="629" y="222"/>
			<point x="629" y="242"/>
		</contour>
	</outline>
</glyph>
<glyph name="Udieresis" format="2">
	<advance width="691"/>
	<unicode hex="00DC"/>
	<note>
		Udieresis
	</note>
	<outline>
		<contour>
			<point x="629" y="267" type="curve" smooth="yes"/>
			<point x="629" y="641" type="line" smooth="yes"/>
			<point x="629" y="671"/>
			<point x="605" y="696"/>
			<point x="575" y="696" type="curve" smooth="yes"/>
			<point x="544" y="696"/>
			<point x="520" y="671"/>
			<point x="520" y="641" type="curve" smooth="yes"/>
			<point x="520" y="265" type="line" smooth="yes"/>
			<point x="520" y="244"/>
			<point x="520" y="225"/>
			<point x="518" y="209" type="curve" smooth="yes"/>
			<point x="511" y="126"/>
			<point x="458" y="70"/>
			<point x="358" y="70" type="curve" smooth="yes"/>
			<point x="259" y="70"/>
			<point x="206" y="126"/>
			<point x="199" y="209" type="curve" smooth="yes"/>
			<point x="197" y="225"/>
			<point x="197" y="244"/>
			<point x="197" y="265" type="curve" smooth="yes"/>
			<point x="197" y="641" type="line" smooth="yes"/>
			<point x="197" y="671"/>
			<point x="173" y="696"/>
			<point x="143" y="696" type="curve" smooth="yes"/>
			<point x="112" y="696"/>
			<point x="88" y="671"/>
			<point x="88" y="641" type="curve" smooth="yes"/>
			<point x="88" y="267" type="line" smooth="yes"/>
			<point x="88" y="242"/>
			<point x="88" y="222"/>
			<point x="90" y="196" type="curve" smooth="yes"/>
			<point x="99" y="81"/>
			<point x="178" y="-14"/>
			<point x="358" y="-14" type="curve" smooth="yes"/>
			<point x="538" y="-14"/>
			<point x="617" y="81"/>
			<point x="627" y="196" type="curve" smooth="yes"/>
			<point x="629" y="222"/>
			<point x="629" y="242"/>
		</contour>
		<contour>
			<point x="247" y="733"/>
			<point x="276" y="733" type="curve" smooth="yes"/>
			<point x="290" y="733" type="line" smooth="yes"/>
			<point x="318" y="733"/>
			<point x="342" y="756"/>
			<point x="342" y="784" type="curve" smooth="yes"/>
			<point x="342" y="791"/>
			<point x="340" y="798"/>
			<point x="338" y="803" type="curve" smooth="yes"/>
			<point x="329" y="826"/>
			<point x="308" y="844"/>
			<point x="282" y="844" type="curve" smooth="yes"/>
			<point x="272" y="844"/>
			<point x="263" y="841"/>
			<point x="256" y="837" type="curve" smooth="yes"/>
			<point x="237" y="827"/>
			<point x="223" y="808"/>
			<point x="223" y="786" type="curve" smooth="yes"/>
			<point x="223" y="757"/>
		</contour>
		<contour>
			<point x="402" y="733"/>
			<point x="431" y="733" type="curve" smooth="yes"/>
			<point x="445" y="733" type="line" smooth="yes"/>
			<point x="473" y="733"/>
			<point x="496" y="756"/>
			<point x="496" y="784" type="curve" smooth="yes"/>
			<point x="496" y="790"/>
			<point x="495" y="796"/>
			<point x="493" y="802" type="curve" smooth="yes"/>
			<point x="484" y="826"/>
			<point x="463" y="845"/>
			<point x="437" y="845" type="curve" smooth="yes"/>
			<point x="427" y="845"/>
			<point x="418" y="841"/>
			<point x="411" y="837" type="curve" smooth="yes"/>
			<point x="392" y="827"/>
			<point x="378" y="808"/>
			<point x="378" y="786" type="curve" smooth="yes"/>
			<point x="378" y="757"/>
		</contour>
	</outline>
</glyph>
<glyph name="Yacute" format="2">
	<advance width="602"/>
	<unicode hex="00DD"/>
	<note>
		Yacute
	</note>
	<outline>
		<contour>
			<point x="342" y="733"/>
			<point x="347" y="739" type="curve" smooth="yes"/>
			<point x="402" y="797" type="line" smooth="yes"/>
			<point x="406" y="802"/>
			<point x="410" y="808"/>
			<point x="410" y="816" type="curve" smooth="yes"/>
			<point x="410" y="833"/>
			<point x="394" y="845"/>
			<point x="378" y="843" type="curve" smooth="yes"/>
			<point x="335" y="837"/>
			<point x="300" y="802"/>
			<point x="298" y="759" type="curve" smooth="yes"/>
			<point x="298" y="743"/>
			<point x="310" y="731"/>
			<point x="326" y="731" type="curve" smooth="yes"/>
			<point x="335" y="731"/>
		</contour>
		<contour>
			<point x="371" y="49" type="curve" smooth="yes"/>
			<point x="371" y="270" type="line"/>
			<point x="572" y="617" type="line" smooth="yes"/>
			<point x="576" y="624"/>
			<point x="580" y="634"/>
			<point x="580" y="643" type="curve" smooth="yes"/>
			<point x="580" y="672"/>
			<point x="556" y="696"/>
			<point x="527" y="696" type="curve" smooth="yes"/>
			<point x="507" y="696"/>
			<point x="490" y="685"/>
			<point x="481" y="668" type="curve" smooth="yes"/>
			<point x="321" y="371" type="line"/>
			<point x="155" y="668" type="line" smooth="yes"/>
			<point x="146" y="685"/>
			<point x="129" y="696"/>
			<point x="108" y="696" type="curve" smooth="yes"/>
			<point x="79" y="696"/>
			<point x="54" y="671"/>
			<point x="54" y="642" type="curve" smooth="yes"/>
			<point x="54" y="632"/>
			<point x="58" y="623"/>
			<point x="62" y="615" type="curve" smooth="yes"/>
			<point x="262" y="270" type="line"/>
			<point x="262" y="49" type="line" smooth="yes"/>
			<point x="262" y="19"/>
			<point x="286" y="-6"/>
			<point x="317" y="-6" type="curve" smooth="yes"/>
			<point x="347" y="-6"/>
			<point x="371" y="19"/>
		</contour>
	</outline>
</glyph>
<glyph name="aacute" format="2">
	<advance width="545"/>
	<unicode hex="00E1"/>
	<note>
		aacute
	</note>
	<outline>
		<contour>
			<point x="297" y="576"/>
			<point x="302" y="582" type="curve" smooth="yes"/>
			<point x="368" y="655" type="line" smooth="yes"/>
			<point x="372" y="659"/>
			<point x="374" y="665"/>
			<point x="374" y="672" type="curve" smooth="yes"/>
			<point x="374" y="687"/>
			<point x="360" y="699"/>
			<point x="345" y="697" type="curve" smooth="yes"/>
			<point x="298" y="691"/>
			<point x="255" y="654"/>
			<point x="251" y="608" type="curve" smooth="yes"/>
			<point x="251" y="602" type="line" smooth="yes"/>
			<point x="251" y="585"/>
			<point x="264" y="572"/>
			<point x="280" y="572" type="curve" smooth="yes"/>
			<point x="289" y="572"/>
		</contour>
		<contour>
			<point x="365" y="77" type="line"/>
			<point x="370" y="42" type="line" smooth="yes"/>
			<point x="373" y="16"/>
			<point x="396" y="-6"/>
			<point x="423" y="-6" type="curve" smooth="yes"/>
			<point x="455" y="-6"/>
			<point x="481" y="23"/>
			<point x="478" y="54" type="curve" smooth="yes"/>
			<point x="475" y="85"/>
			<point x="474" y="109"/>
			<point x="474" y="135" type="curve" smooth="yes"/>
			<point x="474" y="322" type="line" smooth="yes"/>
			<point x="474" y="347"/>
			<point x="473" y="375"/>
			<point x="471" y="397" type="curve" smooth="yes"/>
			<point x="462" y="487"/>
			<point x="408" y="545"/>
			<point x="271" y="545" type="curve" smooth="yes"/>
			<point x="177" y="545"/>
			<point x="104" y="505"/>
			<point x="72" y="431" type="curve" smooth="yes"/>
			<point x="69" y="424"/>
			<point x="68" y="418"/>
			<point x="68" y="410" type="curve" smooth="yes"/>
			<point x="68" y="381"/>
			<point x="92" y="357"/>
			<point x="122" y="357" type="curve" smooth="yes"/>
			<point x="146" y="357"/>
			<point x="167" y="373"/>
			<point x="173" y="395" type="curve" smooth="yes"/>
			<point x="186" y="442"/>
			<point x="218" y="465"/>
			<point x="269" y="465" type="curve" smooth="yes"/>
			<point x="332" y="465"/>
			<point x="359" y="435"/>
			<point x="362" y="392" type="curve" smooth="yes"/>
			<point x="364" y="372"/>
			<point x="364" y="354"/>
			<point x="364" y="334" type="curve" smooth="yes"/>
			<point x="364" y="321" type="line"/>
			<point x="330" y="321" type="line" smooth="yes"/>
			<point x="129" y="321"/>
			<point x="35" y="257"/>
			<point x="35" y="139" type="curve" smooth="yes"/>
			<point x="35" y="40"/>
			<point x="112" y="-14"/>
			<point x="206" y="-14" type="curve" smooth="yes"/>
			<point x="241" y="-14"/>
			<point x="274" y="-10"/>
			<point x="304" y="2" type="curve" smooth="yes"/>
			<point x="330" y="12"/>
			<point x="343" y="29"/>
			<point x="355" y="55" type="curve" smooth="yes"/>
		</contour>
		<contour>
			<point x="246" y="66" type="curve" smooth="yes"/>
			<point x="188" y="66"/>
			<point x="151" y="92"/>
			<point x="151" y="148" type="curve" smooth="yes"/>
			<point x="151" y="229"/>
			<point x="235" y="258"/>
			<point x="364" y="248" type="curve"/>
			<point x="364" y="199" type="line" smooth="yes"/>
			<point x="364" y="113"/>
			<point x="315" y="66"/>
		</contour>
	</outline>
</glyph>
<glyph name="adieresis" format="2">
	<advance width="545"/>
	<unicode hex="00E4"/>
	<note>
		adieresis
	</note>
	<outline>
		<contour>
			<point x="365" y="77" type="line"/>
			<point x="370" y="42" type="line" smooth="yes"/>
			<point x="373" y="16"/>
			<point x="396" y="-6"/>
			<point x="423" y="-6" type="curve" smooth="yes"/>
			<point x="455" y="-6"/>
			<point x="481" y="23"/>
			<point x="478" y="54" type="curve" smooth="yes"/>
			<point x="475" y="85"/>
			<point x="474" y="109"/>
			<point x="474" y="135" type="curve" smooth="yes"/>
			<point x="474" y="322" type="line" smooth="yes"/>
			<point x="474" y="347"/>
			<point x="473" y="375"/>
			<point x="471" y="397" type="curve" smooth="yes"/>
			<point x="462" y="487"/>
			<point x="408" y="545"/>
			<point x="271" y="545" type="curve" smooth="yes"/>
			<point x="177" y="545"/>
			<point x="104" y="505"/>
			<point x="72" y="431" type="curve" smooth="yes"/>
			<point x="69" y="424"/>
			<point x="68" y="418"/>
			<point x="68" y="410" type="curve" smooth="yes"/>
			<point x="68" y="381"/>
			<point x="92" y="357"/>
			<point x="122" y="357" type="curve" smooth="yes"/>
			<point x="146" y="357"/>
			<point x="167" y="373"/>
			<point x="173" y="395" type="curve" smooth="yes"/>
			<point x="186" y="442"/>
			<point x="218" y="465"/>
			<point x="269" y="465" type="curve" smooth="yes"/>
			<point x="332" y="465"/>
			<point x="359" y="435"/>
			<point x="362" y="392" type="curve" smooth="yes"/>
			<point x="364" y="372"/>
			<point x="364" y="354"/>
			<point x="364" y="334" type="curve" smooth="yes"/>
			<point x="364" y="321" type="line"/>
			<point x="330" y="321" type="line" smooth="yes"/>
			<point x="129" y="321"/>
			<point x="35" y="257"/>
			<point x="35" y="139" type="curve" smooth="yes"/>
			<point x="35" y="40"/>
			<point x="112" y="-14"/>
			<point x="206" y="-14" type="curve" smooth="yes"/>
			<point x="241" y="-14"/>
			<point x="274" y="-10"/>
			<point x="304" y="2" type="curve" smooth="yes"/>
			<point x="330" y="12"/>
			<point x="343" y="29"/>
			<point x="355" y="55" type="curve" smooth="yes"/>
		</contour>
		<contour>
			<point x="246" y="66" type="curve" smooth="yes"/>
			<point x="188" y="66"/>
			<point x="151" y="92"/>
			<point x="151" y="148" type="curve" smooth="yes"/>
			<point x="151" y="229"/>
			<point x="235" y="258"/>
			<point x="364" y="248" type="curve"/>
			<point x="364" y="199" type="line" smooth="yes"/>
			<point x="364" y="113"/>
			<point x="315" y="66"/>
		</contour>
		<contour>
			<point x="158" y="583"/>
			<point x="187" y="583" type="curve" smooth="yes"/>
			<point x="201" y="583" type="line" smooth="yes"/>
			<point x="229" y="583"/>
			<point x="253" y="606"/>
			<point x="253" y="634" type="curve" smooth="yes"/>
			<point x="253" y="641"/>
			<point x="251" y="648"/>
			<point x="249" y="653" type="curve" smooth="yes"/>
			<point x="240" y="676"/>
			<point x="219" y="694"/>
			<point x="193" y="694" type="curve" smooth="yes"/>
			<point x="183" y="694"/>
			<point x="174" y="691"/>
			<point x="167" y="687" type="curve" smooth="yes"/>
			<point x="148" y="677"/>
			<point x="134" y="658"/>
			<point x="134" y="636" type="curve" smooth="yes"/>
			<point x="134" y="607"/>
		</contour>
		<contour>
			<point x="313" y="583"/>
			<point x="342" y="583" type="curve" smooth="yes"/>
			<point x="356" y="583" type="line" smooth="yes"/>
			<point x="384" y="583"/>
			<point x="407" y="606"/>
			<point x="407" y="634" type="curve" smooth="yes"/>
			<point x="407" y="640"/>
			<point x="406" y="646"/>
			<point x="404" y="652" type="curve" smooth="yes"/>
			<point x="395" y="676"/>
			<point x="374" y="695"/>
			<point x="348" y="695" type="curve" smooth="yes"/>
			<point x="338" y="695"/>
			<point x="329" y="691"/>
			<point x="322" y="687" type="curve" smooth="yes"/>
			<point x="303" y="677"/>
			<point x="289" y="658"/>
			<point x="289" y="636" type="curve" smooth="yes"/>
			<point x="289" y="607"/>
		</contour>
	</outline>
</glyph>
<glyph name="igrave" format="2">
	<advance width="251"/>
	<unicode hex="00EC"/>
	<note>
		igrave
	</note>
	<outline>
		<contour>
			<point x="144" y="613"/>
			<point x="142" y="617" type="curve" smooth="yes"/>
			<point x="104" y="680" type="line" smooth="yes"/>
			<point x="98" y="691"/>
			<point x="86" y="698"/>
			<point x="73" y="698" type="curve" smooth="yes"/>
			<point x="53" y="698"/>
			<point x="37" y="681"/>
			<point x="37" y="661" type="curve" smooth="yes"/>
			<point x="37" y="652"/>
			<point x="41" y="643"/>
			<point x="46" y="637" type="curve" smooth="yes"/>
			<point x="95" y="582" type="line" smooth="yes"/>
			<point x="100" y="576"/>
			<point x="108" y="573"/>
			<point x="117" y="573" type="curve" smooth="yes"/>
			<point x="133" y="573"/>
			<point x="146" y="586"/>
			<point x="146" y="602" type="curve" smooth="yes"/>
			<point x="146" y="607"/>
		</contour>
		<contour>
			<point x="179" y="20"/>
			<point x="179" y="50" type="curve" smooth="yes"/>
			<point x="179" y="482" type="line" smooth="yes"/>
			<point x="179" y="512"/>
			<point x="154" y="537"/>
			<point x="124" y="537" type="curve" smooth="yes"/>
			<point x="94" y="537"/>
			<point x="69" y="512"/>
			<point x="69" y="482" type="curve" smooth="yes"/>
			<point x="69" y="50" type="line" smooth="yes"/>
			<point x="69" y="20"/>
			<point x="94" y="-6"/>
			<point x="124" y="-6" type="curve" smooth="yes"/>
			<point x="154" y="-6"/>
		</contour>
	</outline>
</glyph>
<glyph name="ocircumflex" format="2">
	<advance width="595"/>
	<unicode hex="00F4"/>
	<note>
		ocircumflex
	</note>
	<outline>
		<contour>
			<point x="266" y="579"/>
			<point x="271" y="590" type="curve" smooth="yes"/>
			<point x="298" y="643" type="line"/>
			<point x="325" y="590" type="line" smooth="yes"/>
			<point x="330" y="579"/>
			<point x="341" y="573"/>
			<point x="353" y="573" type="curve" smooth="yes"/>
			<point x="371" y="573"/>
			<point x="385" y="587"/>
			<point x="385" y="604" type="curve" smooth="yes"/>
			<point x="385" y="610"/>
			<point x="384" y="616"/>
			<point x="381" y="620" type="curve" smooth="yes"/>
			<point x="362" y="652" type="line" smooth="yes"/>
			<point x="346" y="679"/>
			<point x="327" y="692"/>
			<point x="302" y="692" type="curve" smooth="yes"/>
			<point x="256" y="692"/>
			<point x="216" y="657"/>
			<point x="213" y="611" type="curve"/>
			<point x="212" y="609"/>
			<point x="212" y="606"/>
			<point x="212" y="604" type="curve" smooth="yes"/>
			<point x="212" y="586"/>
			<point x="226" y="573"/>
			<point x="243" y="573" type="curve" smooth="yes"/>
			<point x="255" y="573"/>
		</contour>
		<contour>
			<point x="298" y="545" type="curve" smooth="yes"/>
			<point x="119" y="545"/>
			<point x="29" y="421"/>
			<point x="29" y="266" type="curve" smooth="yes"/>
			<point x="29" y="111"/>
			<point x="119" y="-14"/>
			<point x="298" y="-14" type="curve" smooth="yes"/>
			<point x="476" y="-14"/>
			<point x="567" y="111"/>
			<point x="567" y="266" type="curve" smooth="yes"/>
			<point x="567" y="421"/>
			<point x="476" y="545"/>
		</contour>
		<contour>
			<point x="298" y="66" type="curve" smooth="yes"/>
			<point x="201" y="66"/>
			<point x="145" y="146"/>
			<point x="145" y="266" type="curve" smooth="yes"/>
			<point x="145" y="386"/>
			<point x="201" y="465"/>
			<point x="298" y="465" type="curve" smooth="yes"/>
			<point x="394" y="465"/>
			<point x="450" y="386"/>
			<point x="450" y="266" type="curve" smooth="yes"/>
			<point x="450" y="146"/>
			<point x="394" y="66"/>
		</contour>
	</outline>
</glyph>
<glyph name="odieresis" format="2">
	<advance width="595"/>
	<unicode hex="00F6"/>
	<note>
		odieresis
	</note>
	<outline>
		<contour>
			<point x="298" y="545" type="curve" smooth="yes"/>
			<point x="119" y="545"/>
			<point x="29" y="421"/>
			<point x="29" y="266" type="curve" smooth="yes"/>
			<point x="29" y="111"/>
			<point x="119" y="-14"/>
			<point x="298" y="-14" type="curve" smooth="yes"/>
			<point x="476" y="-14"/>
			<point x="567" y="111"/>
			<point x="567" y="266" type="curve" smooth="yes"/>
			<point x="567" y="421"/>
			<point x="476" y="545"/>
		</contour>
		<contour>
			<point x="298" y="66" type="curve" smooth="yes"/>
			<point x="201" y="66"/>
			<point x="145" y="146"/>
			<point x="145" y="266" type="curve" smooth="yes"/>
			<point x="145" y="386"/>
			<point x="201" y="465"/>
			<point x="298" y="465" type="curve" smooth="yes"/>
			<point x="394" y="465"/>
			<point x="450" y="386"/>
			<point x="450" y="266" type="curve" smooth="yes"/>
			<point x="450" y="146"/>
			<point x="394" y="66"/>
		</contour>
		<contour>
			<point x="186" y="582"/>
			<point x="215" y="582" type="curve" smooth="yes"/>
			<point x="229" y="582" type="line" smooth="yes"/>
			<point x="257" y="582"/>
			<point x="281" y="605"/>
			<point x="281" y="633" type="curve" smooth="yes"/>
			<point x="281" y="640"/>
			<point x="279" y="647"/>
			<point x="277" y="652" type="curve" smooth="yes"/>
			<point x="268" y="675"/>
			<point x="247" y="693"/>
			<point x="221" y="693" type="curve" smooth="yes"/>
			<point x="211" y="693"/>
			<point x="202" y="690"/>
			<point x="195" y="686" type="curve" smooth="yes"/>
			<point x="176" y="676"/>
			<point x="162" y="657"/>
			<point x="162" y="635" type="curve" smooth="yes"/>
			<point x="162" y="606"/>
		</contour>
		<contour>
			<point x="341" y="582"/>
			<point x="370" y="582" type="curve" smooth="yes"/>
			<point x="384" y="582" type="line" smooth="yes"/>
			<point x="412" y="582"/>
			<point x="436" y="605"/>
			<point x="436" y="633" type="curve" smooth="yes"/>
			<point x="436" y="640"/>
			<point x="434" y="647"/>
			<point x="432" y="652" type="curve" smooth="yes"/>
			<point x="423" y="675"/>
			<point x="402" y="693"/>
			<point x="376" y="693" type="curve" smooth="yes"/>
			<point x="366" y="693"/>
			<point x="357" y="690"/>
			<point x="350" y="686" type="curve" smooth="yes"/>
			<point x="331" y="676"/>
			<point x="317" y="657"/>
			<point x="317" y="635" type="curve" smooth="yes"/>
			<point x="317" y="606"/>
		</contour>
	</outline>
</glyph>
<glyph name="udieresis" format="2">
	<advance width="604"/>
	<unicode hex="00FC"/>
	<note>
		udieresis
	</note>
	<outline>
		<contour>
			<point x="532" y="49" type="curve" smooth="yes"/>
			<point x="532" y="482" type="line" smooth="yes"/>
			<point x="532" y="512"/>
			<point x="508" y="537"/>
			<point x="478" y="537" type="curve" smooth="yes"/>
			<point x="447" y="537"/>
			<point x="423" y="512"/>
			<point x="423" y="482" type="curve" smooth="yes"/>
			<point x="423" y="281" type="line" smooth="yes"/>
			<point x="423" y="127"/>
			<point x="365" y="68"/>
			<point x="288" y="68" type="curve" smooth="yes"/>
			<point x="220" y="68"/>
			<point x="182" y="106"/>
			<point x="174" y="164" type="curve" smooth="yes"/>
			<point x="171" y="191"/>
			<point x="170" y="220"/>
			<point x="170" y="237" type="curve" smooth="yes"/>
			<point x="170" y="482" type="line" smooth="yes"/>
			<point x="170" y="512"/>
			<point x="146" y="537"/>
			<point x="116" y="537" type="curve" smooth="yes"/>
			<point x="85" y="537"/>
			<point x="61" y="512"/>
			<point x="61" y="482" type="curve" smooth="yes"/>
			<point x="61" y="215" type="line" smooth="yes"/>
			<point x="61" y="172"/>
			<point x="62" y="148"/>
			<point x="66" y="121" type="curve" smooth="yes"/>
			<point x="78" y="48"/>
			<point x="142" y="-14"/>
			<point x="252" y="-14" type="curve" smooth="yes"/>
			<point x="291" y="-14"/>
			<point x="323" y="-9"/>
			<point x="354" y="6" type="curve" smooth="yes"/>
			<point x="378" y="18"/>
			<point x="391" y="34"/>
			<point x="404" y="58" type="curve" smooth="yes"/>
			<point x="423" y="91" type="line"/>
			<point x="423" y="49" type="line" smooth="yes"/>
			<point x="423" y="19"/>
			<point x="447" y="-6"/>
			<point x="478" y="-6" type="curve" smooth="yes"/>
			<point x="508" y="-6"/>
			<point x="532" y="19"/>
		</contour>
		<contour>
			<point x="182" y="584"/>
			<point x="211" y="584" type="curve" smooth="yes"/>
			<point x="225" y="584" type="line" smooth="yes"/>
			<point x="253" y="584"/>
			<point x="276" y="607"/>
			<point x="276" y="635" type="curve" smooth="yes"/>
			<point x="276" y="641"/>
			<point x="275" y="647"/>
			<point x="273" y="653" type="curve" smooth="yes"/>
			<point x="264" y="677"/>
			<point x="243" y="696"/>
			<point x="217" y="696" type="curve" smooth="yes"/>
			<point x="207" y="696"/>
			<point x="198" y="692"/>
			<point x="191" y="688" type="curve" smooth="yes"/>
			<point x="172" y="678"/>
			<point x="158" y="659"/>
			<point x="158" y="637" type="curve" smooth="yes"/>
			<point x="158" y="608"/>
		</contour>
		<contour>
			<point x="337" y="584"/>
			<point x="366" y="584" type="curve" smooth="yes"/>
			<point x="380" y="584" type="line" smooth="yes"/>
			<point x="408" y="584"/>
			<point x="432" y="607"/>
			<point x="432" y="635" type="curve" smooth="yes"/>
			<point x="432" y="642"/>
			<point x="430" y="649"/>
			<point x="428" y="654" type="curve" smooth="yes"/>
			<point x="419" y="677"/>
			<point x="398" y="695"/>
			<point x="372" y="695" type="curve" smooth="yes"/>
			<point x="362" y="695"/>
			<point x="353" y="692"/>
			<point x="346" y="688" type="curve" smooth="yes"/>
			<point x="327" y="678"/>
			<point x="313" y="659"/>
			<point x="313" y="637" type="curve" smooth="yes"/>
			<point x="313" y="608"/>
		</contour>
	</outline>
</glyph>
<glyph name="Aogonek" format="2">
	<advance width="656"/>
	<unicode hex="0104"/>
	<note>
		Aogonek
	</note>
	<outline>
		<contour>
			<point x="529" y="-107" type="curve" smooth="yes"/>
			<point x="529" y="-50"/>
			<point x="567" y="-7"/>
			<point x="611" y="0" type="curve"/>
			<point x="633" y="0" type="line" smooth="yes"/>
			<point x="646" y="0"/>
			<point x="645" y="25"/>
			<point x="631" y="66" type="curve" smooth="yes"/>
			<point x="429" y="643" type="line" smooth="yes"/>
			<point x="418" y="674"/>
			<point x="396" y="690"/>
			<point x="363" y="690" type="curve" smooth="yes"/>
			<point x="320" y="690" type="line" smooth="yes"/>
			<point x="287" y="690"/>
			<point x="265" y="676"/>
			<point x="254" y="644" type="curve" smooth="yes"/>
			<point x="47" y="68" type="line" smooth="yes"/>
			<point x="45" y="63"/>
			<point x="44" y="56"/>
			<point x="44" y="49" type="curve" smooth="yes"/>
			<point x="44" y="19"/>
			<point x="69" y="-6"/>
			<point x="99" y="-6" type="curve" smooth="yes"/>
			<point x="123" y="-6"/>
			<point x="144" y="11"/>
			<point x="151" y="32" type="curve" smooth="yes"/>
			<point x="215" y="228" type="line"/>
			<point x="460" y="228" type="line"/>
			<point x="532" y="10" type="line"/>
			<point x="477" y="-14"/>
			<point x="427" y="-67"/>
			<point x="427" y="-138" type="curve" smooth="yes"/>
			<point x="427" y="-201"/>
			<point x="467" y="-223"/>
			<point x="525" y="-223" type="curve" smooth="yes"/>
			<point x="560" y="-223"/>
			<point x="590" y="-215"/>
			<point x="618" y="-200" type="curve" smooth="yes"/>
			<point x="626" y="-195"/>
			<point x="632" y="-187"/>
			<point x="632" y="-177" type="curve" smooth="yes"/>
			<point x="632" y="-160"/>
			<point x="614" y="-148"/>
			<point x="598" y="-153" type="curve" smooth="yes"/>
			<point x="589" y="-156"/>
			<point x="581" y="-157"/>
			<point x="573" y="-157" type="curve" smooth="yes"/>
			<point x="546" y="-157"/>
			<point x="529" y="-144"/>
		</contour>
		<contour>
			<point x="431" y="315" type="line"/>
			<point x="244" y="315" type="line"/>
			<point x="340" y="599" type="line"/>
		</contour>
	</outline>
</glyph>
<glyph name="ccaron" format="2">
	<advance width="544"/>
	<unicode hex="010D"/>
	<note>
		ccaron
	</note>
	<outline>
		<contour>
			<point x="193" y="650" type="curve" smooth="yes"/>
			<point x="212" y="618" type="line" smooth="yes"/>
			<point x="228" y="591"/>
			<point x="247" y="578"/>
			<point x="272" y="578" type="curve" smooth="yes"/>
			<point x="318" y="578"/>
			<point x="358" y="613"/>
			<point x="361" y="659" type="curve"/>
			<point x="362" y="661"/>
			<point x="362" y="664"/>
			<point x="362" y="666" type="curve" smooth="yes"/>
			<point x="362" y="684"/>
			<point x="348" y="698"/>
			<point x="331" y="698" type="curve" smooth="yes"/>
			<point x="319" y="698"/>
			<point x="308" y="691"/>
			<point x="303" y="680" type="curve" smooth="yes"/>
			<point x="276" y="626" type="line"/>
			<point x="249" y="680" type="line" smooth="yes"/>
			<point x="244" y="691"/>
			<point x="233" y="698"/>
			<point x="221" y="698" type="curve" smooth="yes"/>
			<point x="203" y="698"/>
			<point x="189" y="683"/>
			<point x="189" y="666" type="curve" smooth="yes"/>
			<point x="189" y="660"/>
			<point x="190" y="654"/>
		</contour>
		<contour>
			<point x="279" y="66" type="curve" smooth="yes"/>
			<point x="205" y="66"/>
			<point x="145" y="127"/>
			<point x="145" y="271" type="curve" smooth="yes"/>
			<point x="145" y="404"/>
			<point x="206" y="465"/>
			<point x="283" y="465" type="curve" smooth="yes"/>
			<point x="338" y="465"/>
			<point x="377" y="439"/>
			<point x="398" y="378" type="curve" smooth="yes"/>
			<point x="405" y="356"/>
			<point x="425" y="341"/>
			<point x="449" y="341" type="curve" smooth="yes"/>
			<point x="479" y="341"/>
			<point x="503" y="365"/>
			<point x="503" y="395" type="curve" smooth="yes"/>
			<point x="503" y="403"/>
			<point x="502" y="411"/>
			<point x="499" y="417" type="curve" smooth="yes"/>
			<point x="465" y="496"/>
			<point x="390" y="545"/>
			<point x="286" y="545" type="curve" smooth="yes"/>
			<point x="147" y="545"/>
			<point x="29" y="444"/>
			<point x="29" y="263" type="curve" smooth="yes"/>
			<point x="29" y="74"/>
			<point x="134" y="-14"/>
			<point x="273" y="-14" type="curve" smooth="yes"/>
			<point x="371" y="-14"/>
			<point x="449" y="25"/>
			<point x="490" y="105" type="curve" smooth="yes"/>
			<point x="494" y="113"/>
			<point x="495" y="120"/>
			<point x="495" y="129" type="curve" smooth="yes"/>
			<point x="495" y="158"/>
			<point x="472" y="182"/>
			<point x="442" y="182" type="curve" smooth="yes"/>
			<point x="420" y="182"/>
			<point x="400" y="168"/>
			<point x="393" y="148" type="curve" smooth="yes"/>
			<point x="372" y="93"/>
			<point x="332" y="66"/>
		</contour>
	</outline>
</glyph>
<glyph name="uni0123" format="2">
	<advance width="629"/>
	<unicode hex="0123"/>
	<note>
		gcommaaccent
	</note>
	<outline>
		<contour>
			<point x="344" y="581"/>
			<point x="352" y="602" type="curve" smooth="yes"/>
			<point x="387" y="690" type="line" smooth="yes"/>
			<point x="388" y="693"/>
			<point x="389" y="698"/>
			<point x="389" y="702" type="curve" smooth="yes"/>
			<point x="389" y="721"/>
			<point x="375" y="735"/>
			<point x="356" y="735" type="curve" smooth="yes"/>
			<point x="343" y="735"/>
			<point x="332" y="728"/>
			<point x="327" y="717" type="curve" smooth="yes"/>
			<point x="286" y="635" type="line" smooth="yes"/>
			<point x="271" y="604"/>
			<point x="271" y="566"/>
			<point x="306" y="564" type="curve" smooth="yes"/>
			<point x="307" y="564"/>
			<point x="308" y="564"/>
			<point x="309" y="564" type="curve" smooth="yes"/>
			<point x="333" y="564"/>
		</contour>
		<contour>
			<point x="557" y="132" type="curve" smooth="yes"/>
			<point x="557" y="482" type="line" smooth="yes"/>
			<point x="557" y="512"/>
			<point x="532" y="537"/>
			<point x="502" y="537" type="curve" smooth="yes"/>
			<point x="472" y="537"/>
			<point x="447" y="512"/>
			<point x="447" y="482" type="curve" smooth="yes"/>
			<point x="447" y="459" type="line"/>
			<point x="430" y="486" type="line" smooth="yes"/>
			<point x="417" y="506"/>
			<point x="405" y="519"/>
			<point x="380" y="529" type="curve" smooth="yes"/>
			<point x="352" y="539"/>
			<point x="316" y="545"/>
			<point x="286" y="545" type="curve" smooth="yes"/>
			<point x="149" y="545"/>
			<point x="29" y="453"/>
			<point x="29" y="259" type="curve" smooth="yes"/>
			<point x="29" y="103"/>
			<point x="118" y="-9"/>
			<point x="271" y="-9" type="curve" smooth="yes"/>
			<point x="309" y="-9"/>
			<point x="347" y="-1"/>
			<point x="376" y="12" type="curve" smooth="yes"/>
			<point x="400" y="24"/>
			<point x="413" y="39"/>
			<point x="428" y="61" type="curve" smooth="yes"/>
			<point x="447" y="89" type="line"/>
			<point x="447" y="78" type="line" smooth="yes"/>
			<point x="447" y="59"/>
			<point x="447" y="40"/>
			<point x="446" y="17" type="curve" smooth="yes"/>
			<point x="442" y="-78"/>
			<point x="387" y="-130"/>
			<point x="291" y="-130" type="curve" smooth="yes"/>
			<point x="228" y="-130"/>
			<point x="184" y="-107"/>
			<point x="164" y="-70" type="curve" smooth="yes"/>
			<point x="151" y="-45"/>
			<point x="148" y="-22"/>
			<point x="122" y="-13" type="curve" smooth="yes"/>
			<point x="116" y="-11"/>
			<point x="109" y="-10"/>
			<point x="103" y="-10" type="curve" smooth="yes"/>
			<point x="92" y="-10"/>
			<point x="81" y="-12"/>
			<point x="71" y="-16" type="curve" smooth="yes"/>
			<point x="49" y="-24"/>
			<point x="44" y="-48"/>
			<point x="53" y="-78" type="curve" smooth="yes"/>
			<point x="79" y="-165"/>
			<point x="157" y="-213"/>
			<point x="290" y="-213" type="curve" smooth="yes"/>
			<point x="450" y="-213"/>
			<point x="550" y="-132"/>
			<point x="556" y="29" type="curve" smooth="yes"/>
			<point x="557" y="58"/>
			<point x="557" y="99"/>
		</contour>
		<contour>
			<point x="293" y="71" type="curve" smooth="yes"/>
			<point x="198" y="71"/>
			<point x="145" y="154"/>
			<point x="145" y="269" type="curve" smooth="yes"/>
			<point x="145" y="401"/>
			<point x="211" y="465"/>
			<point x="298" y="465" type="curve" smooth="yes"/>
			<point x="369" y="465"/>
			<point x="447" y="417"/>
			<point x="447" y="288" type="curve" smooth="yes"/>
			<point x="447" y="265" type="line" smooth="yes"/>
			<point x="447" y="123"/>
			<point x="376" y="71"/>
		</contour>
	</outline>
</glyph>
<glyph name="dotlessi" format="2">
	<advance width="251"/>
	<unicode hex="0131"/>
	<note>
		dotlessi
	</note>
	<outline>
		<contour>
			<point x="179" y="20"/>
			<point x="179" y="50" type="curve" smooth="yes"/>
			<point x="179" y="482" type="line" smooth="yes"/>
			<point x="179" y="512"/>
			<point x="154" y="537"/>
			<point x="124" y="537" type="curve" smooth="yes"/>
			<point x="94" y="537"/>
			<point x="69" y="512"/>
			<point x="69" y="482" type="curve" smooth="yes"/>
			<point x="69" y="50" type="line" smooth="yes"/>
			<point x="69" y="20"/>
			<point x="94" y="-6"/>
			<point x="124" y="-6" type="curve" smooth="yes"/>
			<point x="154" y="-6"/>
		</contour>
	</outline>
</glyph>
<glyph name="ij" format="2">
	<advance width="496"/>
	<unicode hex="0133"/>
	<note>
		ij
	</note>
	<outline>
		<contour>
			<point x="179" y="20"/>
			<point x="179" y="50" type="curve" smooth="yes"/>
			<point x="179" y="482" type="line" smooth="yes"/>
			<point x="179" y="512"/>
			<point x="154" y="537"/>
			<point x="124" y="537" type="curve" smooth="yes"/>
			<point x="94" y="537"/>
			<point x="69" y="512"/>
			<point x="69" y="482" type="curve" smooth="yes"/>
			<point x="69" y="50" type="line" smooth="yes"/>
			<point x="69" y="20"/>
			<point x="94" y="-6"/>
			<point x="124" y="-6" type="curve" smooth="yes"/>
			<point x="154" y="-6"/>
		</contour>
		<contour>
			<point x="425" y="-31" type="curve" smooth="yes"/>
			<point x="425" y="482" type="line" smooth="yes"/>
			<point x="425" y="512"/>
			<point x="401" y="537"/>
			<point x="371" y="537" type="curve" smooth="yes"/>
			<point x="340" y="537"/>
			<point x="316" y="512"/>
			<point x="316" y="482" type="curve" smooth="yes"/>
			<point x="316" y="-34" type="line" smooth="yes"/>
			<point x="316" y="-49"/>
			<point x="316" y="-65"/>
			<point x="314" y="-79" type="curve" smooth="yes"/>
			<point x="311" y="-106"/>
			<point x="296" y="-122"/>
			<point x="262" y="-125" type="curve" smooth="yes"/>
			<point x="241" y="-127"/>
			<point x="223" y="-145"/>
			<point x="223" y="-168" type="curve" smooth="yes"/>
			<point x="223" y="-191"/>
			<point x="243" y="-210"/>
			<point x="266" y="-210" type="curve" smooth="yes"/>
			<point x="275" y="-210" type="line" smooth="yes"/>
			<point x="375" y="-210"/>
			<point x="416" y="-168"/>
			<point x="423" y="-95" type="curve" smooth="yes"/>
			<point x="424" y="-77"/>
			<point x="425" y="-51"/>
		</contour>
		<contour>
			<point x="88" y="593"/>
			<point x="120" y="585" type="curve" smooth="yes"/>
			<point x="150" y="577"/>
			<point x="180" y="601"/>
			<point x="180" y="632" type="curve" smooth="yes"/>
			<point x="180" y="673" type="line" smooth="yes"/>
			<point x="180" y="704"/>
			<point x="150" y="728"/>
			<point x="120" y="720" type="curve" smooth="yes"/>
			<point x="88" y="712"/>
			<point x="64" y="686"/>
			<point x="64" y="653" type="curve" smooth="yes"/>
			<point x="64" y="620"/>
		</contour>
		<contour>
			<point x="335" y="593"/>
			<point x="367" y="585" type="curve" smooth="yes"/>
			<point x="397" y="577"/>
			<point x="427" y="601"/>
			<point x="427" y="632" type="curve" smooth="yes"/>
			<point x="427" y="673" type="line" smooth="yes"/>
			<point x="427" y="704"/>
			<point x="397" y="728"/>
			<point x="367" y="720" type="curve" smooth="yes"/>
			<point x="335" y="712"/>
			<point x="311" y="686"/>
			<point x="311" y="653" type="curve" smooth="yes"/>
			<point x="311" y="620"/>
		</contour>
	</outline>
</glyph>
<glyph name="Lacute" format="2">
	<advance width="588"/>
	<unicode hex="0139"/>
	<note>
		Lacute
	</note>
	<outline>
		<contour>
			<point x="176" y="733"/>
			<point x="181" y="739" type="curve" smooth="yes"/>
			<point x="236" y="797" type="line" smooth="yes"/>
			<point x="240" y="802"/>
			<point x="244" y="808"/>
			<point x="244" y="816" type="curve" smooth="yes"/>
			<point x="244" y="833"/>
			<point x="228" y="845"/>
			<point x="212" y="843" type="curve" smooth="yes"/>
			<point x="169" y="837"/>
			<point x="134" y="802"/>
			<point x="132" y="759" type="curve" smooth="yes"/>
			<point x="132" y="743"/>
			<point x="144" y="731"/>
			<point x="160" y="731" type="curve" smooth="yes"/>
			<point x="169" y="731"/>
		</contour>
		<contour>
			<point x="557" y="91"/>
			<point x="532" y="91" type="curve" smooth="yes"/>
			<point x="205" y="91" type="line"/>
			<point x="205" y="641" type="line" smooth="yes"/>
			<point x="205" y="671"/>
			<point x="180" y="696"/>
			<point x="150" y="696" type="curve" smooth="yes"/>
			<point x="120" y="696"/>
			<point x="95" y="671"/>
			<point x="95" y="641" type="curve" smooth="yes"/>
			<point x="95" y="58" type="line" smooth="yes"/>
			<point x="95" y="21"/>
			<point x="116" y="0"/>
			<point x="153" y="0" type="curve" smooth="yes"/>
			<point x="532" y="0" type="line" smooth="yes"/>
			<point x="557" y="0"/>
			<point x="578" y="20"/>
			<point x="578" y="46" type="curve" smooth="yes"/>
			<point x="578" y="71"/>
		</contour>
	</outline>
</glyph>
<glyph name="lcaron" format="2">
	<advance width="262"/>
	<unicode hex="013E"/>
	<note>
		lcaron
	</note>
	<outline>
		<contour>
			<point x="175" y="162" type="curve" smooth="yes"/>
			<point x="175" y="686" type="line" smooth="yes"/>
			<point x="175" y="716"/>
			<point x="150" y="741"/>
			<point x="120" y="741" type="curve" smooth="yes"/>
			<point x="90" y="741"/>
			<point x="65" y="716"/>
			<point x="65" y="686" type="curve" smooth="yes"/>
			<point x="65" y="159" type="line" smooth="yes"/>
			<point x="65" y="127"/>
			<point x="65" y="103"/>
			<point x="66" y="83" type="curve" smooth="yes"/>
			<point x="70" y="15"/>
			<point x="109" y="-6"/>
			<point x="167" y="-6" type="curve" smooth="yes"/>
			<point x="180" y="-6"/>
			<point x="193" y="-5"/>
			<point x="207" y="-4" type="curve" smooth="yes"/>
			<point x="228" y="-2"/>
			<point x="245" y="14"/>
			<point x="245" y="36" type="curve" smooth="yes"/>
			<point x="245" y="56"/>
			<point x="229" y="73"/>
			<point x="209" y="76" type="curve" smooth="yes"/>
			<point x="185" y="79"/>
			<point x="177" y="90"/>
			<point x="176" y="112" type="curve" smooth="yes"/>
			<point x="175" y="128"/>
			<point x="175" y="144"/>
		</contour>
	</outline>
</glyph>
<glyph name="Lslash" format="2">
	<advance width="615"/>
	<unicode hex="0141"/>
	<note>
		Lslash
	</note>
	<outline>
		<contour>
			<point x="583" y="91"/>
			<point x="558" y="91" type="curve" smooth="yes"/>
			<point x="231" y="91" type="line"/>
			<point x="231" y="350" type="line"/>
			<point x="336" y="410" type="line" smooth="yes"/>
			<point x="346" y="416"/>
			<point x="353" y="427"/>
			<point x="353" y="440" type="curve" smooth="yes"/>
			<point x="353" y="458"/>
			<point x="337" y="473"/>
			<point x="319" y="473" type="curve" smooth="yes"/>
			<point x="313" y="473"/>
			<point x="307" y="472"/>
			<point x="302" y="469" type="curve" smooth="yes"/>
			<point x="231" y="428" type="line"/>
			<point x="231" y="641" type="line" smooth="yes"/>
			<point x="231" y="671"/>
			<point x="207" y="696"/>
			<point x="177" y="696" type="curve" smooth="yes"/>
			<point x="146" y="696"/>
			<point x="122" y="671"/>
			<point x="122" y="641" type="curve" smooth="yes"/>
			<point x="122" y="365" type="line"/>
			<point x="29" y="312" type="line" smooth="yes"/>
			<point x="19" y="306"/>
			<point x="12" y="295"/>
			<point x="12" y="282" type="curve" smooth="yes"/>
			<point x="12" y="264"/>
			<point x="27" y="248"/>
			<point x="45" y="248" type="curve" smooth="yes"/>
			<point x="51" y="248"/>
			<point x="57" y="250"/>
			<point x="62" y="253" type="curve" smooth="yes"/>
			<point x="122" y="287" type="line"/>
			<point x="122" y="58" type="line" smooth="yes"/>
			<point x="122" y="21"/>
			<point x="143" y="0"/>
			<point x="180" y="0" type="curve" smooth="yes"/>
			<point x="558" y="0" type="line" smooth="yes"/>
			<point x="583" y="0"/>
			<point x="604" y="20"/>
			<point x="604" y="46" type="curve" smooth="yes"/>
			<point x="604" y="71"/>
		</contour>
	</outline>
</glyph>
<glyph name="ncaron" format="2">
	<advance width="606"/>
	<unicode hex="0148"/>
	<note>
		ncaron
	</note>
	<outline>
		<contour>
			<point x="355" y="585"/>
			<point x="366" y="605" type="curve" smooth="yes"/>
			<point x="392" y="651" type="line" smooth="yes"/>
			<point x="394" y="655"/>
			<point x="396" y="661"/>
			<point x="396" y="666" type="curve" smooth="yes"/>
			<point x="396" y="683"/>
			<point x="382" y="697"/>
			<point x="365" y="697" type="curve" smooth="yes"/>
			<point x="353" y="697"/>
			<point x="342" y="691"/>
			<point x="337" y="680" type="curve" smooth="yes"/>
			<point x="310" y="626" type="line"/>
			<point x="294" y="659" type="line" smooth="yes"/>
			<point x="284" y="679"/>
			<point x="242" y="685"/>
			<point x="236" y="645" type="curve" smooth="yes"/>
			<point x="235" y="642"/>
			<point x="235" y="639"/>
			<point x="235" y="636" type="curve" smooth="yes"/>
			<point x="235" y="619"/>
			<point x="244" y="605"/>
			<point x="255" y="595" type="curve" smooth="yes"/>
			<point x="270" y="582"/>
			<point x="289" y="572"/>
			<point x="309" y="572" type="curve" smooth="yes"/>
			<point x="333" y="572"/>
		</contour>
		<contour>
			<point x="538" y="393" type="curve" smooth="yes"/>
			<point x="528" y="486"/>
			<point x="463" y="545"/>
			<point x="349" y="545" type="curve" smooth="yes"/>
			<point x="309" y="545"/>
			<point x="278" y="540"/>
			<point x="246" y="524" type="curve" smooth="yes"/>
			<point x="222" y="511"/>
			<point x="210" y="496"/>
			<point x="196" y="472" type="curve" smooth="yes"/>
			<point x="179" y="443" type="line"/>
			<point x="179" y="482" type="line" smooth="yes"/>
			<point x="179" y="512"/>
			<point x="154" y="537"/>
			<point x="124" y="537" type="curve" smooth="yes"/>
			<point x="94" y="537"/>
			<point x="69" y="512"/>
			<point x="69" y="482" type="curve" smooth="yes"/>
			<point x="69" y="50" type="line" smooth="yes"/>
			<point x="69" y="20"/>
			<point x="94" y="-6"/>
			<point x="124" y="-6" type="curve" smooth="yes"/>
			<point x="154" y="-6"/>
			<point x="179" y="20"/>
			<point x="179" y="50" type="curve" smooth="yes"/>
			<point x="179" y="238" type="line" smooth="yes"/>
			<point x="179" y="404"/>
			<point x="241" y="464"/>
			<point x="317" y="464" type="curve" smooth="yes"/>
			<point x="392" y="464"/>
			<point x="424" y="422"/>
			<point x="429" y="362" type="curve" smooth="yes"/>
			<point x="431" y="335"/>
			<point x="431" y="312"/>
			<point x="431" y="287" type="curve" smooth="yes"/>
			<point x="431" y="50" type="line" smooth="yes"/>
			<point x="431" y="20"/>
			<point x="456" y="-6"/>
			<point x="486" y="-6" type="curve" smooth="yes"/>
			<point x="516" y="-6"/>
			<point x="541" y="20"/>
			<point x="541" y="50" type="curve" smooth="yes"/>
			<point x="541" y="299" type="line" smooth="yes"/>
			<point x="541" y="342"/>
			<point x="540" y="366"/>
		</contour>
	</outline>
</glyph>
<glyph name="Ohungarumlaut" format="2">
	<advance width="750"/>
	<unicode hex="0150"/>
	<note>
		Ohungarumlaut
	</note>
	<outline>
		<contour>
			<point x="324" y="733"/>
			<point x="329" y="739" type="curve" smooth="yes"/>
			<point x="384" y="797" type="line" smooth="yes"/>
			<point x="388" y="802"/>
			<point x="392" y="808"/>
			<point x="392" y="816" type="curve" smooth="yes"/>
			<point x="392" y="833"/>
			<point x="376" y="845"/>
			<point x="360" y="843" type="curve" smooth="yes"/>
			<point x="317" y="837"/>
			<point x="282" y="802"/>
			<point x="280" y="759" type="curve" smooth="yes"/>
			<point x="280" y="743"/>
			<point x="292" y="731"/>
			<point x="308" y="731" type="curve" smooth="yes"/>
			<point x="317" y="731"/>
		</contour>
		<contour>
			<point x="426" y="783"/>
			<point x="426" y="781" type="curve" smooth="yes"/>
			<point x="430" y="744"/>
			<point x="472" y="750"/>
			<point x="498" y="778" type="curve" smooth="yes"/>
			<point x="506" y="786" type="line" smooth="yes"/>
			<point x="512" y="792"/>
			<point x="515" y="800"/>
			<point x="515" y="809" type="curve" smooth="yes"/>
			<point x="515" y="833"/>
			<point x="492" y="848"/>
			<point x="472" y="842" type="curve" smooth="yes"/>
			<point x="446" y="835"/>
			<point x="426" y="813"/>
			<point x="426" y="787" type="curve" smooth="yes"/>
			<point x="426" y="785"/>
		</contour>
		<contour>
			<point x="382" y="704" type="curve" smooth="yes"/>
			<point x="170" y="704"/>
			<point x="49" y="559"/>
			<point x="49" y="345" type="curve" smooth="yes"/>
			<point x="49" y="132"/>
			<point x="170" y="-14"/>
			<point x="382" y="-14" type="curve" smooth="yes"/>
			<point x="593" y="-14"/>
			<point x="714" y="132"/>
			<point x="714" y="345" type="curve" smooth="yes"/>
			<point x="714" y="559"/>
			<point x="593" y="704"/>
		</contour>
		<contour>
			<point x="382" y="70" type="curve" smooth="yes"/>
			<point x="247" y="70"/>
			<point x="167" y="174"/>
			<point x="167" y="345" type="curve" smooth="yes"/>
			<point x="167" y="517"/>
			<point x="247" y="620"/>
			<point x="382" y="620" type="curve" smooth="yes"/>
			<point x="516" y="620"/>
			<point x="596" y="517"/>
			<point x="596" y="345" type="curve" smooth="yes"/>
			<point x="596" y="174"/>
			<point x="516" y="70"/>
		</contour>
	</outline>
</glyph>
<glyph name="ohungarumlaut" format="2">
	<advance width="595"/>
	<unicode hex="0151"/>
	<note>
		ohungarumlaut
	</note>
	<outline>
		<contour>
			<point x="253" y="576"/>
			<point x="258" y="582" type="curve" smooth="yes"/>
			<point x="323" y="655" type="line" smooth="yes"/>
			<point x="327" y="659"/>
			<point x="329" y="665"/>
			<point x="329" y="672" type="curve" smooth="yes"/>
			<point x="329" y="687"/>
			<point x="315" y="699"/>
			<point x="300" y="697" type="curve" smooth="yes"/>
			<point x="253" y="691"/>
			<point x="212" y="654"/>
			<point x="208" y="608" type="curve"/>
			<point x="207" y="606"/>
			<point x="207" y="604"/>
			<point x="207" y="602" type="curve" smooth="yes"/>
			<point x="207" y="586"/>
			<point x="220" y="573"/>
			<point x="236" y="573" type="curve" smooth="yes"/>
			<point x="245" y="573"/>
		</contour>
		<contour>
			<point x="364" y="633"/>
			<point x="364" y="632" type="curve" smooth="yes"/>
			<point x="366" y="592"/>
			<point x="409" y="595"/>
			<point x="436" y="625" type="curve" smooth="yes"/>
			<point x="450" y="641" type="line" smooth="yes"/>
			<point x="455" y="647"/>
			<point x="458" y="655"/>
			<point x="458" y="664" type="curve" smooth="yes"/>
			<point x="458" y="686"/>
			<point x="437" y="702"/>
			<point x="416" y="697" type="curve" smooth="yes"/>
			<point x="387" y="689"/>
			<point x="364" y="664"/>
			<point x="364" y="635" type="curve" smooth="yes"/>
			<point x="364" y="634"/>
		</contour>
		<contour>
			<point x="298" y="545" type="curve" smooth="yes"/>
			<point x="119" y="545"/>
			<point x="29" y="421"/>
			<point x="29" y="266" type="curve" smooth="yes"/>
			<point x="29" y="111"/>
			<point x="119" y="-14"/>
			<point x="298" y="-14" type="curve" smooth="yes"/>
			<point x="476" y="-14"/>
			<point x="567" y="111"/>
			<point x="567" y="266" type="curve" smooth="yes"/>
			<point x="567" y="421"/>
			<point x="476" y="545"/>
		</contour>
		<contour>
			<point x="298" y="66" type="curve" smooth="yes"/>
			<point x="201" y="66"/>
			<point x="145" y="146"/>
			<point x="145" y="266" type="curve" smooth="yes"/>
			<point x="145" y="386"/>
			<point x="201" y="465"/>
			<point x="298" y="465" type="curve" smooth="yes"/>
			<point x="394" y="465"/>
			<point x="450" y="386"/>
			<point x="450" y="266" type="curve" smooth="yes"/>
			<point x="450" y="146"/>
			<point x="394" y="66"/>
		</contour>
	</outline>
</glyph>
<glyph name="uni0157" format="2">
	<advance width="353"/>
	<unicode hex="0157"/>
	<note>
		rcommaaccent
	</note>
	<outline>
		<contour>
			<point x="306" y="544" type="curve" smooth="yes"/>
			<point x="291" y="544"/>
			<point x="274" y="540"/>
			<point x="258" y="534" type="curve" smooth="yes"/>
			<point x="231" y="523"/>
			<point x="219" y="506"/>
			<point x="205" y="483" type="curve" smooth="yes"/>
			<point x="179" y="441" type="line"/>
			<point x="179" y="482" type="line" smooth="yes"/>
			<point x="179" y="512"/>
			<point x="154" y="537"/>
			<point x="124" y="537" type="curve" smooth="yes"/>
			<point x="94" y="537"/>
			<point x="69" y="512"/>
			<point x="69" y="482" type="curve" smooth="yes"/>
			<point x="69" y="50" type="line" smooth="yes"/>
			<point x="69" y="20"/>
			<point x="94" y="-6"/>
			<point x="124" y="-6" type="curve" smooth="yes"/>
			<point x="154" y="-6"/>
			<point x="179" y="20"/>
			<point x="179" y="50" type="curve" smooth="yes"/>
			<point x="179" y="276" type="line" smooth="yes"/>
			<point x="179" y="389"/>
			<point x="226" y="443"/>
			<point x="307" y="451" type="curve" smooth="yes"/>
			<point x="330" y="453"/>
			<point x="349" y="474"/>
			<point x="349" y="498" type="curve" smooth="yes"/>
			<point x="349" y="522"/>
			<point x="329" y="542"/>
		</contour>
		<contour>
			<point x="88" y="-52"/>
			<point x="80" y="-72" type="curve" smooth="yes"/>
			<point x="46" y="-160" type="line" smooth="yes"/>
			<point x="45" y="-164"/>
			<point x="43" y="-168"/>
			<point x="43" y="-172" type="curve" smooth="yes"/>
			<point x="43" y="-191"/>
			<point x="58" y="-205"/>
			<point x="77" y="-205" type="curve" smooth="yes"/>
			<point x="90" y="-205"/>
			<point x="101" y="-198"/>
			<point x="106" y="-187" type="curve" smooth="yes"/>
			<point x="148" y="-105" type="line" smooth="yes"/>
			<point x="164" y="-74"/>
			<point x="163" y="-36"/>
			<point x="128" y="-34" type="curve" smooth="yes"/>
			<point x="127" y="-34"/>
			<point x="125" y="-34"/>
			<point x="124" y="-34" type="curve" smooth="yes"/>
			<point x="100" y="-34"/>
		</contour>
	</outline>
</glyph>
<glyph name="Rcaron" format="2">
	<advance width="635"/>
	<unicode hex="0158"/>
	<note>
		Rcaron
	</note>
	<outline>
		<contour>
			<point x="285" y="736"/>
			<point x="313" y="736" type="curve" smooth="yes"/>
			<point x="336" y="736" type="line" smooth="yes"/>
			<point x="379" y="736"/>
			<point x="415" y="771"/>
			<point x="417" y="813" type="curve" smooth="yes"/>
			<point x="417" y="830"/>
			<point x="403" y="844"/>
			<point x="386" y="844" type="curve" smooth="yes"/>
			<point x="374" y="844"/>
			<point x="363" y="837"/>
			<point x="358" y="827" type="curve" smooth="yes"/>
			<point x="333" y="777" type="line"/>
			<point x="318" y="808" type="line" smooth="yes"/>
			<point x="308" y="828"/>
			<point x="267" y="833"/>
			<point x="261" y="794" type="curve" smooth="yes"/>
			<point x="261" y="792"/>
			<point x="261" y="789"/>
			<point x="261" y="787" type="curve" smooth="yes"/>
			<point x="261" y="758"/>
		</contour>
		<contour>
			<point x="570" y="178" type="curve" smooth="yes"/>
			<point x="563" y="250"/>
			<point x="537" y="310"/>
			<point x="475" y="337" type="curve"/>
			<point x="548" y="359"/>
			<point x="603" y="412"/>
			<point x="603" y="502" type="curve" smooth="yes"/>
			<point x="603" y="620"/>
			<point x="528" y="673"/>
			<point x="428" y="686" type="curve" smooth="yes"/>
			<point x="395" y="690"/>
			<point x="370" y="690"/>
			<point x="333" y="690" type="curve" smooth="yes"/>
			<point x="153" y="690" type="line" smooth="yes"/>
			<point x="116" y="690"/>
			<point x="95" y="669"/>
			<point x="95" y="632" type="curve" smooth="yes"/>
			<point x="95" y="50" type="line" smooth="yes"/>
			<point x="95" y="20"/>
			<point x="120" y="-6"/>
			<point x="150" y="-6" type="curve" smooth="yes"/>
			<point x="180" y="-6"/>
			<point x="205" y="20"/>
			<point x="205" y="50" type="curve" smooth="yes"/>
			<point x="205" y="288" type="line"/>
			<point x="312" y="288" type="line" smooth="yes"/>
			<point x="329" y="288"/>
			<point x="346" y="288"/>
			<point x="363" y="287" type="curve" smooth="yes"/>
			<point x="426" y="283"/>
			<point x="453" y="237"/>
			<point x="462" y="164" type="curve" smooth="yes"/>
			<point x="468" y="108"/>
			<point x="474" y="70"/>
			<point x="484" y="34" type="curve" smooth="yes"/>
			<point x="490" y="12"/>
			<point x="512" y="-6"/>
			<point x="536" y="-6" type="curve" smooth="yes"/>
			<point x="566" y="-6"/>
			<point x="590" y="19"/>
			<point x="590" y="48" type="curve" smooth="yes"/>
			<point x="590" y="53"/>
			<point x="589" y="59"/>
			<point x="588" y="63" type="curve" smooth="yes"/>
			<point x="580" y="94"/>
			<point x="574" y="131"/>
		</contour>
		<contour>
			<point x="320" y="373" type="curve" smooth="yes"/>
			<point x="205" y="373" type="line"/>
			<point x="205" y="603" type="line"/>
			<point x="327" y="603" type="line" smooth="yes"/>
			<point x="355" y="603"/>
			<point x="373" y="602"/>
			<point x="391" y="599" type="curve" smooth="yes"/>
			<point x="450" y="591"/>
			<point x="487" y="561"/>
			<point x="487" y="488" type="curve" smooth="yes"/>
			<point x="487" y="415"/>
			<point x="442" y="381"/>
			<point x="382" y="375" type="curve" smooth="yes"/>
			<point x="365" y="373"/>
			<point x="348" y="373"/>
		</contour>
	</outline>
</glyph>
<glyph name="rcaron" format="2">
	<advance width="353"/>
	<unicode hex="0159"/>
	<note>
		rcaron
	</note>
	<outline>
		<contour>
			<point x="109" y="650" type="curve" smooth="yes"/>
			<point x="128" y="618" type="line" smooth="yes"/>
			<point x="144" y="591"/>
			<point x="163" y="578"/>
			<point x="188" y="578" type="curve" smooth="yes"/>
			<point x="234" y="578"/>
			<point x="274" y="613"/>
			<point x="277" y="659" type="curve"/>
			<point x="278" y="661"/>
			<point x="278" y="664"/>
			<point x="278" y="666" type="curve" smooth="yes"/>
			<point x="278" y="684"/>
			<point x="264" y="698"/>
			<point x="247" y="698" type="curve" smooth="yes"/>
			<point x="235" y="698"/>
			<point x="224" y="691"/>
			<point x="219" y="680" type="curve" smooth="yes"/>
			<point x="192" y="626" type="line"/>
			<point x="165" y="680" type="line" smooth="yes"/>
			<point x="160" y="691"/>
			<point x="149" y="698"/>
			<point x="137" y="698" type="curve" smooth="yes"/>
			<point x="119" y="698"/>
			<point x="105" y="683"/>
			<point x="105" y="666" type="curve" smooth="yes"/>
			<point x="105" y="660"/>
			<point x="106" y="654"/>
		</contour>
		<contour>
			<point x="306" y="544" type="curve" smooth="yes"/>
			<point x="291" y="544"/>
			<point x="274" y="540"/>
			<point x="258" y="534" type="curve" smooth="yes"/>
			<point x="231" y="523"/>
			<point x="219" y="506"/>
			<point x="205" y="483" type="curve" smooth="yes"/>
			<point x="179" y="441" type="line"/>
			<point x="179" y="482" type="line" smooth="yes"/>
			<point x="179" y="512"/>
			<point x="154" y="537"/>
			<point x="124" y="537" type="curve" smooth="yes"/>
			<point x="94" y="537"/>
			<point x="69" y="512"/>
			<point x="69" y="482" type="curve" smooth="yes"/>
			<point x="69" y="50" type="line" smooth="yes"/>
			<point x="69" y="20"/>
			<point x="94" y="-6"/>
			<point x="124" y="-6" type="curve" smooth="yes"/>
			<point x="154" y="-6"/>
			<point x="179" y="20"/>
			<point x="179" y="50" type="curve" smooth="yes"/>
			<point x="179" y="276" type="line" smooth="yes"/>
			<point x="179" y="389"/>
			<point x="226" y="443"/>
			<point x="307" y="451" type="curve" smooth="yes"/>
			<point x="330" y="453"/>
			<point x="349" y="474"/>
			<point x="349" y="498" type="curve" smooth="yes"/>
			<point x="349" y="522"/>
			<point x="329" y="542"/>
		</contour>
	</outline>
</glyph>
<glyph name="uni0163" format="2">
	<advance width="335"/>
	<unicode hex="0163"/>
	<note>
		tcedilla
	</note>
	<outline>
		<contour>
			<point x="200" y="172" type="curve" smooth="yes"/>
			<point x="200" y="450" type="line"/>
			<point x="271" y="450" type="line" smooth="yes"/>
			<point x="292" y="450"/>
			<point x="310" y="467"/>
			<point x="310" y="489" type="curve" smooth="yes"/>
			<point x="310" y="510"/>
			<point x="292" y="527"/>
			<point x="271" y="527" type="curve" smooth="yes"/>
			<point x="200" y="527" type="line"/>
			<point x="200" y="605" type="line" smooth="yes"/>
			<point x="200" y="635"/>
			<point x="176" y="660"/>
			<point x="146" y="660" type="curve" smooth="yes"/>
			<point x="115" y="660"/>
			<point x="91" y="635"/>
			<point x="91" y="605" type="curve" smooth="yes"/>
			<point x="91" y="527" type="line"/>
			<point x="49" y="527" type="line" smooth="yes"/>
			<point x="28" y="527"/>
			<point x="11" y="510"/>
			<point x="11" y="489" type="curve" smooth="yes"/>
			<point x="11" y="467"/>
			<point x="28" y="450"/>
			<point x="49" y="450" type="curve" smooth="yes"/>
			<point x="91" y="450" type="line"/>
			<point x="91" y="162" type="line" smooth="yes"/>
			<point x="91" y="132"/>
			<point x="91" y="109"/>
			<point x="92" y="91" type="curve" smooth="yes"/>
			<point x="96" y="41"/>
			<point x="115" y="10"/>
			<point x="157" y="-3" type="curve"/>
			<point x="137" y="-42" type="line" smooth="yes"/>
			<point x="124" y="-67"/>
			<point x="143" y="-73"/>
			<point x="183" y="-85" type="curve" smooth="yes"/>
			<point x="203" y="-92"/>
			<point x="212" y="-104"/>
			<point x="212" y="-122" type="curve" smooth="yes"/>
			<point x="212" y="-146"/>
			<point x="192" y="-161"/>
			<point x="150" y="-161" type="curve" smooth="yes"/>
			<point x="140" y="-161"/>
			<point x="130" y="-160"/>
			<point x="119" y="-159" type="curve" smooth="yes"/>
			<point x="104" y="-156"/>
			<point x="90" y="-168"/>
			<point x="90" y="-183" type="curve" smooth="yes"/>
			<point x="90" y="-195"/>
			<point x="100" y="-205"/>
			<point x="111" y="-207" type="curve" smooth="yes"/>
			<point x="123" y="-209"/>
			<point x="135" y="-210"/>
			<point x="148" y="-210" type="curve" smooth="yes"/>
			<point x="226" y="-210"/>
			<point x="282" y="-181"/>
			<point x="282" y="-122" type="curve" smooth="yes"/>
			<point x="282" y="-76"/>
			<point x="253" y="-48"/>
			<point x="198" y="-41" type="curve"/>
			<point x="214" y="-10" type="line"/>
			<point x="216" y="-10" type="line" smooth="yes"/>
			<point x="233" y="-10"/>
			<point x="249" y="-9"/>
			<point x="267" y="-8" type="curve" smooth="yes"/>
			<point x="287" y="-6"/>
			<point x="303" y="11"/>
			<point x="303" y="31" type="curve" smooth="yes"/>
			<point x="303" y="53"/>
			<point x="285" y="70"/>
			<point x="264" y="70" type="curve" smooth="yes"/>
			<point x="218" y="71"/>
			<point x="204" y="86"/>
			<point x="201" y="128" type="curve" smooth="yes"/>
			<point x="200" y="142"/>
			<point x="200" y="154"/>
		</contour>
	</outline>
</glyph>
<glyph name="tcaron" format="2">
	<advance width="326"/>
	<unicode hex="0165"/>
	<note>
		tcaron
	</note>
	<outline>
		<contour>
			<point x="356" y="743" type="curve" smooth="yes"/>
			<point x="348" y="747"/>
			<point x="339" y="749"/>
			<point x="329" y="749" type="curve" smooth="yes"/>
			<point x="305" y="749"/>
			<point x="294" y="731"/>
			<point x="286" y="711" type="curve" smooth="yes"/>
			<point x="251" y="622" type="line"/>
			<point x="250" y="618"/>
			<point x="248" y="614"/>
			<point x="248" y="610" type="curve" smooth="yes"/>
			<point x="248" y="591"/>
			<point x="263" y="576"/>
			<point x="282" y="576" type="curve" smooth="yes"/>
			<point x="295" y="576"/>
			<point x="306" y="584"/>
			<point x="311" y="595" type="curve" smooth="yes"/>
			<point x="353" y="678" type="line" smooth="yes"/>
			<point x="368" y="709"/>
			<point x="372" y="734"/>
		</contour>
		<contour>
			<point x="271" y="527" type="curve" smooth="yes"/>
			<point x="200" y="527" type="line"/>
			<point x="200" y="605" type="line" smooth="yes"/>
			<point x="200" y="635"/>
			<point x="176" y="660"/>
			<point x="146" y="660" type="curve" smooth="yes"/>
			<point x="115" y="660"/>
			<point x="91" y="635"/>
			<point x="91" y="605" type="curve" smooth="yes"/>
			<point x="91" y="527" type="line"/>
			<point x="49" y="527" type="line" smooth="yes"/>
			<point x="28" y="527"/>
			<point x="11" y="510"/>
			<point x="11" y="489" type="curve" smooth="yes"/>
			<point x="11" y="467"/>
			<point x="28" y="450"/>
			<point x="49" y="450" type="curve" smooth="yes"/>
			<point x="91" y="450" type="line"/>
			<point x="91" y="162" type="line" smooth="yes"/>
			<point x="91" y="132"/>
			<point x="91" y="109"/>
			<point x="92" y="91" type="curve" smooth="yes"/>
			<point x="97" y="21"/>
			<point x="133" y="-10"/>
			<point x="216" y="-10" type="curve" smooth="yes"/>
			<point x="233" y="-10"/>
			<point x="249" y="-9"/>
			<point x="267" y="-8" type="curve" smooth="yes"/>
			<point x="287" y="-6"/>
			<point x="303" y="11"/>
			<point x="303" y="31" type="curve" smooth="yes"/>
			<point x="303" y="53"/>
			<point x="285" y="70"/>
			<point x="264" y="70" type="curve" smooth="yes"/>
			<point x="218" y="71"/>
			<point x="204" y="86"/>
			<point x="201" y="128" type="curve" smooth="yes"/>
			<point x="200" y="142"/>
			<point x="200" y="154"/>
			<point x="200" y="172" type="curve" smooth="yes"/>
			<point x="200" y="450" type="line"/>
			<point x="271" y="450" type="line" smooth="yes"/>
			<point x="292" y="450"/>
			<point x="310" y="467"/>
			<point x="310" y="489" type="curve" smooth="yes"/>
			<point x="310" y="510"/>
			<point x="292" y="527"/>
		</contour>
	</outline>
</glyph>
<glyph name="Uring" format="2">
	<advance width="691"/>
	<unicode hex="016E"/>
	<note>
		Uring
	</note>
	<outline>
		<contour>
			<point x="358" y="889" type="curve" smooth="yes"/>
			<point x="301" y="889"/>
			<point x="260" y="853"/>
			<point x="260" y="803" type="curve" smooth="yes"/>
			<point x="260" y="753"/>
			<point x="301" y="718"/>
			<point x="358" y="718" type="curve" smooth="yes"/>
			<point x="415" y="718"/>
			<point x="456" y="753"/>
			<point x="456" y="803" type="curve" smooth="yes"/>
			<point x="456" y="853"/>
			<point x="415" y="889"/>
		</contour>
		<contour>
			<point x="358" y="845" type="curve" smooth="yes"/>
			<point x="381" y="845"/>
			<point x="398" y="828"/>
			<point x="398" y="803" type="curve" smooth="yes"/>
			<point x="398" y="779"/>
			<point x="381" y="761"/>
			<point x="358" y="761" type="curve" smooth="yes"/>
			<point x="335" y="761"/>
			<point x="318" y="779"/>
			<point x="318" y="803" type="curve" smooth="yes"/>
			<point x="318" y="828"/>
			<point x="335" y="845"/>
		</contour>
		<contour>
			<point x="629" y="267" type="curve" smooth="yes"/>
			<point x="629" y="641" type="line" smooth="yes"/>
			<point x="629" y="671"/>
			<point x="605" y="696"/>
			<point x="575" y="696" type="curve" smooth="yes"/>
			<point x="544" y="696"/>
			<point x="520" y="671"/>
			<point x="520" y="641" type="curve" smooth="yes"/>
			<point x="520" y="265" type="line" smooth="yes"/>
			<point x="520" y="244"/>
			<point x="520" y="225"/>
			<point x="518" y="209" type="curve" smooth="yes"/>
			<point x="511" y="126"/>
			<point x="458" y="70"/>
			<point x="358" y="70" type="curve" smooth="yes"/>
			<point x="259" y="70"/>
			<point x="206" y="126"/>
			<point x="199" y="209" type="curve" smooth="yes"/>
			<point x="197" y="225"/>
			<point x="197" y="244"/>
			<point x="197" y="265" type="curve" smooth="yes"/>
			<point x="197" y="641" type="line" smooth="yes"/>
			<point x="197" y="671"/>
			<point x="173" y="696"/>
			<point x="143" y="696" type="curve" smooth="yes"/>
			<point x="112" y="696"/>
			<point x="88" y="671"/>
			<point x="88" y="641" type="curve" smooth="yes"/>
			<point x="88" y="267" type="line" smooth="yes"/>
			<point x="88" y="242"/>
			<point x="88" y="222"/>
			<point x="90" y="196" type="curve" smooth="yes"/>
			<point x="99" y="81"/>
			<point x="178" y="-14"/>
			<point x="358" y="-14" type="curve" smooth="yes"/>
			<point x="538" y="-14"/>
			<point x="617" y="81"/>
			<point x="627" y="196" type="curve" smooth="yes"/>
			<point x="629" y="222"/>
			<point x="629" y="242"/>
		</contour>
	</outline>
</glyph>
<glyph name="uogonek" format="2">
	<advance width="604"/>
	<unicode hex="0173"/>
	<note>
		uogonek
	</note>
	<outline>
		<contour>
			<point x="501" y="0" type="curve"/>
			<point x="521" y="0"/>
			<point x="532" y="21"/>
			<point x="532" y="58" type="curve" smooth="yes"/>
			<point x="532" y="482" type="line" smooth="yes"/>
			<point x="532" y="512"/>
			<point x="508" y="537"/>
			<point x="478" y="537" type="curve" smooth="yes"/>
			<point x="447" y="537"/>
			<point x="423" y="512"/>
			<point x="423" y="482" type="curve" smooth="yes"/>
			<point x="423" y="281" type="line" smooth="yes"/>
			<point x="423" y="127"/>
			<point x="365" y="68"/>
			<point x="288" y="68" type="curve" smooth="yes"/>
			<point x="220" y="68"/>
			<point x="182" y="106"/>
			<point x="174" y="164" type="curve" smooth="yes"/>
			<point x="171" y="191"/>
			<point x="170" y="220"/>
			<point x="170" y="237" type="curve" smooth="yes"/>
			<point x="170" y="482" type="line" smooth="yes"/>
			<point x="170" y="512"/>
			<point x="146" y="537"/>
			<point x="116" y="537" type="curve" smooth="yes"/>
			<point x="85" y="537"/>
			<point x="61" y="512"/>
			<point x="61" y="482" type="curve" smooth="yes"/>
			<point x="61" y="215" type="line" smooth="yes"/>
			<point x="61" y="172"/>
			<point x="62" y="148"/>
			<point x="66" y="121" type="curve" smooth="yes"/>
			<point x="78" y="48"/>
			<point x="142" y="-14"/>
			<point x="252" y="-14" type="curve" smooth="yes"/>
			<point x="291" y="-14"/>
			<point x="323" y="-9"/>
			<point x="354" y="6" type="curve" smooth="yes"/>
			<point x="378" y="18"/>
			<point x="391" y="34"/>
			<point x="404" y="58" type="curve" smooth="yes"/>
			<point x="423" y="91" type="line"/>
			<point x="423" y="10" type="line"/>
			<point x="368" y="-13"/>
			<point x="317" y="-66"/>
			<point x="317" y="-138" type="curve" smooth="yes"/>
			<point x="317" y="-201"/>
			<point x="357" y="-223"/>
			<point x="415" y="-223" type="curve" smooth="yes"/>
			<point x="450" y="-223"/>
			<point x="480" y="-215"/>
			<point x="508" y="-200" type="curve" smooth="yes"/>
			<point x="516" y="-195"/>
			<point x="522" y="-187"/>
			<point x="522" y="-177" type="curve" smooth="yes"/>
			<point x="522" y="-160"/>
			<point x="504" y="-148"/>
			<point x="488" y="-153" type="curve" smooth="yes"/>
			<point x="479" y="-156"/>
			<point x="471" y="-157"/>
			<point x="463" y="-157" type="curve" smooth="yes"/>
			<point x="436" y="-157"/>
			<point x="419" y="-144"/>
			<point x="419" y="-107" type="curve" smooth="yes"/>
			<point x="419" y="-50"/>
			<point x="457" y="-7"/>
		</contour>
	</outline>
</glyph>
<glyph name="Ydieresis" format="2">
	<advance width="602"/>
	<unicode hex="0178"/>
	<note>
		Ydieresis
	</note>
	<outline>
		<contour>
			<point x="371" y="49" type="curve" smooth="yes"/>
			<point x="371" y="270" type="line"/>
			<point x="572" y="617" type="line" smooth="yes"/>
			<point x="576" y="624"/>
			<point x="580" y="634"/>
			<point x="580" y="643" type="curve" smooth="yes"/>
			<point x="580" y="672"/>
			<point x="556" y="696"/>
			<point x="527" y="696" type="curve" smooth="yes"/>
			<point x="507" y="696"/>
			<point x="490" y="685"/>
			<point x="481" y="668" type="curve" smooth="yes"/>
			<point x="321" y="371" type="line"/>
			<point x="155" y="668" type="line" smooth="yes"/>
			<point x="146" y="685"/>
			<point x="129" y="696"/>
			<point x="108" y="696" type="curve" smooth="yes"/>
			<point x="79" y="696"/>
			<point x="54" y="671"/>
			<point x="54" y="642" type="curve" smooth="yes"/>
			<point x="54" y="632"/>
			<point x="58" y="623"/>
			<point x="62" y="615" type="curve" smooth="yes"/>
			<point x="262" y="270" type="line"/>
			<point x="262" y="49" type="line" smooth="yes"/>
			<point x="262" y="19"/>
			<point x="286" y="-6"/>
			<point x="317" y="-6" type="curve" smooth="yes"/>
			<point x="347" y="-6"/>
			<point x="371" y="19"/>
		</contour>
		<contour>
			<point x="202" y="733"/>
			<point x="231" y="733" type="curve" smooth="yes"/>
			<point x="245" y="733" type="line" smooth="yes"/>
			<point x="273" y="733"/>
			<point x="297" y="756"/>
			<point x="297" y="784" type="curve" smooth="yes"/>
			<point x="297" y="791"/>
			<point x="295" y="798"/>
			<point x="293" y="803" type="curve" smooth="yes"/>
			<point x="284" y="826"/>
			<point x="263" y="844"/>
			<point x="237" y="844" type="curve" smooth="yes"/>
			<point x="227" y="844"/>
			<point x="218" y="841"/>
			<point x="211" y="837" type="curve" smooth="yes"/>
			<point x="192" y="827"/>
			<point x="178" y="808"/>
			<point x="178" y="786" type="curve" smooth="yes"/>
			<point x="178" y="757"/>
		</contour>
		<contour>
			<point x="357" y="733"/>
			<point x="386" y="733" type="curve" smooth="yes"/>
			<point x="400" y="733" type="line" smooth="yes"/>
			<point x="428" y="733"/>
			<point x="451" y="756"/>
			<point x="451" y="784" type="curve" smooth="yes"/>
			<point x="451" y="790"/>
			<point x="450" y="796"/>
			<point x="448" y="802" type="curve" smooth="yes"/>
			<point x="439" y="826"/>
			<point x="418" y="845"/>
			<point x="392" y="845" type="curve" smooth="yes"/>
			<point x="382" y="845"/>
			<point x="373" y="841"/>
			<point x="366" y="837" type="curve" smooth="yes"/>
			<point x="347" y="827"/>
			<point x="333" y="808"/>
			<point x="333" y="786" type="curve" smooth="yes"/>
			<point x="333" y="757"/>
		</contour>
	</outline>
</glyph>
<glyph name="Zdotaccent" format="2">
	<advance width="605"/>
	<unicode hex="017B"/>
	<note>
		Zdotaccent
	</note>
	<outline>
		<contour>
			<point x="315" y="734" type="curve" smooth="yes"/>
			<point x="348" y="734"/>
			<point x="373" y="758"/>
			<point x="373" y="791" type="curve" smooth="yes"/>
			<point x="373" y="823"/>
			<point x="348" y="847"/>
			<point x="315" y="847" type="curve" smooth="yes"/>
			<point x="282" y="847"/>
			<point x="257" y="823"/>
			<point x="257" y="791" type="curve" smooth="yes"/>
			<point x="257" y="758"/>
			<point x="282" y="734"/>
		</contour>
		<contour>
			<point x="567" y="88"/>
			<point x="543" y="88" type="curve" smooth="yes"/>
			<point x="179" y="88" type="line"/>
			<point x="569" y="595" type="line" smooth="yes"/>
			<point x="576" y="605"/>
			<point x="581" y="618"/>
			<point x="581" y="631" type="curve" smooth="yes"/>
			<point x="581" y="664"/>
			<point x="555" y="690"/>
			<point x="523" y="690" type="curve" smooth="yes"/>
			<point x="114" y="690" type="line" smooth="yes"/>
			<point x="90" y="690"/>
			<point x="71" y="671"/>
			<point x="71" y="647" type="curve" smooth="yes"/>
			<point x="71" y="622"/>
			<point x="90" y="603"/>
			<point x="114" y="603" type="curve" smooth="yes"/>
			<point x="448" y="603" type="line"/>
			<point x="54" y="92" type="line" smooth="yes"/>
			<point x="47" y="82"/>
			<point x="42" y="71"/>
			<point x="42" y="57" type="curve" smooth="yes"/>
			<point x="42" y="26"/>
			<point x="69" y="0"/>
			<point x="100" y="0" type="curve" smooth="yes"/>
			<point x="543" y="0" type="line" smooth="yes"/>
			<point x="567" y="0"/>
			<point x="587" y="20"/>
			<point x="587" y="44" type="curve" smooth="yes"/>
			<point x="587" y="68"/>
		</contour>
	</outline>
</glyph>
<glyph name="uni021A" format="2">
	<advance width="617"/>
	<unicode hex="021A"/>
	<note>
		uni021A
	</note>
	<outline>
		<contour>
			<point x="379" y="603" type="line"/>
			<point x="582" y="603" type="line" smooth="yes"/>
			<point x="606" y="603"/>
			<point x="626" y="622"/>
			<point x="626" y="647" type="curve" smooth="yes"/>
			<point x="626" y="671"/>
			<point x="606" y="690"/>
			<point x="582" y="690" type="curve" smooth="yes"/>
			<point x="67" y="690" type="line" smooth="yes"/>
			<point x="43" y="690"/>
			<point x="24" y="671"/>
			<point x="24" y="647" type="curve" smooth="yes"/>
			<point x="24" y="622"/>
			<point x="43" y="603"/>
			<point x="67" y="603" type="curve" smooth="yes"/>
			<point x="270" y="603" type="line"/>
			<point x="270" y="49" type="line" smooth="yes"/>
			<point x="270" y="19"/>
			<point x="294" y="-6"/>
			<point x="325" y="-6" type="curve" smooth="yes"/>
			<point x="355" y="-6"/>
			<point x="379" y="19"/>
			<point x="379" y="49" type="curve" smooth="yes"/>
		</contour>
		<contour>
			<point x="293" y="-52"/>
			<point x="285" y="-72" type="curve" smooth="yes"/>
			<point x="251" y="-160" type="line" smooth="yes"/>
			<point x="250" y="-164"/>
			<point x="248" y="-168"/>
			<point x="248" y="-172" type="curve" smooth="yes"/>
			<point x="248" y="-191"/>
			<point x="263" y="-205"/>
			<point x="282" y="-205" type="curve" smooth="yes"/>
			<point x="295" y="-205"/>
			<point x="306" y="-198"/>
			<point x="311" y="-187" type="curve" smooth="yes"/>
			<point x="353" y="-105" type="line" smooth="yes"/>
			<point x="369" y="-74"/>
			<point x="368" y="-36"/>
			<point x="333" y="-34" type="curve" smooth="yes"/>
			<point x="332" y="-34"/>
			<point x="330" y="-34"/>
			<point x="329" y="-34" type="curve" smooth="yes"/>
			<point x="305" y="-34"/>
		</contour>
	</outline>
</glyph>
<glyph name="dotaccent" format="2">
	<advance width="300"/>
	<unicode hex="02D9"/>
	<note>
		dotaccent
	</note>
	<outline>
		<contour>
			<point x="101" y="603"/>
			<point x="125" y="591" type="curve" smooth="yes"/>
			<point x="133" y="587"/>
			<point x="143" y="585"/>
			<point x="152" y="585" type="curve" smooth="yes"/>
			<point x="187" y="585"/>
			<point x="215" y="613"/>
			<point x="215" y="647" type="curve" smooth="yes"/>
			<point x="215" y="659" type="line" smooth="yes"/>
			<point x="215" y="693"/>
			<point x="187" y="722"/>
			<point x="152" y="722" type="curve" smooth="yes"/>
			<point x="142" y="722"/>
			<point x="133" y="719"/>
			<point x="125" y="715" type="curve" smooth="yes"/>
			<point x="101" y="703"/>
			<point x="84" y="680"/>
			<point x="84" y="653" type="curve" smooth="yes"/>
			<point x="84" y="626"/>
		</contour>
	</outline>
</glyph>
<glyph name="ogonek" format="2">
	<advance width="300"/>
	<unicode hex="02DB"/>
	<note>
		ogonek
	</note>
	<outline>
		<contour>
			<point x="146" y="13"/>
			<point x="143" y="11" type="curve" smooth="yes"/>
			<point x="90" y="-18"/>
			<point x="44" y="-69"/>
			<point x="44" y="-138" type="curve" smooth="yes"/>
			<point x="44" y="-201"/>
			<point x="84" y="-223"/>
			<point x="142" y="-223" type="curve" smooth="yes"/>
			<point x="177" y="-223"/>
			<point x="207" y="-215"/>
			<point x="235" y="-200" type="curve" smooth="yes"/>
			<point x="243" y="-195"/>
			<point x="249" y="-187"/>
			<point x="249" y="-177" type="curve" smooth="yes"/>
			<point x="249" y="-160"/>
			<point x="231" y="-148"/>
			<point x="215" y="-153" type="curve" smooth="yes"/>
			<point x="206" y="-156"/>
			<point x="198" y="-157"/>
			<point x="190" y="-157" type="curve" smooth="yes"/>
			<point x="163" y="-157"/>
			<point x="146" y="-144"/>
			<point x="146" y="-107" type="curve" smooth="yes"/>
			<point x="146" y="-76"/>
			<point x="158" y="-48"/>
			<point x="175" y="-28" type="curve" smooth="yes"/>
			<point x="179" y="-24"/>
			<point x="182" y="-17"/>
			<point x="182" y="-11" type="curve" smooth="yes"/>
			<point x="182" y="4"/>
			<point x="170" y="16"/>
			<point x="155" y="16" type="curve" smooth="yes"/>
			<point x="151" y="16"/>
		</contour>
	</outline>
</glyph>
<glyph name="Wdieresis" format="2">
	<advance width="968"/>
	<unicode hex="1E84"/>
	<note>
		Wdieresis
	</note>
	<outline>
		<contour>
			<point x="791" y="49" type="curve" smooth="yes"/>
			<point x="949" y="627" type="line" smooth="yes"/>
			<point x="950" y="631"/>
			<point x="951" y="636"/>
			<point x="951" y="641" type="curve" smooth="yes"/>
			<point x="951" y="671"/>
			<point x="926" y="696"/>
			<point x="896" y="696" type="curve" smooth="yes"/>
			<point x="871" y="696"/>
			<point x="849" y="677"/>
			<point x="844" y="653" type="curve" smooth="yes"/>
			<point x="712" y="88" type="line"/>
			<point x="585" y="629" type="line" smooth="yes"/>
			<point x="577" y="663"/>
			<point x="555" y="680"/>
			<point x="521" y="680" type="curve" smooth="yes"/>
			<point x="474" y="680" type="line" smooth="yes"/>
			<point x="440" y="680"/>
			<point x="418" y="663"/>
			<point x="410" y="630" type="curve" smooth="yes"/>
			<point x="279" y="91" type="line"/>
			<point x="156" y="650" type="line" smooth="yes"/>
			<point x="150" y="676"/>
			<point x="127" y="695"/>
			<point x="99" y="695" type="curve" smooth="yes"/>
			<point x="67" y="695"/>
			<point x="41" y="670"/>
			<point x="41" y="638" type="curve" smooth="yes"/>
			<point x="41" y="633"/>
			<point x="42" y="627"/>
			<point x="43" y="623" type="curve" smooth="yes"/>
			<point x="191" y="50" type="line" smooth="yes"/>
			<point x="200" y="17"/>
			<point x="221" y="0"/>
			<point x="255" y="0" type="curve" smooth="yes"/>
			<point x="298" y="0" type="line" smooth="yes"/>
			<point x="332" y="0"/>
			<point x="354" y="17"/>
			<point x="362" y="50" type="curve" smooth="yes"/>
			<point x="495" y="588" type="line"/>
			<point x="621" y="51" type="line" smooth="yes"/>
			<point x="629" y="17"/>
			<point x="651" y="0"/>
			<point x="685" y="0" type="curve" smooth="yes"/>
			<point x="727" y="0" type="line" smooth="yes"/>
			<point x="761" y="0"/>
			<point x="782" y="15"/>
		</contour>
		<contour>
			<point x="385" y="733"/>
			<point x="414" y="733" type="curve" smooth="yes"/>
			<point x="428" y="733" type="line" smooth="yes"/>
			<point x="456" y="733"/>
			<point x="480" y="756"/>
			<point x="480" y="784" type="curve" smooth="yes"/>
			<point x="480" y="791"/>
			<point x="478" y="798"/>
			<point x="476" y="803" type="curve" smooth="yes"/>
			<point x="467" y="826"/>
			<point x="446" y="844"/>
			<point x="420" y="844" type="curve" smooth="yes"/>
			<point x="410" y="844"/>
			<point x="401" y="841"/>
			<point x="394" y="837" type="curve" smooth="yes"/>
			<point x="375" y="827"/>
			<point x="361" y="808"/>
			<point x="361" y="786" type="curve" smooth="yes"/>
			<point x="361" y="757"/>
		</contour>
		<contour>
			<point x="540" y="733"/>
			<point x="569" y="733" type="curve" smooth="yes"/>
			<point x="583" y="733" type="line" smooth="yes"/>
			<point x="611" y="733"/>
			<point x="635" y="756"/>
			<point x="635" y="784" type="curve" smooth="yes"/>
			<point x="635" y="791"/>
			<point x="633" y="798"/>
			<point x="631" y="803" type="curve" smooth="yes"/>
			<point x="622" y="826"/>
			<point x="601" y="844"/>
			<point x="575" y="844" type="curve" smooth="yes"/>
			<point x="565" y="844"/>
			<point x="556" y="841"/>
			<point x="549" y="837" type="curve" smooth="yes"/>
			<point x="530" y="827"/>
			<point x="516" y="808"/>
			<point x="516" y="786" type="curve" smooth="yes"/>
			<point x="516" y="757"/>
		</contour>
	</outline>
</glyph>
<glyph name="quotedblright" format="2">
	<advance width="453"/>
	<unicode hex="201D"/>
	<note>
		quotedblright
	</note>
	<outline>
		<contour>
			<point x="122" y="497" type="curve" smooth="yes"/>
			<point x="193" y="679" type="line" smooth="yes"/>
			<point x="205" y="711"/>
			<point x="203" y="743"/>
			<point x="171" y="753" type="curve" smooth="yes"/>
			<point x="164" y="755"/>
			<point x="156" y="756"/>
			<point x="148" y="756" type="curve" smooth="yes"/>
			<point x="112" y="756"/>
			<point x="97" y="727"/>
			<point x="87" y="695" type="curve" smooth="yes"/>
			<point x="37" y="527" type="line" smooth="yes"/>
			<point x="36" y="523"/>
			<point x="35" y="518"/>
			<point x="35" y="514" type="curve" smooth="yes"/>
			<point x="35" y="489"/>
			<point x="55" y="469"/>
			<point x="80" y="469" type="curve" smooth="yes"/>
			<point x="99" y="469"/>
			<point x="116" y="481"/>
		</contour>
		<contour>
			<point x="310" y="498" type="curve" smooth="yes"/>
			<point x="380" y="679" type="line" smooth="yes"/>
			<point x="392" y="711"/>
			<point x="390" y="743"/>
			<point x="358" y="753" type="curve" smooth="yes"/>
			<point x="351" y="755"/>
			<point x="343" y="756"/>
			<point x="335" y="756" type="curve" smooth="yes"/>
			<point x="300" y="756"/>
			<point x="285" y="729"/>
			<point x="275" y="696" type="curve" smooth="yes"/>
			<point x="224" y="527" type="line" smooth="yes"/>
			<point x="223" y="522"/>
			<point x="222" y="519"/>
			<point x="222" y="514" type="curve" smooth="yes"/>
			<point x="222" y="489"/>
			<point x="243" y="468"/>
			<point x="268" y="468" type="curve" smooth="yes"/>
			<point x="287" y="468"/>
			<point x="304" y="481"/>
		</contour>
	</outline>
</glyph>
<glyph name="quotedblbase" format="2">
	<advance width="419"/>
	<unicode hex="201E"/>
	<note>
		quotedblbase
	</note>
	<outline>
		<contour>
			<point x="76" y="-98" type="curve" smooth="yes"/>
			<point x="141" y="62" type="line" smooth="yes"/>
			<point x="154" y="94"/>
			<point x="152" y="126"/>
			<point x="120" y="136" type="curve" smooth="yes"/>
			<point x="113" y="139"/>
			<point x="105" y="140"/>
			<point x="97" y="140" type="curve" smooth="yes"/>
			<point x="61" y="140"/>
			<point x="46" y="111"/>
			<point x="36" y="80" type="curve" smooth="yes"/>
			<point x="-12" y="-65" type="line" smooth="yes"/>
			<point x="-13" y="-69"/>
			<point x="-14" y="-75"/>
			<point x="-14" y="-80" type="curve" smooth="yes"/>
			<point x="-14" y="-106"/>
			<point x="7" y="-127"/>
			<point x="33" y="-127" type="curve" smooth="yes"/>
			<point x="52" y="-127"/>
			<point x="69" y="-115"/>
		</contour>
		<contour>
			<point x="263" y="-98" type="curve" smooth="yes"/>
			<point x="329" y="62" type="line" smooth="yes"/>
			<point x="342" y="94"/>
			<point x="340" y="126"/>
			<point x="308" y="136" type="curve" smooth="yes"/>
			<point x="300" y="139"/>
			<point x="292" y="140"/>
			<point x="284" y="140" type="curve" smooth="yes"/>
			<point x="249" y="140"/>
			<point x="233" y="111"/>
			<point x="223" y="79" type="curve" smooth="yes"/>
			<point x="176" y="-66" type="line"/>
			<point x="175" y="-71"/>
			<point x="174" y="-75"/>
			<point x="174" y="-80" type="curve" smooth="yes"/>
			<point x="174" y="-106"/>
			<point x="194" y="-127"/>
			<point x="220" y="-127" type="curve" smooth="yes"/>
			<point x="239" y="-127"/>
			<point x="256" y="-114"/>
		</contour>
	</outline>
</glyph>
<glyph name="bullet" format="2">
	<advance width="371"/>
	<unicode hex="2022"/>
	<note>
		bullet
	</note>
	<outline>
		<contour>
			<point x="186" y="416" type="curve" smooth="yes"/>
			<point x="122" y="416"/>
			<point x="75" y="369"/>
			<point x="75" y="305" type="curve" smooth="yes"/>
			<point x="75" y="241"/>
			<point x="122" y="195"/>
			<point x="186" y="195" type="curve" smooth="yes"/>
			<point x="249" y="195"/>
			<point x="296" y="241"/>
			<point x="296" y="305" type="curve" smooth="yes"/>
			<point x="296" y="369"/>
			<point x="249" y="416"/>
		</contour>
	</outline>
</glyph>
<glyph name="ellipsis" format="2">
	<advance width="672"/>
	<unicode hex="2026"/>
	<note>
		ellipsis
	</note>
	<outline>
		<contour>
			<point x="66" y="-14"/>
			<point x="106" y="-14" type="curve" smooth="yes"/>
			<point x="118" y="-14" type="line" smooth="yes"/>
			<point x="158" y="-14"/>
			<point x="191" y="19"/>
			<point x="191" y="59" type="curve" smooth="yes"/>
			<point x="191" y="99"/>
			<point x="158" y="132"/>
			<point x="118" y="132" type="curve" smooth="yes"/>
			<point x="106" y="132" type="line" smooth="yes"/>
			<point x="66" y="132"/>
			<point x="33" y="99"/>
			<point x="33" y="59" type="curve" smooth="yes"/>
			<point x="33" y="19"/>
		</contour>
		<contour>
			<point x="286" y="-14"/>
			<point x="326" y="-14" type="curve" smooth="yes"/>
			<point x="338" y="-14" type="line" smooth="yes"/>
			<point x="378" y="-14"/>
			<point x="411" y="19"/>
			<point x="411" y="59" type="curve" smooth="yes"/>
			<point x="411" y="99"/>
			<point x="378" y="132"/>
			<point x="338" y="132" type="curve" smooth="yes"/>
			<point x="326" y="132" type="line" smooth="yes"/>
			<point x="286" y="132"/>
			<point x="253" y="99"/>
			<point x="253" y="59" type="curve" smooth="yes"/>
			<point x="253" y="19"/>
		</contour>
		<contour>
			<point x="506" y="-14"/>
			<point x="546" y="-14" type="curve" smooth="yes"/>
			<point x="558" y="-14" type="line" smooth="yes"/>
			<point x="598" y="-14"/>
			<point x="631" y="19"/>
			<point x="631" y="59" type="curve" smooth="yes"/>
			<point x="631" y="99"/>
			<point x="598" y="132"/>
			<point x="558" y="132" type="curve" smooth="yes"/>
			<point x="546" y="132" type="line" smooth="yes"/>
			<point x="506" y="132"/>
			<point x="473" y="99"/>
			<point x="473" y="59" type="curve" smooth="yes"/>
			<point x="473" y="19"/>
		</contour>
	</outline>
</glyph>
<glyph name="Euro" format="2">
	<advance width="601"/>
	<unicode hex="20AC"/>
	<note>
		Euro
	</note>
	<outline>
		<contour>
			<point x="225" y="251" type="curve"/>
			<point x="450" y="251" type="line" smooth="yes"/>
			<point x="468" y="251"/>
			<point x="483" y="266"/>
			<point x="483" y="284" type="curve" smooth="yes"/>
			<point x="483" y="302"/>
			<point x="468" y="317"/>
			<point x="450" y="317" type="curve" smooth="yes"/>
			<point x="219" y="317" type="line"/>
			<point x="219" y="346" type="line"/>
			<point x="219" y="370" type="line"/>
			<point x="471" y="370" type="line" smooth="yes"/>
			<point x="489" y="370"/>
			<point x="504" y="385"/>
			<point x="504" y="403" type="curve" smooth="yes"/>
			<point x="504" y="421"/>
			<point x="489" y="436"/>
			<point x="471" y="436" type="curve" smooth="yes"/>
			<point x="225" y="436" type="line"/>
			<point x="246" y="569"/>
			<point x="315" y="620"/>
			<point x="407" y="620" type="curve" smooth="yes"/>
			<point x="442" y="620"/>
			<point x="475" y="612"/>
			<point x="504" y="594" type="curve" smooth="yes"/>
			<point x="510" y="590"/>
			<point x="518" y="588"/>
			<point x="527" y="588" type="curve" smooth="yes"/>
			<point x="550" y="588"/>
			<point x="570" y="607"/>
			<point x="570" y="631" type="curve" smooth="yes"/>
			<point x="570" y="646"/>
			<point x="561" y="660"/>
			<point x="550" y="667" type="curve" smooth="yes"/>
			<point x="513" y="691"/>
			<point x="466" y="704"/>
			<point x="406" y="704" type="curve" smooth="yes"/>
			<point x="252" y="704"/>
			<point x="136" y="620"/>
			<point x="107" y="436" type="curve"/>
			<point x="88" y="436" type="line" smooth="yes"/>
			<point x="70" y="436"/>
			<point x="55" y="421"/>
			<point x="55" y="403" type="curve" smooth="yes"/>
			<point x="55" y="385"/>
			<point x="70" y="370"/>
			<point x="88" y="370" type="curve" smooth="yes"/>
			<point x="101" y="370" type="line"/>
			<point x="100" y="361"/>
			<point x="100" y="352"/>
			<point x="100" y="342" type="curve" smooth="yes"/>
			<point x="100" y="317" type="line"/>
			<point x="66" y="317" type="line" smooth="yes"/>
			<point x="48" y="317"/>
			<point x="33" y="302"/>
			<point x="33" y="284" type="curve" smooth="yes"/>
			<point x="33" y="266"/>
			<point x="48" y="251"/>
			<point x="66" y="251" type="curve" smooth="yes"/>
			<point x="105" y="251" type="line"/>
			<point x="128" y="54"/>
			<point x="233" y="-14"/>
			<point x="391" y="-14" type="curve" smooth="yes"/>
			<point x="446" y="-14"/>
			<point x="490" y="-7"/>
			<point x="535" y="13" type="curve" smooth="yes"/>
			<point x="549" y="19"/>
			<point x="559" y="33"/>
			<point x="559" y="49" type="curve" smooth="yes"/>
			<point x="559" y="70"/>
			<point x="541" y="88"/>
			<point x="519" y="88" type="curve" smooth="yes"/>
			<point x="515" y="88"/>
			<point x="510" y="88"/>
			<point x="506" y="86" type="curve" smooth="yes"/>
			<point x="475" y="75"/>
			<point x="443" y="70"/>
			<point x="406" y="70" type="curve" smooth="yes"/>
			<point x="308" y="70"/>
			<point x="244" y="120"/>
		</contour>
	</outline>
</glyph>
<glyph name="product" format="2">
	<advance width="601"/>
	<unicode hex="220F"/>
	<note>
		product
	</note>
	<outline>
		<contour>
			<point x="508" y="603" type="line"/>
			<point x="530" y="603" type="line" smooth="yes"/>
			<point x="554" y="603"/>
			<point x="574" y="622"/>
			<point x="574" y="647" type="curve" smooth="yes"/>
			<point x="574" y="671"/>
			<point x="554" y="690"/>
			<point x="530" y="690" type="curve" smooth="yes"/>
			<point x="71" y="690" type="line" smooth="yes"/>
			<point x="47" y="690"/>
			<point x="28" y="671"/>
			<point x="28" y="647" type="curve" smooth="yes"/>
			<point x="28" y="622"/>
			<point x="47" y="603"/>
			<point x="71" y="603" type="curve" smooth="yes"/>
			<point x="93" y="603" type="line"/>
			<point x="93" y="-61" type="line" smooth="yes"/>
			<point x="93" y="-91"/>
			<point x="117" y="-116"/>
			<point x="148" y="-116" type="curve" smooth="yes"/>
			<point x="178" y="-116"/>
			<point x="202" y="-91"/>
			<point x="202" y="-61" type="curve" smooth="yes"/>
			<point x="202" y="603" type="line"/>
			<point x="399" y="603" type="line"/>
			<point x="399" y="-61" type="line" smooth="yes"/>
			<point x="399" y="-91"/>
			<point x="423" y="-116"/>
			<point x="454" y="-116" type="curve" smooth="yes"/>
			<point x="484" y="-116"/>
			<point x="508" y="-91"/>
			<point x="508" y="-61" type="curve" smooth="yes"/>
		</contour>
	</outline>
</glyph>
<glyph name="summation" format="2">
	<advance width="601"/>
	<unicode hex="2211"/>
	<note>
		summation
	</note>
	<outline>
		<contour>
			<point x="541" y="-23"/>
			<point x="517" y="-23" type="curve" smooth="yes"/>
			<point x="178" y="-23" type="line"/>
			<point x="410" y="260" type="line" smooth="yes"/>
			<point x="432" y="287"/>
			<point x="432" y="313"/>
			<point x="411" y="341" type="curve" smooth="yes"/>
			<point x="209" y="603" type="line"/>
			<point x="511" y="603" type="line" smooth="yes"/>
			<point x="535" y="603"/>
			<point x="555" y="622"/>
			<point x="555" y="647" type="curve" smooth="yes"/>
			<point x="555" y="671"/>
			<point x="535" y="690"/>
			<point x="511" y="690" type="curve" smooth="yes"/>
			<point x="126" y="690" type="line" smooth="yes"/>
			<point x="97" y="690"/>
			<point x="72" y="666"/>
			<point x="72" y="636" type="curve" smooth="yes"/>
			<point x="72" y="624"/>
			<point x="77" y="613"/>
			<point x="84" y="604" type="curve" smooth="yes"/>
			<point x="316" y="301" type="line"/>
			<point x="54" y="-23" type="line" smooth="yes"/>
			<point x="47" y="-32"/>
			<point x="42" y="-44"/>
			<point x="42" y="-57" type="curve" smooth="yes"/>
			<point x="42" y="-86"/>
			<point x="67" y="-110"/>
			<point x="96" y="-110" type="curve" smooth="yes"/>
			<point x="517" y="-110" type="line" smooth="yes"/>
			<point x="541" y="-110"/>
			<point x="561" y="-91"/>
			<point x="561" y="-67" type="curve" smooth="yes"/>
			<point x="561" y="-42"/>
		</contour>
	</outline>
</glyph>
<glyph name="minus" format="2">
	<advance width="601"/>
	<unicode hex="2212"/>
	<note>
		minus
	</note>
	<outline>
		<contour>
			<point x="115" y="286" type="curve" smooth="yes"/>
			<point x="487" y="286" type="line" smooth="yes"/>
			<point x="505" y="286"/>
			<point x="520" y="301"/>
			<point x="520" y="319" type="curve" smooth="yes"/>
			<point x="520" y="337"/>
			<point x="505" y="352"/>
			<point x="487" y="352" type="curve" smooth="yes"/>
			<point x="115" y="352" type="line" smooth="yes"/>
			<point x="97" y="352"/>
			<point x="82" y="337"/>
			<point x="82" y="319" type="curve" smooth="yes"/>
			<point x="82" y="301"/>
			<point x="97" y="286"/>
		</contour>
	</outline>
</glyph>
<glyph name="lessequal" format="2">
	<advance width="601"/>
	<unicode hex="2264"/>
	<note>
		lessequal
	</note>
	<outline>
		<contour>
			<point x="170" y="310" type="line"/>
			<point x="504" y="429" type="line" smooth="yes"/>
			<point x="518" y="434"/>
			<point x="528" y="448"/>
			<point x="528" y="464" type="curve" smooth="yes"/>
			<point x="528" y="484"/>
			<point x="512" y="501"/>
			<point x="492" y="501" type="curve" smooth="yes"/>
			<point x="487" y="501"/>
			<point x="483" y="499"/>
			<point x="479" y="498" type="curve" smooth="yes"/>
			<point x="130" y="366" type="line" smooth="yes"/>
			<point x="108" y="357"/>
			<point x="93" y="337"/>
			<point x="93" y="311" type="curve" smooth="yes"/>
			<point x="93" y="286"/>
			<point x="108" y="266"/>
			<point x="130" y="257" type="curve" smooth="yes"/>
			<point x="479" y="124" type="line" smooth="yes"/>
			<point x="483" y="123"/>
			<point x="487" y="121"/>
			<point x="492" y="121" type="curve" smooth="yes"/>
			<point x="512" y="121"/>
			<point x="529" y="138"/>
			<point x="529" y="158" type="curve" smooth="yes"/>
			<point x="529" y="174"/>
			<point x="518" y="188"/>
			<point x="504" y="193" type="curve" smooth="yes"/>
		</contour>
		<contour>
			<point x="496" y="66" type="curve" smooth="yes"/>
			<point x="126" y="66" type="line" smooth="yes"/>
			<point x="108" y="66"/>
			<point x="93" y="51"/>
			<point x="93" y="33" type="curve" smooth="yes"/>
			<point x="93" y="15"/>
			<point x="108" y="0"/>
			<point x="126" y="0" type="curve" smooth="yes"/>
			<point x="496" y="0" type="line" smooth="yes"/>
			<point x="514" y="0"/>
			<point x="529" y="15"/>
			<point x="529" y="33" type="curve" smooth="yes"/>
			<point x="529" y="51"/>
			<point x="514" y="66"/>
		</contour>
	</outline>
</glyph>
<glyph name="fl" format="2">
	<advance width="551"/>
	<unicode hex="FB02"/>
	<note>
		fl
	</note>
	<outline>
		<contour>
			<point x="465" y="112" type="curve" smooth="yes"/>
			<point x="464" y="128"/>
			<point x="464" y="144"/>
			<point x="464" y="162" type="curve" smooth="yes"/>
			<point x="464" y="681" type="line" smooth="yes"/>
			<point x="464" y="715"/>
			<point x="449" y="738"/>
			<point x="415" y="745" type="curve" smooth="yes"/>
			<point x="380" y="751"/>
			<point x="339" y="754"/>
			<point x="291" y="754" type="curve" smooth="yes"/>
			<point x="148" y="754"/>
			<point x="80" y="696"/>
			<point x="70" y="599" type="curve" smooth="yes"/>
			<point x="68" y="581"/>
			<point x="68" y="558"/>
			<point x="68" y="539" type="curve" smooth="yes"/>
			<point x="68" y="527" type="line"/>
			<point x="54" y="527" type="line" smooth="yes"/>
			<point x="33" y="527"/>
			<point x="16" y="510"/>
			<point x="16" y="489" type="curve" smooth="yes"/>
			<point x="16" y="467"/>
			<point x="33" y="450"/>
			<point x="54" y="450" type="curve" smooth="yes"/>
			<point x="68" y="450" type="line"/>
			<point x="68" y="49" type="line" smooth="yes"/>
			<point x="68" y="19"/>
			<point x="92" y="-6"/>
			<point x="123" y="-6" type="curve" smooth="yes"/>
			<point x="153" y="-6"/>
			<point x="177" y="19"/>
			<point x="177" y="49" type="curve" smooth="yes"/>
			<point x="177" y="450" type="line"/>
			<point x="253" y="450" type="line" smooth="yes"/>
			<point x="274" y="450"/>
			<point x="292" y="467"/>
			<point x="292" y="489" type="curve" smooth="yes"/>
			<point x="292" y="510"/>
			<point x="274" y="527"/>
			<point x="253" y="527" type="curve" smooth="yes"/>
			<point x="177" y="527" type="line"/>
			<point x="177" y="545" type="line" smooth="yes"/>
			<point x="177" y="559"/>
			<point x="178" y="581"/>
			<point x="180" y="595" type="curve" smooth="yes"/>
			<point x="186" y="642"/>
			<point x="218" y="674"/>
			<point x="288" y="674" type="curve" smooth="yes"/>
			<point x="313" y="674"/>
			<point x="335" y="672"/>
			<point x="355" y="667" type="curve"/>
			<point x="355" y="159" type="line" smooth="yes"/>
			<point x="355" y="127"/>
			<point x="355" y="103"/>
			<point x="356" y="83" type="curve" smooth="yes"/>
			<point x="359" y="15"/>
			<point x="399" y="-6"/>
			<point x="454" y="-6" type="curve" smooth="yes"/>
			<point x="468" y="-6"/>
			<point x="483" y="-5"/>
			<point x="498" y="-4" type="curve" smooth="yes"/>
			<point x="518" y="-3"/>
			<point x="535" y="14"/>
			<point x="535" y="35" type="curve" smooth="yes"/>
			<point x="535" y="54"/>
			<point x="519" y="71"/>
			<point x="500" y="73" type="curve" smooth="yes"/>
			<point x="476" y="76"/>
			<point x="467" y="88"/>
		</contour>
	</outline>
</glyph>
<glyph name="uF1710" format="2">
	<advance width="981"/>
	<unicode hex="F1710"/>
	<outline>
		<contour>
			<point x="557" y="50" type="curve" smooth="yes"/>
			<point x="557" y="235" type="line"/>
			<point x="886" y="235" type="line" smooth="yes"/>
			<point x="923" y="235"/>
			<point x="945" y="279"/>
			<point x="945" y="279" type="curve" smooth="yes"/>
			<point x="945" y="429"/>
			<point x="862" y="545"/>
			<point x="708" y="545" type="curve" smooth="yes"/>
			<point x="650" y="545"/>
			<point x="598" y="529"/>
			<point x="557" y="499" type="curve"/>
			<point x="557" y="686" type="line" smooth="yes"/>
			<point x="557" y="716"/>
			<point x="532" y="741"/>
			<point x="502" y="741" type="curve" smooth="yes"/>
			<point x="472" y="741"/>
			<point x="447" y="716"/>
			<point x="447" y="686" type="curve" smooth="yes"/>
			<point x="447" y="459" type="line"/>
			<point x="430" y="486" type="line" smooth="yes"/>
			<point x="417" y="506"/>
			<point x="405" y="519"/>
			<point x="380" y="529" type="curve" smooth="yes"/>
			<point x="352" y="539"/>
			<point x="316" y="545"/>
			<point x="286" y="545" type="curve" smooth="yes"/>
			<point x="149" y="545"/>
			<point x="29" y="451"/>
			<point x="29" y="257" type="curve" smooth="yes"/>
			<point x="29" y="101"/>
			<point x="116" y="-14"/>
			<point x="268" y="-14" type="curve" smooth="yes"/>
			<point x="307" y="-14"/>
			<point x="346" y="-6"/>
			<point x="376" y="8" type="curve" smooth="yes"/>
			<point x="400" y="19"/>
			<point x="413" y="34"/>
			<point x="428" y="56" type="curve" smooth="yes"/>
			<point x="447" y="84" type="line"/>
			<point x="447" y="50" type="line" smooth="yes"/>
			<point x="447" y="20"/>
			<point x="472" y="-6"/>
			<point x="502" y="-6" type="curve" smooth="yes"/>
			<point x="532" y="-6"/>
			<point x="557" y="20"/>
		</contour>
		<contour>
			<point x="145" y="266" type="curve" smooth="yes"/>
			<point x="145" y="398"/>
			<point x="211" y="465"/>
			<point x="298" y="465" type="curve" smooth="yes"/>
			<point x="369" y="465"/>
			<point x="447" y="417"/>
			<point x="447" y="288" type="curve" smooth="yes"/>
			<point x="447" y="260" type="line" smooth="yes"/>
			<point x="447" y="118"/>
			<point x="376" y="66"/>
			<point x="293" y="66" type="curve" smooth="yes"/>
			<point x="198" y="66"/>
			<point x="145" y="151"/>
		</contour>
		<contour>
			<point x="563" y="312" type="line"/>
			<point x="575" y="414"/>
			<point x="629" y="465"/>
			<point x="704" y="465" type="curve" smooth="yes"/>
			<point x="781" y="465"/>
			<point x="824" y="410"/>
			<point x="832" y="312" type="curve"/>
		</contour>
	</outline>
</glyph>
<glyph name="uF1850" format="2">
	<advance width="1004"/>
	<unicode hex="F1850"/>
	<outline>
		<contour>
			<point x="725" y="592" type="curve" smooth="yes"/>
			<point x="596" y="592"/>
			<point x="487" y="517"/>
			<point x="487" y="395" type="curve" smooth="yes"/>
			<point x="487" y="389" type="line"/>
			<point x="205" y="389" type="line"/>
			<point x="205" y="603" type="line"/>
			<point x="524" y="603" type="line" smooth="yes"/>
			<point x="548" y="603"/>
			<point x="568" y="622"/>
			<point x="568" y="647" type="curve" smooth="yes"/>
			<point x="568" y="671"/>
			<point x="548" y="690"/>
			<point x="524" y="690" type="curve" smooth="yes"/>
			<point x="153" y="690" type="line" smooth="yes"/>
			<point x="116" y="690"/>
			<point x="95" y="669"/>
			<point x="95" y="632" type="curve" smooth="yes"/>
			<point x="95" y="58" type="line" smooth="yes"/>
			<point x="95" y="21"/>
			<point x="116" y="0"/>
			<point x="153" y="0" type="curve" smooth="yes"/>
			<point x="481" y="0" type="line"/>
			<point x="522" y="-82"/>
			<point x="609" y="-126"/>
			<point x="730" y="-126" type="curve" smooth="yes"/>
			<point x="864" y="-126"/>
			<point x="975" y="-50"/>
			<point x="975" y="75" type="curve" smooth="yes"/>
			<point x="975" y="190"/>
			<point x="903" y="255"/>
			<point x="751" y="290" type="curve" smooth="yes"/>
			<point x="644" y="315"/>
			<point x="603" y="346"/>
			<point x="603" y="413" type="curve" smooth="yes"/>
			<point x="603" y="478"/>
			<point x="654" y="508"/>
			<point x="719" y="508" type="curve" smooth="yes"/>
			<point x="786" y="508"/>
			<point x="829" y="475"/>
			<point x="846" y="416" type="curve" smooth="yes"/>
			<point x="852" y="394"/>
			<point x="873" y="376"/>
			<point x="898" y="376" type="curve" smooth="yes"/>
			<point x="929" y="376"/>
			<point x="953" y="401"/>
			<point x="953" y="431" type="curve" smooth="yes"/>
			<point x="953" y="438"/>
			<point x="952" y="444"/>
			<point x="950" y="450" type="curve" smooth="yes"/>
			<point x="918" y="536"/>
			<point x="846" y="592"/>
		</contour>
		<contour>
			<point x="205" y="88" type="line"/>
			<point x="205" y="302" type="line"/>
			<point x="511" y="302" type="line"/>
			<point x="545" y="246"/>
			<point x="615" y="216"/>
			<point x="705" y="195" type="curve" smooth="yes"/>
			<point x="817" y="169"/>
			<point x="859" y="132"/>
			<point x="859" y="60" type="curve" smooth="yes"/>
			<point x="859" y="-3"/>
			<point x="802" y="-42"/>
			<point x="730" y="-42" type="curve" smooth="yes"/>
			<point x="650" y="-42"/>
			<point x="591" y="1"/>
			<point x="572" y="84" type="curve"/>
			<point x="572" y="86" type="line" smooth="yes"/>
			<point x="572" y="87"/>
			<point x="551" y="88"/>
			<point x="514" y="88" type="curve" smooth="yes"/>
		</contour>
	</outline>
</glyph>
<glyph name="uF1920" format="2">
	<advance width="944"/>
	<unicode hex="F1920"/>
	<outline>
		<contour>
			<point x="309" y="576"/>
			<point x="314" y="582" type="curve" smooth="yes"/>
			<point x="380" y="655" type="line" smooth="yes"/>
			<point x="384" y="659"/>
			<point x="386" y="665"/>
			<point x="386" y="672" type="curve" smooth="yes"/>
			<point x="386" y="687"/>
			<point x="372" y="699"/>
			<point x="357" y="697" type="curve" smooth="yes"/>
			<point x="310" y="691"/>
			<point x="267" y="654"/>
			<point x="263" y="608" type="curve" smooth="yes"/>
			<point x="263" y="602" type="line" smooth="yes"/>
			<point x="263" y="585"/>
			<point x="276" y="572"/>
			<point x="292" y="572" type="curve" smooth="yes"/>
			<point x="301" y="572"/>
		</contour>
		<contour>
			<point x="29" y="264" type="curve" smooth="yes"/>
			<point x="29" y="76"/>
			<point x="136" y="-14"/>
			<point x="278" y="-14" type="curve" smooth="yes"/>
			<point x="369" y="-14"/>
			<point x="450" y="23"/>
			<point x="493" y="102" type="curve" smooth="yes"/>
			<point x="497" y="110"/>
			<point x="499" y="117"/>
			<point x="499" y="126" type="curve" smooth="yes"/>
			<point x="499" y="155"/>
			<point x="475" y="178"/>
			<point x="447" y="178" type="curve" smooth="yes"/>
			<point x="425" y="178"/>
			<point x="406" y="164"/>
			<point x="399" y="144" type="curve" smooth="yes"/>
			<point x="379" y="93"/>
			<point x="335" y="66"/>
			<point x="282" y="66" type="curve" smooth="yes"/>
			<point x="210" y="66"/>
			<point x="152" y="108"/>
			<point x="143" y="235" type="curve"/>
			<point x="849" y="235" type="line" smooth="yes"/>
			<point x="886" y="235"/>
			<point x="908" y="279"/>
			<point x="908" y="279" type="curve" smooth="yes"/>
			<point x="908" y="429"/>
			<point x="825" y="545"/>
			<point x="671" y="545" type="curve" smooth="yes"/>
			<point x="589" y="545"/>
			<point x="520" y="513"/>
			<point x="474" y="457" type="curve"/>
			<point x="434" y="511"/>
			<point x="372" y="545"/>
			<point x="289" y="545" type="curve" smooth="yes"/>
			<point x="136" y="545"/>
			<point x="29" y="432"/>
		</contour>
		<contour>
			<point x="144" y="312" type="line"/>
			<point x="156" y="414"/>
			<point x="210" y="465"/>
			<point x="285" y="465" type="curve" smooth="yes"/>
			<point x="362" y="465"/>
			<point x="405" y="410"/>
			<point x="413" y="312" type="curve"/>
		</contour>
		<contour>
			<point x="526" y="312" type="line"/>
			<point x="538" y="414"/>
			<point x="592" y="465"/>
			<point x="667" y="465" type="curve" smooth="yes"/>
			<point x="744" y="465"/>
			<point x="787" y="410"/>
			<point x="795" y="312" type="curve"/>
		</contour>
	</outline>
</glyph>
<glyph name="uF19A0" format="2">
	<advance width="950"/>
	<unicode hex="F19A0"/>
	<outline>
		<contour>
			<point x="526" y="279" type="curve" smooth="yes"/>
			<point x="526" y="429"/>
			<point x="443" y="545"/>
			<point x="289" y="545" type="curve" smooth="yes"/>
			<point x="136" y="545"/>
			<point x="29" y="432"/>
			<point x="29" y="264" type="curve" smooth="yes"/>
			<point x="29" y="76"/>
			<point x="136" y="-14"/>
			<point x="278" y="-14" type="curve" smooth="yes"/>
			<point x="343" y="-14"/>
			<point x="404" y="5"/>
			<point x="449" y="44" type="curve"/>
			<point x="480" y="9"/>
			<point x="530" y="-14"/>
			<point x="598" y="-14" type="curve" smooth="yes"/>
			<point x="637" y="-14"/>
			<point x="669" y="-9"/>
			<point x="700" y="6" type="curve" smooth="yes"/>
			<point x="724" y="18"/>
			<point x="737" y="34"/>
			<point x="750" y="58" type="curve" smooth="yes"/>
			<point x="769" y="91" type="line"/>
			<point x="769" y="49" type="line" smooth="yes"/>
			<point x="769" y="19"/>
			<point x="793" y="-6"/>
			<point x="824" y="-6" type="curve" smooth="yes"/>
			<point x="854" y="-6"/>
			<point x="878" y="19"/>
			<point x="878" y="49" type="curve" smooth="yes"/>
			<point x="878" y="482" type="line" smooth="yes"/>
			<point x="878" y="512"/>
			<point x="854" y="537"/>
			<point x="824" y="537" type="curve" smooth="yes"/>
			<point x="793" y="537"/>
			<point x="769" y="512"/>
			<point x="769" y="482" type="curve" smooth="yes"/>
			<point x="769" y="281" type="line" smooth="yes"/>
			<point x="769" y="127"/>
			<point x="711" y="68"/>
			<point x="634" y="68" type="curve" smooth="yes"/>
			<point x="583" y="68"/>
			<point x="549" y="94"/>
			<point x="532" y="133" type="curve" smooth="yes"/>
			<point x="521" y="159"/>
			<point x="494" y="179"/>
			<point x="463" y="179" type="curve" smooth="yes"/>
			<point x="433" y="179"/>
			<point x="407" y="160"/>
			<point x="395" y="135" type="curve" smooth="yes"/>
			<point x="374" y="90"/>
			<point x="332" y="66"/>
			<point x="282" y="66" type="curve" smooth="yes"/>
			<point x="210" y="66"/>
			<point x="152" y="108"/>
			<point x="143" y="235" type="curve"/>
			<point x="467" y="235" type="line" smooth="yes"/>
			<point x="504" y="235"/>
			<point x="526" y="279"/>
		</contour>
		<contour>
			<point x="144" y="312" type="line"/>
			<point x="156" y="414"/>
			<point x="210" y="465"/>
			<point x="285" y="465" type="curve" smooth="yes"/>
			<point x="362" y="465"/>
			<point x="405" y="410"/>
			<point x="413" y="312" type="curve"/>
		</contour>
	</outline>
</glyph>
<glyph name="uF3230" format="2">
	<advance width="1214"/>
	<unicode hex="F3230"/>
	<outline>
		<contour>
			<point x="530" y="0" type="curve" smooth="yes"/>
			<point x="1146" y="0" type="line" smooth="yes"/>
			<point x="1171" y="0"/>
			<point x="1192" y="21"/>
			<point x="1192" y="46" type="curve" smooth="yes"/>
			<point x="1192" y="71"/>
			<point x="1171" y="92"/>
			<point x="1146" y="92" type="curve" smooth="yes"/>
			<point x="820" y="92" type="line"/>
			<point x="820" y="302" type="line"/>
			<point x="1111" y="302" type="line" smooth="yes"/>
			<point x="1135" y="302"/>
			<point x="1155" y="321"/>
			<point x="1155" y="346" type="curve" smooth="yes"/>
			<point x="1155" y="370"/>
			<point x="1135" y="389"/>
			<point x="1111" y="389" type="curve" smooth="yes"/>
			<point x="820" y="389" type="line"/>
			<point x="820" y="603" type="line"/>
			<point x="1139" y="603" type="line" smooth="yes"/>
			<point x="1163" y="603"/>
			<point x="1183" y="622"/>
			<point x="1183" y="647" type="curve" smooth="yes"/>
			<point x="1183" y="671"/>
			<point x="1163" y="690"/>
			<point x="1139" y="690" type="curve" smooth="yes"/>
			<point x="768" y="690" type="line" smooth="yes"/>
			<point x="731" y="690"/>
			<point x="710" y="669"/>
			<point x="710" y="632" type="curve" smooth="yes"/>
			<point x="710" y="91" type="line"/>
			<point x="582" y="91" type="line"/>
			<point x="582" y="641" type="line" smooth="yes"/>
			<point x="582" y="671"/>
			<point x="557" y="696"/>
			<point x="527" y="696" type="curve" smooth="yes"/>
			<point x="497" y="696"/>
			<point x="472" y="671"/>
			<point x="472" y="641" type="curve" smooth="yes"/>
			<point x="472" y="383" type="line"/>
			<point x="205" y="383" type="line"/>
			<point x="205" y="933" type="line" smooth="yes"/>
			<point x="205" y="963"/>
			<point x="180" y="988"/>
			<point x="150" y="988" type="curve" smooth="yes"/>
			<point x="120" y="988"/>
			<point x="95" y="963"/>
			<point x="95" y="933" type="curve" smooth="yes"/>
			<point x="95" y="350" type="line" smooth="yes"/>
			<point x="95" y="313"/>
			<point x="116" y="292"/>
			<point x="153" y="292" type="curve" smooth="yes"/>
			<point x="472" y="292" type="line"/>
			<point x="472" y="58" type="line" smooth="yes"/>
			<point x="472" y="21"/>
			<point x="493" y="0"/>
		</contour>
	</outline>
</glyph>
<glyph name="uF3250" format="2">
	<advance width="1071"/>
	<unicode hex="F3250"/>
	<outline>
		<contour>
			<point x="1009" y="49" type="curve" smooth="yes"/>
			<point x="1009" y="423" type="line" smooth="yes"/>
			<point x="1009" y="453"/>
			<point x="985" y="478"/>
			<point x="955" y="478" type="curve" smooth="yes"/>
			<point x="924" y="478"/>
			<point x="900" y="453"/>
			<point x="900" y="423" type="curve" smooth="yes"/>
			<point x="900" y="47" type="line" smooth="yes"/>
			<point x="900" y="26"/>
			<point x="900" y="7"/>
			<point x="898" y="-9" type="curve" smooth="yes"/>
			<point x="891" y="-92"/>
			<point x="838" y="-148"/>
			<point x="738" y="-148" type="curve" smooth="yes"/>
			<point x="639" y="-148"/>
			<point x="586" y="-92"/>
			<point x="579" y="-9" type="curve" smooth="yes"/>
			<point x="577" y="7"/>
			<point x="577" y="26"/>
			<point x="577" y="47" type="curve" smooth="yes"/>
			<point x="577" y="230" type="line" smooth="yes"/>
			<point x="577" y="260"/>
			<point x="553" y="285"/>
			<point x="523" y="285" type="curve" smooth="yes"/>
			<point x="492" y="285"/>
			<point x="468" y="260"/>
			<point x="468" y="230" type="curve" smooth="yes"/>
			<point x="468" y="91" type="line"/>
			<point x="205" y="91" type="line"/>
			<point x="205" y="641" type="line" smooth="yes"/>
			<point x="205" y="671"/>
			<point x="180" y="696"/>
			<point x="150" y="696" type="curve" smooth="yes"/>
			<point x="120" y="696"/>
			<point x="95" y="671"/>
			<point x="95" y="641" type="curve" smooth="yes"/>
			<point x="95" y="58" type="line" smooth="yes"/>
			<point x="95" y="21"/>
			<point x="116" y="0"/>
			<point x="153" y="0" type="curve" smooth="yes"/>
			<point x="469" y="0" type="line"/>
			<point x="469" y="-7"/>
			<point x="469" y="-14"/>
			<point x="470" y="-22" type="curve" smooth="yes"/>
			<point x="479" y="-137"/>
			<point x="558" y="-232"/>
			<point x="738" y="-232" type="curve" smooth="yes"/>
			<point x="918" y="-232"/>
			<point x="997" y="-137"/>
			<point x="1007" y="-22" type="curve" smooth="yes"/>
			<point x="1009" y="4"/>
			<point x="1009" y="24"/>
		</contour>
	</outline>
</glyph>
<glyph name="uF3350" format="2">
	<advance width="609"/>
	<unicode hex="F3350"/>
	<outline>
		<contour>
			<point x="537" y="49" type="curve" smooth="yes"/>
			<point x="537" y="482" type="line" smooth="yes"/>
			<point x="537" y="512"/>
			<point x="513" y="537"/>
			<point x="483" y="537" type="curve" smooth="yes"/>
			<point x="452" y="537"/>
			<point x="428" y="512"/>
			<point x="428" y="482" type="curve" smooth="yes"/>
			<point x="428" y="281" type="line" smooth="yes"/>
			<point x="428" y="127"/>
			<point x="370" y="68"/>
			<point x="293" y="68" type="curve" smooth="yes"/>
			<point x="225" y="68"/>
			<point x="176" y="103"/>
			<point x="175" y="176" type="curve" smooth="yes"/>
			<point x="175" y="686" type="line" smooth="yes"/>
			<point x="175" y="716"/>
			<point x="150" y="741"/>
			<point x="120" y="741" type="curve" smooth="yes"/>
			<point x="90" y="741"/>
			<point x="65" y="716"/>
			<point x="65" y="686" type="curve" smooth="yes"/>
			<point x="65" y="159" type="line" smooth="yes"/>
			<point x="65" y="127"/>
			<point x="73" y="87"/>
			<point x="83" y="68" type="curve" smooth="yes"/>
			<point x="119" y="0"/>
			<point x="199" y="-14"/>
			<point x="257" y="-14" type="curve" smooth="yes"/>
			<point x="296" y="-14"/>
			<point x="328" y="-9"/>
			<point x="359" y="6" type="curve" smooth="yes"/>
			<point x="383" y="18"/>
			<point x="396" y="34"/>
			<point x="409" y="58" type="curve" smooth="yes"/>
			<point x="428" y="91" type="line"/>
			<point x="428" y="49" type="line" smooth="yes"/>
			<point x="428" y="19"/>
			<point x="452" y="-6"/>
			<point x="483" y="-6" type="curve" smooth="yes"/>
			<point x="513" y="-6"/>
			<point x="537" y="19"/>
		</contour>
	</outline>
</glyph>
<glyph name="uF3410" format="2">
	<advance width="1216"/>
	<unicode hex="F3410"/>
	<outline>
		<contour>
			<point x="811" y="20"/>
			<point x="811" y="51" type="curve" smooth="yes"/>
			<point x="811" y="272" type="line"/>
			<point x="927" y="272" type="line" smooth="yes"/>
			<point x="964" y="272"/>
			<point x="989" y="272"/>
			<point x="1021" y="276" type="curve" smooth="yes"/>
			<point x="1121" y="289"/>
			<point x="1203" y="359"/>
			<point x="1203" y="481" type="curve" smooth="yes"/>
			<point x="1203" y="603"/>
			<point x="1129" y="672"/>
			<point x="1021" y="686" type="curve" smooth="yes"/>
			<point x="989" y="690"/>
			<point x="964" y="690"/>
			<point x="927" y="690" type="curve" smooth="yes"/>
			<point x="686" y="690" type="line" smooth="yes"/>
			<point x="652" y="690"/>
			<point x="631" y="674"/>
			<point x="621" y="642" type="curve" smooth="yes"/>
			<point x="454" y="98" type="line"/>
			<point x="287" y="642" type="line" smooth="yes"/>
			<point x="277" y="674"/>
			<point x="256" y="690"/>
			<point x="222" y="690" type="curve" smooth="yes"/>
			<point x="153" y="690" type="line" smooth="yes"/>
			<point x="116" y="690"/>
			<point x="95" y="669"/>
			<point x="95" y="632" type="curve" smooth="yes"/>
			<point x="95" y="50" type="line" smooth="yes"/>
			<point x="95" y="20"/>
			<point x="120" y="-6"/>
			<point x="150" y="-6" type="curve" smooth="yes"/>
			<point x="180" y="-6"/>
			<point x="205" y="20"/>
			<point x="205" y="50" type="curve" smooth="yes"/>
			<point x="205" y="339" type="line" smooth="yes"/>
			<point x="205" y="418"/>
			<point x="205" y="511"/>
			<point x="203" y="585" type="curve"/>
			<point x="222" y="512"/>
			<point x="251" y="418"/>
			<point x="276" y="341" type="curve" smooth="yes"/>
			<point x="371" y="53" type="line" smooth="yes"/>
			<point x="382" y="19"/>
			<point x="414" y="-6"/>
			<point x="451" y="-6" type="curve" smooth="yes"/>
			<point x="489" y="-6"/>
			<point x="521" y="19"/>
			<point x="532" y="53" type="curve" smooth="yes"/>
			<point x="626" y="340" type="line" smooth="yes"/>
			<point x="652" y="418"/>
			<point x="681" y="513"/>
			<point x="701" y="586" type="curve"/>
			<point x="699" y="513"/>
			<point x="699" y="418"/>
			<point x="699" y="339" type="curve" smooth="yes"/>
			<point x="699" y="51" type="line" smooth="yes"/>
			<point x="699" y="20"/>
			<point x="724" y="-6"/>
			<point x="755" y="-6" type="curve" smooth="yes"/>
			<point x="786" y="-6"/>
		</contour>
		<contour>
			<point x="811" y="361" type="line"/>
			<point x="811" y="601" type="line"/>
			<point x="930" y="601" type="line" smooth="yes"/>
			<point x="958" y="601"/>
			<point x="982" y="600"/>
			<point x="1000" y="597" type="curve" smooth="yes"/>
			<point x="1048" y="588"/>
			<point x="1087" y="554"/>
			<point x="1087" y="481" type="curve" smooth="yes"/>
			<point x="1087" y="408"/>
			<point x="1048" y="374"/>
			<point x="1000" y="365" type="curve" smooth="yes"/>
			<point x="982" y="362"/>
			<point x="958" y="361"/>
			<point x="930" y="361" type="curve" smooth="yes"/>
		</contour>
	</outline>
</glyph>
<glyph name="uF3610" format="2">
	<advance width="983"/>
	<unicode hex="F3610"/>
	<outline>
		<contour>
			<point x="554" y="0" type="curve" smooth="yes"/>
			<point x="607" y="0" type="line" smooth="yes"/>
			<point x="644" y="0"/>
			<point x="665" y="21"/>
			<point x="665" y="58" type="curve" smooth="yes"/>
			<point x="665" y="228" type="line"/>
			<point x="787" y="229" type="line"/>
			<point x="851" y="34" type="line" smooth="yes"/>
			<point x="858" y="11"/>
			<point x="879" y="-5"/>
			<point x="904" y="-5" type="curve" smooth="yes"/>
			<point x="935" y="-5"/>
			<point x="960" y="21"/>
			<point x="960" y="51" type="curve" smooth="yes"/>
			<point x="960" y="58"/>
			<point x="959" y="65"/>
			<point x="957" y="70" type="curve" smooth="yes"/>
			<point x="739" y="694" type="line"/>
			<point x="739" y="695"/>
			<point x="737" y="696"/>
			<point x="736" y="696" type="curve" smooth="yes"/>
			<point x="734" y="696"/>
			<point x="556" y="691"/>
			<point x="556" y="690" type="curve" smooth="yes"/>
			<point x="556" y="358" type="line" smooth="yes"/>
			<point x="556" y="287"/>
			<point x="557" y="195"/>
			<point x="559" y="117" type="curve"/>
			<point x="272" y="649" type="line" smooth="yes"/>
			<point x="257" y="678"/>
			<point x="235" y="690"/>
			<point x="203" y="690" type="curve" smooth="yes"/>
			<point x="153" y="690" type="line" smooth="yes"/>
			<point x="116" y="690"/>
			<point x="95" y="669"/>
			<point x="95" y="632" type="curve" smooth="yes"/>
			<point x="95" y="50" type="line" smooth="yes"/>
			<point x="95" y="20"/>
			<point x="120" y="-6"/>
			<point x="150" y="-6" type="curve" smooth="yes"/>
			<point x="180" y="-6"/>
			<point x="205" y="20"/>
			<point x="205" y="50" type="curve" smooth="yes"/>
			<point x="205" y="330" type="line" smooth="yes"/>
			<point x="205" y="401"/>
			<point x="204" y="490"/>
			<point x="201" y="569" type="curve"/>
			<point x="485" y="41" type="line" smooth="yes"/>
			<point x="500" y="12"/>
			<point x="522" y="0"/>
		</contour>
		<contour>
			<point x="666" y="315" type="line"/>
			<point x="666" y="599" type="line"/>
			<point x="667" y="600" type="line"/>
			<point x="758" y="316" type="line"/>
		</contour>
	</outline>
</glyph>
<glyph name="uF3850" format="2">
	<advance width="1462"/>
	<unicode hex="F3850"/>
	<outline>
		<contour>
			<point x="382" y="704" type="curve" smooth="yes"/>
			<point x="170" y="704"/>
			<point x="49" y="559"/>
			<point x="49" y="345" type="curve" smooth="yes"/>
			<point x="49" y="132"/>
			<point x="170" y="-14"/>
			<point x="382" y="-14" type="curve" smooth="yes"/>
			<point x="593" y="-14"/>
			<point x="714" y="132"/>
			<point x="714" y="345" type="curve" smooth="yes"/>
			<point x="714" y="451"/>
			<point x="684" y="540"/>
			<point x="629" y="603" type="curve"/>
			<point x="714" y="603" type="line"/>
			<point x="714" y="49" type="line" smooth="yes"/>
			<point x="714" y="19"/>
			<point x="738" y="-6"/>
			<point x="769" y="-6" type="curve" smooth="yes"/>
			<point x="799" y="-6"/>
			<point x="823" y="19"/>
			<point x="823" y="49" type="curve" smooth="yes"/>
			<point x="823" y="603" type="line"/>
			<point x="957" y="603" type="line"/>
			<point x="957" y="58" type="line" smooth="yes"/>
			<point x="957" y="21"/>
			<point x="978" y="0"/>
			<point x="1015" y="0" type="curve" smooth="yes"/>
			<point x="1396" y="0" type="line" smooth="yes"/>
			<point x="1420" y="0"/>
			<point x="1440" y="20"/>
			<point x="1440" y="44" type="curve" smooth="yes"/>
			<point x="1440" y="68"/>
			<point x="1420" y="88"/>
			<point x="1396" y="88" type="curve" smooth="yes"/>
			<point x="1067" y="88" type="line"/>
			<point x="1067" y="302" type="line"/>
			<point x="1358" y="302" type="line" smooth="yes"/>
			<point x="1382" y="302"/>
			<point x="1402" y="321"/>
			<point x="1402" y="346" type="curve" smooth="yes"/>
			<point x="1402" y="370"/>
			<point x="1382" y="389"/>
			<point x="1358" y="389" type="curve" smooth="yes"/>
			<point x="1067" y="389" type="line"/>
			<point x="1067" y="603" type="line"/>
			<point x="1386" y="603" type="line" smooth="yes"/>
			<point x="1410" y="603"/>
			<point x="1430" y="622"/>
			<point x="1430" y="647" type="curve" smooth="yes"/>
			<point x="1430" y="671"/>
			<point x="1410" y="690"/>
			<point x="1386" y="690" type="curve" smooth="yes"/>
			<point x="488" y="690" type="line"/>
			<point x="456" y="699"/>
			<point x="420" y="704"/>
		</contour>
		<contour>
			<point x="167" y="345" type="curve" smooth="yes"/>
			<point x="167" y="517"/>
			<point x="247" y="620"/>
			<point x="382" y="620" type="curve" smooth="yes"/>
			<point x="516" y="620"/>
			<point x="596" y="517"/>
			<point x="596" y="345" type="curve" smooth="yes"/>
			<point x="596" y="174"/>
			<point x="516" y="70"/>
			<point x="382" y="70" type="curve" smooth="yes"/>
			<point x="247" y="70"/>
			<point x="167" y="174"/>
		</contour>
	</outline>
</glyph>
<glyph name="uF3870" format="2">
	<advance width="786"/>
	<unicode hex="F3870"/>
	<outline>
		<contour>
			<point x="382" y="704" type="curve" smooth="yes"/>
			<point x="170" y="704"/>
			<point x="49" y="559"/>
			<point x="49" y="345" type="curve" smooth="yes"/>
			<point x="49" y="132"/>
			<point x="170" y="-14"/>
			<point x="382" y="-14" type="curve" smooth="yes"/>
			<point x="593" y="-14"/>
			<point x="714" y="132"/>
			<point x="714" y="345" type="curve" smooth="yes"/>
			<point x="715" y="640" type="line" smooth="yes"/>
			<point x="715" y="670"/>
			<point x="690" y="695"/>
			<point x="660" y="695" type="curve" smooth="yes"/>
			<point x="630" y="695"/>
			<point x="605" y="671"/>
			<point x="605" y="641" type="curve" smooth="yes"/>
			<point x="605" y="627" type="line"/>
			<point x="550" y="676"/>
			<point x="475" y="704"/>
		</contour>
		<contour>
			<point x="167" y="345" type="curve" smooth="yes"/>
			<point x="167" y="517"/>
			<point x="247" y="620"/>
			<point x="382" y="620" type="curve" smooth="yes"/>
			<point x="516" y="620"/>
			<point x="596" y="517"/>
			<point x="596" y="345" type="curve" smooth="yes"/>
			<point x="596" y="174"/>
			<point x="516" y="70"/>
			<point x="382" y="70" type="curve" smooth="yes"/>
			<point x="247" y="70"/>
			<point x="167" y="174"/>
		</contour>
		<contour>
			<point x="628" y="746"/>
			<point x="637" y="768" type="curve" smooth="yes"/>
			<point x="639" y="774"/>
			<point x="641" y="781"/>
			<point x="641" y="788" type="curve" smooth="yes"/>
			<point x="641" y="816"/>
			<point x="618" y="839"/>
			<point x="590" y="839" type="curve" smooth="yes"/>
			<point x="562" y="839"/>
			<point x="539" y="816"/>
			<point x="539" y="788" type="curve" smooth="yes"/>
			<point x="539" y="760"/>
			<point x="562" y="737"/>
			<point x="590" y="737" type="curve" smooth="yes"/>
			<point x="602" y="737"/>
			<point x="599" y="761"/>
			<point x="595" y="786" type="curve" smooth="yes"/>
			<point x="589" y="821"/>
			<point x="584" y="839"/>
			<point x="574" y="839" type="curve" smooth="yes"/>
			<point x="546" y="839"/>
			<point x="522" y="816"/>
			<point x="522" y="788" type="curve" smooth="yes"/>
			<point x="522" y="781"/>
			<point x="525" y="774"/>
			<point x="527" y="768" type="curve" smooth="yes"/>
			<point x="536" y="746"/>
			<point x="557" y="728"/>
			<point x="582" y="728" type="curve" smooth="yes"/>
			<point x="607" y="728"/>
		</contour>
		<contour>
			<point x="783" y="746"/>
			<point x="792" y="768" type="curve" smooth="yes"/>
			<point x="794" y="774"/>
			<point x="796" y="781"/>
			<point x="796" y="788" type="curve" smooth="yes"/>
			<point x="796" y="816"/>
			<point x="773" y="839"/>
			<point x="745" y="839" type="curve" smooth="yes"/>
			<point x="717" y="839"/>
			<point x="694" y="816"/>
			<point x="694" y="788" type="curve" smooth="yes"/>
			<point x="694" y="760"/>
			<point x="717" y="737"/>
			<point x="745" y="737" type="curve" smooth="yes"/>
			<point x="757" y="737"/>
			<point x="754" y="761"/>
			<point x="750" y="786" type="curve" smooth="yes"/>
			<point x="744" y="821"/>
			<point x="739" y="839"/>
			<point x="729" y="839" type="curve" smooth="yes"/>
			<point x="701" y="839"/>
			<point x="678" y="816"/>
			<point x="678" y="788" type="curve" smooth="yes"/>
			<point x="678" y="781"/>
			<point x="680" y="774"/>
			<point x="682" y="768" type="curve" smooth="yes"/>
			<point x="691" y="746"/>
			<point x="712" y="728"/>
			<point x="737" y="728" type="curve" smooth="yes"/>
			<point x="762" y="728"/>
		</contour>
	</outline>
</glyph>
<glyph name="uF4510" format="2">
	<advance width="771"/>
	<unicode hex="F4510"/>
	<outline>
		<contour>
			<point x="735" y="493" type="curve" smooth="yes"/>
			<point x="735" y="643"/>
			<point x="652" y="759"/>
			<point x="498" y="759" type="curve" smooth="yes"/>
			<point x="360" y="759"/>
			<point x="259" y="667"/>
			<point x="241" y="525" type="curve"/>
			<point x="238" y="524"/>
			<point x="235" y="522"/>
			<point x="232" y="520" type="curve" smooth="yes"/>
			<point x="226" y="516"/>
			<point x="219" y="506"/>
			<point x="205" y="483" type="curve" smooth="yes"/>
			<point x="179" y="441" type="line"/>
			<point x="179" y="482" type="line" smooth="yes"/>
			<point x="179" y="512"/>
			<point x="154" y="537"/>
			<point x="124" y="537" type="curve" smooth="yes"/>
			<point x="94" y="537"/>
			<point x="69" y="512"/>
			<point x="69" y="482" type="curve" smooth="yes"/>
			<point x="69" y="50" type="line" smooth="yes"/>
			<point x="69" y="20"/>
			<point x="94" y="-6"/>
			<point x="124" y="-6" type="curve" smooth="yes"/>
			<point x="154" y="-6"/>
			<point x="179" y="20"/>
			<point x="179" y="50" type="curve" smooth="yes"/>
			<point x="179" y="276" type="line" smooth="yes"/>
			<point x="179" y="354"/>
			<point x="201" y="404"/>
			<point x="241" y="430" type="curve"/>
			<point x="255" y="292"/>
			<point x="336" y="218"/>
			<point x="449" y="203" type="curve" smooth="yes"/>
			<point x="472" y="200"/>
			<point x="495" y="218"/>
			<point x="495" y="243" type="curve" smooth="yes"/>
			<point x="495" y="263"/>
			<point x="480" y="279"/>
			<point x="462" y="283" type="curve" smooth="yes"/>
			<point x="402" y="295"/>
			<point x="360" y="342"/>
			<point x="352" y="449" type="curve"/>
			<point x="676" y="449" type="line" smooth="yes"/>
			<point x="713" y="449"/>
			<point x="735" y="493"/>
		</contour>
		<contour>
			<point x="353" y="526" type="line"/>
			<point x="365" y="628"/>
			<point x="419" y="679"/>
			<point x="494" y="679" type="curve" smooth="yes"/>
			<point x="571" y="679"/>
			<point x="614" y="624"/>
			<point x="622" y="526" type="curve"/>
		</contour>
	</outline>
</glyph>
<glyph name="uF4640" format="2">
	<advance width="949"/>
	<unicode hex="F4640"/>
	<outline>
		<contour>
			<point x="316" y="704" type="curve" smooth="yes"/>
			<point x="187" y="704"/>
			<point x="78" y="629"/>
			<point x="78" y="507" type="curve" smooth="yes"/>
			<point x="78" y="387"/>
			<point x="165" y="338"/>
			<point x="296" y="307" type="curve" smooth="yes"/>
			<point x="408" y="281"/>
			<point x="436" y="244"/>
			<point x="436" y="172" type="curve" smooth="yes"/>
			<point x="436" y="109"/>
			<point x="393" y="70"/>
			<point x="321" y="70" type="curve" smooth="yes"/>
			<point x="252" y="70"/>
			<point x="198" y="103"/>
			<point x="172" y="169" type="curve" smooth="yes"/>
			<point x="164" y="191"/>
			<point x="144" y="206"/>
			<point x="119" y="206" type="curve" smooth="yes"/>
			<point x="88" y="206"/>
			<point x="63" y="180"/>
			<point x="63" y="149" type="curve" smooth="yes"/>
			<point x="63" y="141"/>
			<point x="63" y="134"/>
			<point x="66" y="128" type="curve" smooth="yes"/>
			<point x="104" y="34"/>
			<point x="194" y="-14"/>
			<point x="321" y="-14" type="curve" smooth="yes"/>
			<point x="367" y="-14"/>
			<point x="409" y="-5"/>
			<point x="444" y="12" type="curve"/>
			<point x="444" y="-135" type="line" smooth="yes"/>
			<point x="444" y="-172"/>
			<point x="465" y="-193"/>
			<point x="502" y="-193" type="curve" smooth="yes"/>
			<point x="883" y="-193" type="line" smooth="yes"/>
			<point x="907" y="-193"/>
			<point x="927" y="-173"/>
			<point x="927" y="-149" type="curve" smooth="yes"/>
			<point x="927" y="-125"/>
			<point x="907" y="-105"/>
			<point x="883" y="-105" type="curve" smooth="yes"/>
			<point x="554" y="-105" type="line"/>
			<point x="554" y="109" type="line"/>
			<point x="845" y="109" type="line" smooth="yes"/>
			<point x="869" y="109"/>
			<point x="889" y="128"/>
			<point x="889" y="153" type="curve" smooth="yes"/>
			<point x="889" y="177"/>
			<point x="869" y="196"/>
			<point x="845" y="196" type="curve" smooth="yes"/>
			<point x="554" y="196" type="line"/>
			<point x="554" y="410" type="line"/>
			<point x="873" y="410" type="line" smooth="yes"/>
			<point x="897" y="410"/>
			<point x="917" y="429"/>
			<point x="917" y="454" type="curve" smooth="yes"/>
			<point x="917" y="478"/>
			<point x="897" y="497"/>
			<point x="873" y="497" type="curve" smooth="yes"/>
			<point x="558" y="497" type="line"/>
			<point x="543" y="615"/>
			<point x="468" y="704"/>
		</contour>
		<contour>
			<point x="194" y="525" type="curve" smooth="yes"/>
			<point x="194" y="590"/>
			<point x="245" y="620"/>
			<point x="310" y="620" type="curve" smooth="yes"/>
			<point x="390" y="620"/>
			<point x="436" y="573"/>
			<point x="444" y="494" type="curve"/>
			<point x="444" y="367" type="line"/>
			<point x="416" y="381"/>
			<point x="382" y="393"/>
			<point x="342" y="402" type="curve" smooth="yes"/>
			<point x="235" y="427"/>
			<point x="194" y="458"/>
		</contour>
	</outline>
</glyph>
<glyph name="uF4760" format="2">
	<advance width="527"/>
	<unicode hex="F4760"/>
	<outline>
		<contour>
			<point x="240" y="545" type="curve" smooth="yes"/>
			<point x="122" y="545"/>
			<point x="44" y="485"/>
			<point x="44" y="386" type="curve" smooth="yes"/>
			<point x="44" y="293"/>
			<point x="116" y="252"/>
			<point x="213" y="227" type="curve" smooth="yes"/>
			<point x="303" y="203"/>
			<point x="339" y="178"/>
			<point x="339" y="132" type="curve" smooth="yes"/>
			<point x="339" y="86"/>
			<point x="298" y="64"/>
			<point x="247" y="64" type="curve" smooth="yes"/>
			<point x="201" y="64"/>
			<point x="162" y="83"/>
			<point x="143" y="131" type="curve" smooth="yes"/>
			<point x="135" y="150"/>
			<point x="116" y="165"/>
			<point x="94" y="165" type="curve" smooth="yes"/>
			<point x="64" y="165"/>
			<point x="40" y="141"/>
			<point x="40" y="111" type="curve" smooth="yes"/>
			<point x="40" y="103"/>
			<point x="41" y="95"/>
			<point x="45" y="87" type="curve" smooth="yes"/>
			<point x="81" y="17"/>
			<point x="153" y="-14"/>
			<point x="243" y="-14" type="curve" smooth="yes"/>
			<point x="359" y="-14"/>
			<point x="450" y="37"/>
			<point x="450" y="140" type="curve" smooth="yes"/>
			<point x="450" y="234"/>
			<point x="389" y="280"/>
			<point x="273" y="310" type="curve" smooth="yes"/>
			<point x="194" y="331"/>
			<point x="155" y="351"/>
			<point x="155" y="399" type="curve" smooth="yes"/>
			<point x="155" y="439"/>
			<point x="180" y="468"/>
			<point x="232" y="468" type="curve" smooth="yes"/>
			<point x="286" y="468"/>
			<point x="319" y="435"/>
			<point x="330" y="379" type="curve" smooth="yes"/>
			<point x="331" y="374"/>
			<point x="331" y="369"/>
			<point x="331" y="365" type="curve" smooth="yes"/>
			<point x="335" y="297"/>
			<point x="374" y="276"/>
			<point x="432" y="276" type="curve" smooth="yes"/>
			<point x="445" y="276"/>
			<point x="458" y="277"/>
			<point x="472" y="278" type="curve" smooth="yes"/>
			<point x="493" y="280"/>
			<point x="510" y="296"/>
			<point x="510" y="318" type="curve" smooth="yes"/>
			<point x="510" y="338"/>
			<point x="494" y="355"/>
			<point x="474" y="358" type="curve" smooth="yes"/>
			<point x="450" y="361"/>
			<point x="442" y="372"/>
			<point x="441" y="394" type="curve" smooth="yes"/>
			<point x="440" y="410"/>
			<point x="440" y="426"/>
			<point x="440" y="444" type="curve" smooth="yes"/>
			<point x="440" y="829" type="line" smooth="yes"/>
			<point x="440" y="859"/>
			<point x="415" y="884"/>
			<point x="385" y="884" type="curve" smooth="yes"/>
			<point x="355" y="884"/>
			<point x="330" y="859"/>
			<point x="330" y="829" type="curve" smooth="yes"/>
			<point x="330" y="530" type="line"/>
			<point x="304" y="540"/>
			<point x="274" y="545"/>
		</contour>
	</outline>
</glyph>
<glyph name="uF5110" format="2">
	<advance width="948"/>
	<unicode hex="F5110"/>
	<outline>
		<contour>
			<point x="529" y="0" type="curve"/>
			<point x="853" y="0" type="line" smooth="yes"/>
			<point x="890" y="0"/>
			<point x="912" y="44"/>
			<point x="912" y="44" type="curve" smooth="yes"/>
			<point x="912" y="194"/>
			<point x="829" y="310"/>
			<point x="675" y="310" type="curve" smooth="yes"/>
			<point x="621" y="310"/>
			<point x="572" y="296"/>
			<point x="532" y="270" type="curve"/>
			<point x="532" y="482" type="line" smooth="yes"/>
			<point x="532" y="512"/>
			<point x="508" y="537"/>
			<point x="478" y="537" type="curve" smooth="yes"/>
			<point x="447" y="537"/>
			<point x="423" y="512"/>
			<point x="423" y="482" type="curve" smooth="yes"/>
			<point x="423" y="281" type="line" smooth="yes"/>
			<point x="423" y="127"/>
			<point x="365" y="68"/>
			<point x="288" y="68" type="curve" smooth="yes"/>
			<point x="220" y="68"/>
			<point x="182" y="106"/>
			<point x="174" y="164" type="curve" smooth="yes"/>
			<point x="171" y="191"/>
			<point x="170" y="220"/>
			<point x="170" y="237" type="curve" smooth="yes"/>
			<point x="170" y="482" type="line" smooth="yes"/>
			<point x="170" y="512"/>
			<point x="146" y="537"/>
			<point x="116" y="537" type="curve" smooth="yes"/>
			<point x="85" y="537"/>
			<point x="61" y="512"/>
			<point x="61" y="482" type="curve" smooth="yes"/>
			<point x="61" y="215" type="line" smooth="yes"/>
			<point x="61" y="172"/>
			<point x="62" y="148"/>
			<point x="66" y="121" type="curve" smooth="yes"/>
			<point x="78" y="48"/>
			<point x="142" y="-14"/>
			<point x="252" y="-14" type="curve" smooth="yes"/>
			<point x="291" y="-14"/>
			<point x="323" y="-9"/>
			<point x="354" y="6" type="curve" smooth="yes"/>
			<point x="378" y="18"/>
			<point x="391" y="34"/>
			<point x="404" y="58" type="curve" smooth="yes"/>
			<point x="419" y="84" type="line"/>
			<point x="416" y="66"/>
			<point x="415" y="48"/>
			<point x="415" y="29" type="curve" smooth="yes"/>
			<point x="415" y="-159"/>
			<point x="522" y="-249"/>
			<point x="664" y="-249" type="curve" smooth="yes"/>
			<point x="755" y="-249"/>
			<point x="836" y="-212"/>
			<point x="879" y="-133" type="curve" smooth="yes"/>
			<point x="883" y="-125"/>
			<point x="885" y="-118"/>
			<point x="885" y="-109" type="curve" smooth="yes"/>
			<point x="885" y="-80"/>
			<point x="861" y="-57"/>
			<point x="833" y="-57" type="curve" smooth="yes"/>
			<point x="811" y="-57"/>
			<point x="792" y="-71"/>
			<point x="785" y="-91" type="curve" smooth="yes"/>
			<point x="765" y="-142"/>
			<point x="721" y="-169"/>
			<point x="668" y="-169" type="curve" smooth="yes"/>
			<point x="596" y="-169"/>
			<point x="538" y="-127"/>
		</contour>
		<contour>
			<point x="532" y="77" type="line"/>
			<point x="532" y="91" type="line"/>
			<point x="547" y="184"/>
			<point x="600" y="230"/>
			<point x="671" y="230" type="curve" smooth="yes"/>
			<point x="748" y="230"/>
			<point x="791" y="175"/>
			<point x="799" y="77" type="curve"/>
		</contour>
	</outline>
</glyph>
